<svg id="SvgjsSvg1024" width="100%" height="100%" xmlns="http://www.w3.org/2000/svg" version="1.1" xlink="http://www.w3.org/1999/xlink" xmlns:svgjs="http://svgjs.com/svgjs" preserveAspectRatio="xMidYMid meet" viewBox="0 0 299.9999694824219 60.76416778564453" overflow="visible"><defs id="SvgjsDefs1025"></defs><g id="SvgjsG1026" transform="scale(0.48330472169380906)" opacity="1"><g id="SvgjsG1027" class="5cjVGhCXpP" transform="translate(0, 0) scale(0.4698295856965164)" light-content="false" non-strokable="false" fill="#2b2b2b"><path d="M219.6 48.1c-22.9-22.9-53.4-35.5-85.8-35.5S71 25.2 48.1 48.1s-35.5 53.4-35.5 85.8 12.6 62.9 35.5 85.8 53.4 35.5 85.8 35.5 62.9-12.6 85.8-35.5 35.5-53.4 35.5-85.8-12.7-62.9-35.6-85.8z"></path><path d="M133.8 0C59.9 0 0 59.9 0 133.8s59.9 133.8 133.8 133.8 133.8-59.9 133.8-133.8S207.8 0 133.8 0zm0 260.1c-69.7 0-126.3-56.5-126.3-126.3S64.1 7.6 133.8 7.6s126.3 56.5 126.3 126.3-56.5 126.2-126.3 126.2z"></path></g><g id="SvgjsG1028" class="8G_nPwnMJQ" transform="translate(19.260887967386818, 19.260890462331023) scale(0.8720462073863409)" light-content="true" non-strokable="false" fill="#ffffff"><path d="M75 39.453H25a4.701 4.701 0 0 0-4.688 4.688v4.687h59.376V44.14A4.701 4.701 0 0 0 75 39.454zM34.375 92.578h31.25c6.11 0 11.312-3.922 13.234-9.375H21.14c1.922 5.453 7.125 9.375 13.234 9.375zM20.312 78.516c0 .531.031 1.047.094 1.563h59.188c.062-.516.094-1.032.094-1.563V51.954H20.312zm9.828-13.609l9.375-9.375c.61-.61 1.61-.61 2.219 0l3.578 3.594 3.578-3.594c.61-.61 1.61-.61 2.219 0l3.578 3.594 3.578-3.594c.61-.61 1.61-.61 2.219 0l9.375 9.375c.61.61.61 1.61 0 2.219L60.484 76.5c-.313.297-.703.453-1.11.453s-.796-.156-1.109-.453l-3.578-3.594-3.578 3.594c-.313.297-.703.453-1.11.453s-.796-.156-1.109-.453l-3.578-3.594-3.578 3.594c-.313.297-.703.453-1.11.453s-.796-.156-1.109-.453l-9.375-9.375c-.61-.61-.61-1.61 0-2.219z"></path><path d="M60.484 67.125l-3.578 3.578 2.469 2.485 7.172-7.172-7.172-7.172-2.485 2.484 3.578 3.578c.625.61.625 1.61.016 2.219z"></path><path d="M42.84 66.016l7.172-7.172 7.172 7.172-7.172 7.172zm-2.996-50.375v-2.75c0-3.016-2.453-5.469-5.469-5.469s-5.469 2.453-5.469 5.469v2.75l5.47 2.734zm-6.25 4.078l-4.688-2.344V37.11h4.688zm21.875-8.391c0-2.156-1.75-3.906-3.906-3.906s-3.906 1.75-3.906 3.906v5.14h7.812zm7.812 9.375h7.813v16.406H63.28z"></path><path d="M71.094 16.922H75v14.719c0 .86.703 1.563 1.563 1.563s1.562-.704 1.562-1.563V9.766c0-.86-.703-1.563-1.562-1.563S75 8.907 75 9.766v4.031h-3.906V9.766a2.34 2.34 0 0 0-2.344-2.344h-3.125a2.34 2.34 0 0 0-2.344 2.344v9.375h7.813zm-31.25 20.187V17.375l-4.688 2.344v17.39zm7.812-19.078h7.813v19.078h-7.813zm-4.547 52.672l-3.578-3.578a1.556 1.556 0 0 1 0-2.203l3.578-3.578-2.484-2.5-7.172 7.172 7.172 7.171z"></path></g><g id="SvgjsG1029" class="text" transform="translate(389.1864067138672, 57.42820122070312) scale(1)" light-content="false" fill="#2b2b2b"><path d="M-230.46 -39L-230.46 0L-221.22 0L-221.22 -11.52C-221.22 -13 -221.34 -14.91 -221.58 -17.25C-221.82 -19.59 -222.08 -21.76 -222.36 -23.76L-222.54 -25.44L-222.3 -25.44L-219.18 -16.08L-214.38 -3.18L-208.86 -3.18L-204.06 -16.08L-200.82 -25.44L-200.58 -25.44L-200.76 -23.76C-201.04 -21.76 -201.3 -19.59 -201.54 -17.25C-201.78 -14.91 -201.9 -13 -201.9 -11.52L-201.9 0L-192.54 0L-192.54 -39L-203.58 -39L-209.22 -23.04C-209.5 -22.24 -209.88 -21 -210.36 -19.32L-211.26 -16.2L-211.5 -16.2L-212.4 -19.32C-212.88 -21 -213.26 -22.24 -213.54 -23.04L-219.42 -39Z M-176.97 -1.71C-174.23 -0.09 -171.06 0.72 -167.46 0.72C-163.86 0.72 -160.69 -0.09 -157.95 -1.71C-155.21 -3.33 -153.09 -5.68 -151.59 -8.76C-150.09 -11.84 -149.34 -15.48 -149.34 -19.68C-149.34 -23.88 -150.09 -27.48 -151.59 -30.48C-153.09 -33.48 -155.21 -35.77 -157.95 -37.35C-160.69 -38.93 -163.86 -39.72 -167.46 -39.72C-171.06 -39.72 -174.23 -38.94 -176.97 -37.38C-179.71 -35.82 -181.83 -33.53 -183.33 -30.51C-184.83 -27.49 -185.58 -23.88 -185.58 -19.68C-185.58 -15.48 -184.83 -11.84 -183.33 -8.76C-181.83 -5.68 -179.71 -3.33 -176.97 -1.71ZM-161.94 -11.25C-163.3 -9.19 -165.14 -8.16 -167.46 -8.16C-169.78 -8.16 -171.62 -9.19 -172.98 -11.25C-174.34 -13.31 -175.02 -16.12 -175.02 -19.68C-175.02 -23.2 -174.35 -25.94 -173.01 -27.9C-171.67 -29.86 -169.82 -30.84 -167.46 -30.84C-165.1 -30.84 -163.25 -29.86 -161.91 -27.9C-160.57 -25.94 -159.9 -23.2 -159.9 -19.68C-159.9 -16.12 -160.58 -13.31 -161.94 -11.25Z M-121.38 0L-109.86 0L-118.32 -15.12C-116.36 -16.2 -114.82 -17.68 -113.7 -19.56C-112.58 -21.44 -112.02 -23.72 -112.02 -26.4C-112.02 -30.92 -113.45 -34.15 -116.31 -36.09C-119.17 -38.03 -122.94 -39 -127.62 -39L-142.38 -39L-142.38 0L-132.06 0L-132.06 -13.08L-128.1 -13.08ZM-132.06 -21.24L-132.06 -30.84L-128.34 -30.84C-126.22 -30.84 -124.65 -30.51 -123.63 -29.85C-122.61 -29.19 -122.1 -28.04 -122.1 -26.4C-122.1 -24.72 -122.63 -23.44 -123.69 -22.56C-124.75 -21.68 -126.3 -21.24 -128.34 -21.24Z M-104.58 -39L-104.58 0L-94.74 0L-94.74 -11.28C-94.74 -14.04 -95.06 -17.94 -95.7 -22.98L-96.06 -26.16L-95.82 -26.16L-92.1 -17.46L-83.46 0L-72.9 0L-72.9 -39L-82.74 -39L-82.74 -27.72C-82.74 -24.92 -82.4 -20.76 -81.72 -15.24C-81.56 -14.08 -81.46 -13.28 -81.42 -12.84L-81.66 -12.84L-85.38 -21.6L-94.02 -39Z M-64.26 -39L-64.26 0L-53.94 0L-53.94 -39Z M-45.3 -39L-45.3 0L-35.46 0L-35.46 -11.28C-35.46 -14.04 -35.78 -17.94 -36.42 -22.98L-36.78 -26.16L-36.54 -26.16L-32.82 -17.46L-24.18 0L-13.62 0L-13.62 -39L-23.46 -39L-23.46 -27.72C-23.46 -24.92 -23.12 -20.76 -22.44 -15.24C-22.28 -14.08 -22.18 -13.28 -22.14 -12.84L-22.38 -12.84L-26.1 -21.6L-34.74 -39Z M2.97 -1.53C5.95 -0.03 9.3 0.72 13.02 0.72C15.66 0.72 18.16 0.27 20.52 -0.63C22.88 -1.53 24.78 -2.68 26.22 -4.08L26.22 -22.68L11.34 -22.68L11.34 -14.28L17.1 -14.28L17.1 -8.88C16.38 -8.4 15.38 -8.16 14.1 -8.16C10.66 -8.16 8.1 -9.13 6.42 -11.07C4.74 -13.01 3.9 -15.84 3.9 -19.56C3.9 -23.04 4.76 -25.79 6.48 -27.81C8.2 -29.83 10.42 -30.84 13.14 -30.84C14.58 -30.84 15.83 -30.6 16.89 -30.12C17.95 -29.64 19.02 -28.92 20.1 -27.96L25.5 -34.56C23.98 -36.08 22.15 -37.32 20.01 -38.28C17.87 -39.24 15.46 -39.72 12.78 -39.72C9.26 -39.72 6.02 -38.9 3.06 -37.26C0.1 -35.62 -2.26 -33.25 -4.02 -30.15C-5.78 -27.05 -6.66 -23.4 -6.66 -19.2C-6.66 -14.92 -5.8 -11.28 -4.08 -8.28C-2.36 -5.28 -0.01 -3.03 2.97 -1.53Z M52.71 -1.71C55.45 -0.09 58.62 0.72 62.22 0.72C65.82 0.72 68.99 -0.09 71.73 -1.71C74.47 -3.33 76.59 -5.68 78.09 -8.76C79.59 -11.84 80.34 -15.48 80.34 -19.68C80.34 -23.88 79.59 -27.48 78.09 -30.48C76.59 -33.48 74.47 -35.77 71.73 -37.35C68.99 -38.93 65.82 -39.72 62.22 -39.72C58.62 -39.72 55.45 -38.94 52.71 -37.38C49.97 -35.82 47.85 -33.53 46.35 -30.51C44.85 -27.49 44.1 -23.88 44.1 -19.68C44.1 -15.48 44.85 -11.84 46.35 -8.76C47.85 -5.68 49.97 -3.33 52.71 -1.71ZM67.74 -11.25C66.38 -9.19 64.54 -8.16 62.22 -8.16C59.9 -8.16 58.06 -9.19 56.7 -11.25C55.34 -13.31 54.66 -16.12 54.66 -19.68C54.66 -23.2 55.33 -25.94 56.67 -27.9C58.01 -29.86 59.86 -30.84 62.22 -30.84C64.58 -30.84 66.43 -29.86 67.77 -27.9C69.11 -25.94 69.78 -23.2 69.78 -19.68C69.78 -16.12 69.1 -13.31 67.74 -11.25Z M87.3 -39L87.3 0L97.62 0L97.62 -14.28L110.58 -14.28L110.58 -22.92L97.62 -22.92L97.62 -30.36L112.74 -30.36L112.74 -39Z M119.46 -39L119.46 0L129.78 0L129.78 -14.28L142.74 -14.28L142.74 -22.92L129.78 -22.92L129.78 -30.36L144.9 -30.36L144.9 -39Z M151.62 -39L151.62 0L161.94 0L161.94 -39Z M178.17 -1.53C180.99 -0.03 184.1 0.72 187.5 0.72C190.06 0.72 192.43 0.24 194.61 -0.72C196.79 -1.68 198.7 -3.12 200.34 -5.04L194.94 -11.52C192.86 -9.28 190.5 -8.16 187.86 -8.16C185.3 -8.16 183.26 -9.16 181.74 -11.16C180.22 -13.16 179.46 -15.96 179.46 -19.56C179.46 -21.84 179.85 -23.83 180.63 -25.53C181.41 -27.23 182.45 -28.54 183.75 -29.46C185.05 -30.38 186.46 -30.84 187.98 -30.84C189.22 -30.84 190.34 -30.6 191.34 -30.12C192.34 -29.64 193.38 -28.92 194.46 -27.96L199.86 -34.56C198.34 -36.08 196.54 -37.32 194.46 -38.28C192.38 -39.24 190.14 -39.72 187.74 -39.72C184.38 -39.72 181.27 -38.9 178.41 -37.26C175.55 -35.62 173.25 -33.25 171.51 -30.15C169.77 -27.05 168.9 -23.4 168.9 -19.2C168.9 -14.92 169.74 -11.28 171.42 -8.28C173.1 -5.28 175.35 -3.03 178.17 -1.53Z M205.74 -39L205.74 0L231.54 0L231.54 -8.64L216.06 -8.64L216.06 -15.6L228.78 -15.6L228.78 -24.24L216.06 -24.24L216.06 -30.36L230.94 -30.36L230.94 -39Z"></path></g><g id="SvgjsG1030" class="text" transform="translate(388.61639755859375, 101.41820045776367) scale(1)" light-content="false" fill="#2b2b2b"><path d="M-174.81 -19.65L-174.81 0L-162.9 0L-162.9 -2.58L-171.75 -2.58L-171.75 -8.97L-164.52 -8.97L-164.52 -11.55L-171.75 -11.55L-171.75 -17.07L-163.2 -17.07L-163.2 -19.65Z M-161.34 -14.67L-156.15 0L-152.64 0L-147.57 -14.67L-150.51 -14.67L-153.03 -6.75L-154.32 -2.37L-154.44 -2.37L-155.73 -6.75L-158.25 -14.67Z M-133.53 -6.54C-133.45 -7.02 -133.41 -7.54 -133.41 -8.1C-133.41 -10.22 -133.93 -11.9 -134.97 -13.15C-136.01 -14.4 -137.48 -15.03 -139.38 -15.03C-140.54 -15.03 -141.63 -14.71 -142.65 -14.08C-143.67 -13.45 -144.49 -12.55 -145.12 -11.38C-145.75 -10.21 -146.07 -8.86 -146.07 -7.32C-146.07 -5.76 -145.75 -4.4 -145.12 -3.24C-144.49 -2.08 -143.64 -1.19 -142.56 -0.57C-141.48 0.05 -140.27 0.36 -138.93 0.36C-137.19 0.36 -135.54 -0.16 -133.98 -1.2L-135.03 -3.12C-136.19 -2.38 -137.36 -2.01 -138.54 -2.01C-139.78 -2.01 -140.83 -2.4 -141.7 -3.16C-142.57 -3.94 -143.08 -5.06 -143.22 -6.54ZM-136.05 -8.64L-143.16 -8.64C-142.96 -9.96 -142.5 -10.96 -141.78 -11.64C-141.06 -12.32 -140.24 -12.66 -139.32 -12.66C-138.26 -12.66 -137.45 -12.31 -136.89 -11.61C-136.33 -10.91 -136.05 -9.92 -136.05 -8.64Z M-129.99 -14.67L-129.99 0L-126.96 0L-126.96 -9.15C-126.52 -10.25 -125.98 -11.05 -125.34 -11.56C-124.7 -12.07 -124.05 -12.33 -123.39 -12.33C-122.95 -12.33 -122.46 -12.25 -121.92 -12.09L-121.38 -14.73C-121.8 -14.93 -122.34 -15.03 -123 -15.03C-123.8 -15.03 -124.56 -14.76 -125.29 -14.23C-126.02 -13.71 -126.65 -12.97 -127.17 -12.03L-127.26 -12.03L-127.5 -14.67Z M-119.7 5.85C-119.14 6.05 -118.53 6.15 -117.87 6.15C-116.41 6.15 -115.24 5.71 -114.36 4.81C-113.48 3.92 -112.73 2.62 -112.11 0.9L-106.71 -14.67L-109.65 -14.67L-112.02 -7.08L-112.68 -4.8C-112.8 -4.28 -112.97 -3.66 -113.19 -2.94L-113.31 -2.94L-113.76 -4.35L-114.66 -7.08L-117.39 -14.67L-120.48 -14.67L-114.66 -0.09L-114.96 0.9C-115.58 2.76 -116.61 3.69 -118.05 3.69C-118.31 3.69 -118.67 3.62 -119.13 3.48Z M-103.56 -4.77C-103.56 -1.35 -102.08 0.36 -99.12 0.36C-98.28 0.36 -97.32 0.18 -96.24 -0.18L-96.78 -2.43C-97.38 -2.19 -97.91 -2.07 -98.37 -2.07C-99.13 -2.07 -99.68 -2.29 -100.02 -2.74C-100.36 -3.19 -100.53 -3.87 -100.53 -4.77L-100.53 -12.24L-96.69 -12.24L-96.69 -14.67L-100.53 -14.67L-100.53 -18.72L-103.05 -18.72L-103.41 -14.67L-105.69 -14.52L-105.69 -12.24L-103.56 -12.24Z M-93.51 -21.27L-93.51 0L-90.48 0L-90.48 -10.41C-89.76 -11.13 -89.14 -11.64 -88.62 -11.95C-88.1 -12.27 -87.51 -12.42 -86.85 -12.42C-85.97 -12.42 -85.33 -12.14 -84.94 -11.58C-84.55 -11.02 -84.36 -10.11 -84.36 -8.85L-84.36 0L-81.33 0L-81.33 -9.24C-81.33 -13.1 -82.83 -15.03 -85.83 -15.03C-86.75 -15.03 -87.58 -14.82 -88.33 -14.41C-89.08 -14.01 -89.84 -13.44 -90.6 -12.72L-90.48 -15.63L-90.48 -21.27Z M-76.95 -14.67L-76.95 0L-73.92 0L-73.92 -14.67ZM-76.75 -17.94C-76.41 -17.6 -75.96 -17.43 -75.42 -17.43C-74.88 -17.43 -74.44 -17.6 -74.09 -17.94C-73.73 -18.28 -73.56 -18.72 -73.56 -19.26C-73.56 -19.78 -73.73 -20.21 -74.09 -20.55C-74.44 -20.89 -74.88 -21.06 -75.42 -21.06C-75.96 -21.06 -76.41 -20.89 -76.75 -20.55C-77.1 -20.21 -77.28 -19.78 -77.28 -19.26C-77.28 -18.72 -77.1 -18.28 -76.75 -17.94Z M-69.3 -14.67L-69.3 0L-66.27 0L-66.27 -10.41C-65.55 -11.13 -64.93 -11.64 -64.41 -11.95C-63.89 -12.27 -63.3 -12.42 -62.64 -12.42C-61.76 -12.42 -61.12 -12.14 -60.73 -11.58C-60.34 -11.02 -60.15 -10.11 -60.15 -8.85L-60.15 0L-57.12 0L-57.12 -9.24C-57.12 -13.1 -58.62 -15.03 -61.62 -15.03C-62.54 -15.03 -63.39 -14.82 -64.15 -14.4C-64.93 -13.98 -65.7 -13.39 -66.48 -12.63L-66.57 -12.63L-66.81 -14.67Z M-52.05 5.6C-50.93 6.26 -49.46 6.6 -47.64 6.6C-46.12 6.6 -44.78 6.37 -43.62 5.91C-42.46 5.45 -41.57 4.83 -40.93 4.05C-40.3 3.27 -39.99 2.41 -39.99 1.47C-39.99 0.25 -40.43 -0.65 -41.29 -1.23C-42.16 -1.81 -43.48 -2.1 -45.24 -2.1L-47.97 -2.1C-48.85 -2.1 -49.48 -2.22 -49.86 -2.47C-50.24 -2.73 -50.43 -3.08 -50.43 -3.54C-50.43 -3.88 -50.36 -4.16 -50.22 -4.39C-50.08 -4.63 -49.88 -4.86 -49.62 -5.1C-48.96 -4.8 -48.27 -4.65 -47.55 -4.65C-45.97 -4.65 -44.66 -5.1 -43.62 -6C-42.58 -6.9 -42.06 -8.13 -42.06 -9.69C-42.06 -10.23 -42.15 -10.74 -42.33 -11.2C-42.51 -11.67 -42.75 -12.07 -43.05 -12.39L-40.23 -12.39L-40.23 -14.67L-45.42 -14.67C-46.08 -14.91 -46.79 -15.03 -47.55 -15.03C-48.57 -15.03 -49.51 -14.82 -50.39 -14.4C-51.25 -13.98 -51.94 -13.37 -52.45 -12.57C-52.96 -11.77 -53.22 -10.84 -53.22 -9.78C-53.22 -8.96 -53.04 -8.21 -52.66 -7.53C-52.29 -6.85 -51.84 -6.3 -51.3 -5.88L-51.3 -5.76C-51.76 -5.44 -52.14 -5.04 -52.45 -4.56C-52.77 -4.08 -52.92 -3.57 -52.92 -3.03C-52.92 -1.97 -52.48 -1.16 -51.6 -0.6L-51.6 -0.48C-52.28 -0.06 -52.8 0.43 -53.17 0.98C-53.54 1.53 -53.73 2.11 -53.73 2.73C-53.73 3.97 -53.17 4.93 -52.05 5.6ZM-45.55 -7.47C-46.08 -6.89 -46.75 -6.6 -47.55 -6.6C-48.35 -6.6 -49.01 -6.89 -49.54 -7.47C-50.08 -8.05 -50.34 -8.82 -50.34 -9.78C-50.34 -10.74 -50.08 -11.5 -49.54 -12.06C-49.01 -12.62 -48.35 -12.9 -47.55 -12.9C-46.75 -12.9 -46.09 -12.62 -45.55 -12.06C-45.03 -11.5 -44.76 -10.74 -44.76 -9.78C-44.76 -8.82 -45.03 -8.05 -45.55 -7.47ZM-44.98 4.23C-45.63 4.47 -46.37 4.59 -47.19 4.59C-48.43 4.59 -49.4 4.39 -50.1 3.97C-50.8 3.57 -51.15 3 -51.15 2.28C-51.15 1.48 -50.72 0.76 -49.86 0.12C-49.3 0.26 -48.65 0.33 -47.91 0.33L-45.66 0.33C-44.74 0.33 -44.05 0.45 -43.6 0.69C-43.15 0.93 -42.93 1.35 -42.93 1.95C-42.93 2.41 -43.11 2.85 -43.47 3.26C-43.83 3.66 -44.34 3.99 -44.98 4.23Z M-30.93 -0.79C-30.13 -0.02 -29.09 0.36 -27.81 0.36C-26.31 0.36 -24.75 -0.32 -23.13 -1.68L-23.04 -1.68L-22.8 0L-20.31 0L-20.31 -8.82C-20.31 -10.82 -20.75 -12.35 -21.63 -13.42C-22.51 -14.49 -23.84 -15.03 -25.62 -15.03C-27.56 -15.03 -29.53 -14.39 -31.53 -13.11L-30.39 -11.07C-28.81 -12.07 -27.4 -12.57 -26.16 -12.57C-24.32 -12.57 -23.38 -11.49 -23.34 -9.33C-26.4 -8.99 -28.63 -8.4 -30.03 -7.54C-31.43 -6.7 -32.13 -5.48 -32.13 -3.9C-32.13 -2.6 -31.73 -1.56 -30.93 -0.79ZM-25.14 -2.46C-25.68 -2.18 -26.26 -2.04 -26.88 -2.04C-27.58 -2.04 -28.14 -2.22 -28.56 -2.56C-28.98 -2.91 -29.19 -3.43 -29.19 -4.11C-29.19 -4.97 -28.75 -5.67 -27.85 -6.21C-26.96 -6.75 -25.46 -7.15 -23.34 -7.41L-23.34 -3.78C-24 -3.18 -24.6 -2.74 -25.14 -2.46Z M-11.19 -0.13C-10.49 0.2 -9.8 0.36 -9.12 0.36C-8 0.36 -6.96 0.04 -6 -0.6C-5.04 -1.24 -4.27 -2.16 -3.69 -3.36C-3.11 -4.56 -2.82 -5.97 -2.82 -7.59C-2.82 -9.87 -3.33 -11.68 -4.33 -13.02C-5.34 -14.36 -6.77 -15.03 -8.61 -15.03C-9.35 -15.03 -10.1 -14.85 -10.86 -14.5C-11.62 -14.16 -12.34 -13.69 -13.02 -13.11L-12.93 -15.63L-12.93 -21.27L-15.96 -21.27L-15.96 0L-13.56 0L-13.29 -1.53L-13.2 -1.53C-12.56 -0.93 -11.89 -0.46 -11.19 -0.13ZM-6.99 -3.58C-7.69 -2.64 -8.6 -2.16 -9.72 -2.16C-10.22 -2.16 -10.75 -2.27 -11.29 -2.49C-11.84 -2.71 -12.39 -3.05 -12.93 -3.51L-12.93 -10.71C-11.69 -11.91 -10.52 -12.51 -9.42 -12.51C-7.1 -12.51 -5.94 -10.85 -5.94 -7.53C-5.94 -5.85 -6.29 -4.54 -6.99 -3.58Z M3.27 -0.57C4.33 0.05 5.47 0.36 6.69 0.36C7.91 0.36 9.05 0.05 10.11 -0.57C11.17 -1.19 12.02 -2.08 12.65 -3.24C13.27 -4.4 13.59 -5.76 13.59 -7.32C13.59 -8.9 13.27 -10.27 12.65 -11.43C12.02 -12.59 11.18 -13.48 10.13 -14.1C9.07 -14.72 7.93 -15.03 6.69 -15.03C5.45 -15.03 4.31 -14.72 3.25 -14.1C2.21 -13.48 1.36 -12.59 0.73 -11.43C0.1 -10.27 -0.21 -8.9 -0.21 -7.32C-0.21 -5.76 0.1 -4.4 0.73 -3.24C1.36 -2.08 2.21 -1.19 3.27 -0.57ZM9.45 -3.55C8.77 -2.61 7.85 -2.13 6.69 -2.13C5.53 -2.13 4.61 -2.61 3.93 -3.55C3.25 -4.51 2.91 -5.76 2.91 -7.32C2.91 -8.88 3.25 -10.14 3.94 -11.1C4.64 -12.06 5.55 -12.54 6.69 -12.54C7.83 -12.54 8.74 -12.06 9.43 -11.1C10.13 -10.14 10.47 -8.88 10.47 -7.32C10.47 -5.76 10.13 -4.51 9.45 -3.55Z M17.01 -5.43C17.01 -1.57 18.51 0.36 21.51 0.36C22.47 0.36 23.33 0.14 24.08 -0.3C24.83 -0.74 25.56 -1.38 26.28 -2.22L26.37 -2.22L26.61 0L29.1 0L29.1 -14.67L26.07 -14.67L26.07 -4.47C25.43 -3.67 24.85 -3.1 24.33 -2.76C23.81 -2.42 23.21 -2.25 22.53 -2.25C21.65 -2.25 21.02 -2.53 20.63 -3.09C20.24 -3.65 20.04 -4.56 20.04 -5.82L20.04 -14.67L17.01 -14.67Z M34.2 -4.77C34.2 -1.35 35.68 0.36 38.64 0.36C39.48 0.36 40.44 0.18 41.52 -0.18L40.98 -2.43C40.38 -2.19 39.85 -2.07 39.39 -2.07C38.63 -2.07 38.08 -2.29 37.74 -2.74C37.4 -3.19 37.23 -3.87 37.23 -4.77L37.23 -12.24L41.07 -12.24L41.07 -14.67L37.23 -14.67L37.23 -18.72L34.71 -18.72L34.35 -14.67L32.07 -14.52L32.07 -12.24L34.2 -12.24Z M51.3 -0.21C52.28 0.17 53.26 0.36 54.24 0.36C55.4 0.36 56.4 0.16 57.24 -0.24C58.08 -0.64 58.71 -1.17 59.15 -1.84C59.58 -2.52 59.79 -3.27 59.79 -4.11C59.79 -4.97 59.58 -5.68 59.18 -6.24C58.77 -6.8 58.26 -7.24 57.68 -7.57C57.09 -7.9 56.35 -8.23 55.47 -8.55C54.67 -8.85 54.08 -9.08 53.72 -9.24C53.35 -9.4 53.02 -9.61 52.74 -9.88C52.46 -10.15 52.32 -10.49 52.32 -10.89C52.32 -11.43 52.52 -11.87 52.94 -12.21C53.35 -12.55 53.94 -12.72 54.72 -12.72C55.3 -12.72 55.85 -12.61 56.37 -12.39C56.89 -12.17 57.43 -11.85 57.99 -11.43L59.4 -13.32C57.96 -14.46 56.38 -15.03 54.66 -15.03C53.06 -15.03 51.79 -14.63 50.85 -13.83C49.91 -13.03 49.44 -12 49.44 -10.74C49.44 -9.64 49.82 -8.77 50.58 -8.14C51.34 -7.51 52.37 -6.96 53.67 -6.48C54.75 -6.08 55.56 -5.71 56.1 -5.35C56.64 -5 56.91 -4.53 56.91 -3.93C56.91 -3.35 56.69 -2.88 56.25 -2.5C55.81 -2.13 55.17 -1.95 54.33 -1.95C53.57 -1.95 52.86 -2.1 52.2 -2.38C51.54 -2.67 50.86 -3.09 50.16 -3.63L48.72 -1.68C49.46 -1.08 50.32 -0.59 51.3 -0.21Z M63.21 -4.77C63.21 -1.35 64.69 0.36 67.65 0.36C68.49 0.36 69.45 0.18 70.53 -0.18L69.99 -2.43C69.39 -2.19 68.86 -2.07 68.4 -2.07C67.64 -2.07 67.09 -2.29 66.75 -2.74C66.41 -3.19 66.24 -3.87 66.24 -4.77L66.24 -12.24L70.08 -12.24L70.08 -14.67L66.24 -14.67L66.24 -18.72L63.72 -18.72L63.36 -14.67L61.08 -14.52L61.08 -12.24L63.21 -12.24Z M72.99 -0.79C73.79 -0.02 74.83 0.36 76.11 0.36C77.61 0.36 79.17 -0.32 80.79 -1.68L80.88 -1.68L81.12 0L83.61 0L83.61 -8.82C83.61 -10.82 83.17 -12.35 82.29 -13.42C81.41 -14.49 80.08 -15.03 78.3 -15.03C76.36 -15.03 74.39 -14.39 72.39 -13.11L73.53 -11.07C75.11 -12.07 76.52 -12.57 77.76 -12.57C79.6 -12.57 80.54 -11.49 80.58 -9.33C77.52 -8.99 75.29 -8.4 73.89 -7.54C72.49 -6.7 71.79 -5.48 71.79 -3.9C71.79 -2.6 72.19 -1.56 72.99 -0.79ZM78.78 -2.46C78.24 -2.18 77.66 -2.04 77.04 -2.04C76.34 -2.04 75.78 -2.22 75.36 -2.56C74.94 -2.91 74.73 -3.43 74.73 -4.11C74.73 -4.97 75.17 -5.67 76.07 -6.21C76.96 -6.75 78.46 -7.15 80.58 -7.41L80.58 -3.78C79.92 -3.18 79.32 -2.74 78.78 -2.46Z M87.99 -4.77C87.99 -1.35 89.47 0.36 92.43 0.36C93.27 0.36 94.23 0.18 95.31 -0.18L94.77 -2.43C94.17 -2.19 93.64 -2.07 93.18 -2.07C92.42 -2.07 91.87 -2.29 91.53 -2.74C91.19 -3.19 91.02 -3.87 91.02 -4.77L91.02 -12.24L94.86 -12.24L94.86 -14.67L91.02 -14.67L91.02 -18.72L88.5 -18.72L88.14 -14.67L85.86 -14.52L85.86 -12.24L87.99 -12.24Z M98.04 -14.67L98.04 0L101.07 0L101.07 -14.67ZM98.24 -17.94C98.58 -17.6 99.03 -17.43 99.57 -17.43C100.11 -17.43 100.55 -17.6 100.9 -17.94C101.26 -18.28 101.43 -18.72 101.43 -19.26C101.43 -19.78 101.26 -20.21 100.9 -20.55C100.55 -20.89 100.11 -21.06 99.57 -21.06C99.03 -21.06 98.58 -20.89 98.24 -20.55C97.89 -20.21 97.71 -19.78 97.71 -19.26C97.71 -18.72 97.89 -18.28 98.24 -17.94Z M108.15 -0.57C109.21 0.05 110.35 0.36 111.57 0.36C112.79 0.36 113.93 0.05 114.99 -0.57C116.05 -1.19 116.9 -2.08 117.53 -3.24C118.15 -4.4 118.47 -5.76 118.47 -7.32C118.47 -8.9 118.15 -10.27 117.53 -11.43C116.9 -12.59 116.06 -13.48 115.01 -14.1C113.96 -14.72 112.81 -15.03 111.57 -15.03C110.33 -15.03 109.18 -14.72 108.14 -14.1C107.09 -13.48 106.24 -12.59 105.62 -11.43C104.99 -10.27 104.67 -8.9 104.67 -7.32C104.67 -5.76 104.99 -4.4 105.62 -3.24C106.24 -2.08 107.09 -1.19 108.15 -0.57ZM114.33 -3.55C113.65 -2.61 112.73 -2.13 111.57 -2.13C110.41 -2.13 109.49 -2.61 108.81 -3.55C108.13 -4.51 107.79 -5.76 107.79 -7.32C107.79 -8.88 108.14 -10.14 108.82 -11.1C109.51 -12.06 110.43 -12.54 111.57 -12.54C112.71 -12.54 113.63 -12.06 114.32 -11.1C115.01 -10.14 115.35 -8.88 115.35 -7.32C115.35 -5.76 115.01 -4.51 114.33 -3.55Z M122.07 -14.67L122.07 0L125.1 0L125.1 -10.41C125.82 -11.13 126.44 -11.64 126.96 -11.95C127.48 -12.27 128.07 -12.42 128.73 -12.42C129.61 -12.42 130.25 -12.14 130.64 -11.58C131.03 -11.02 131.22 -10.11 131.22 -8.85L131.22 0L134.25 0L134.25 -9.24C134.25 -13.1 132.75 -15.03 129.75 -15.03C128.83 -15.03 127.98 -14.82 127.21 -14.4C126.44 -13.98 125.67 -13.39 124.89 -12.63L124.8 -12.63L124.56 -14.67Z M150.21 -6.54C150.29 -7.02 150.33 -7.54 150.33 -8.1C150.33 -10.22 149.81 -11.9 148.77 -13.15C147.73 -14.4 146.26 -15.03 144.36 -15.03C143.2 -15.03 142.11 -14.71 141.09 -14.08C140.07 -13.45 139.25 -12.55 138.62 -11.38C137.98 -10.21 137.67 -8.86 137.67 -7.32C137.67 -5.76 137.98 -4.4 138.62 -3.24C139.25 -2.08 140.1 -1.19 141.18 -0.57C142.26 0.05 143.47 0.36 144.81 0.36C146.55 0.36 148.2 -0.16 149.76 -1.2L148.71 -3.12C147.55 -2.38 146.38 -2.01 145.2 -2.01C143.96 -2.01 142.91 -2.4 142.04 -3.16C141.17 -3.94 140.66 -5.06 140.52 -6.54ZM147.69 -8.64L140.58 -8.64C140.78 -9.96 141.24 -10.96 141.96 -11.64C142.68 -12.32 143.5 -12.66 144.42 -12.66C145.48 -12.66 146.29 -12.31 146.85 -11.61C147.41 -10.91 147.69 -9.92 147.69 -8.64Z M153.75 -14.67L153.75 0L156.78 0L156.78 -9.15C157.22 -10.25 157.76 -11.05 158.4 -11.56C159.04 -12.07 159.69 -12.33 160.35 -12.33C160.79 -12.33 161.28 -12.25 161.82 -12.09L162.36 -14.73C161.94 -14.93 161.4 -15.03 160.74 -15.03C159.94 -15.03 159.18 -14.76 158.45 -14.23C157.72 -13.71 157.09 -12.97 156.57 -12.03L156.48 -12.03L156.24 -14.67Z M164.04 5.85C164.6 6.05 165.21 6.15 165.87 6.15C167.33 6.15 168.5 5.71 169.38 4.81C170.26 3.92 171.01 2.62 171.63 0.9L177.03 -14.67L174.09 -14.67L171.72 -7.08L171.06 -4.8C170.94 -4.28 170.77 -3.66 170.55 -2.94L170.43 -2.94L169.98 -4.35L169.08 -7.08L166.35 -14.67L163.26 -14.67L169.08 -0.09L168.78 0.9C168.16 2.76 167.13 3.69 165.69 3.69C165.43 3.69 165.07 3.62 164.61 3.48Z"></path></g></g></svg>