<svg id="SvgjsSvg1152" width="100%" height="100%" xmlns="http://www.w3.org/2000/svg" version="1.1" xlink="http://www.w3.org/1999/xlink" xmlns:svgjs="http://svgjs.com/svgjs" preserveAspectRatio="xMidYMid meet" viewBox="0.00015311654715333134 -3.193652844402095e-7 146.85694885253906 146.99998474121094" overflow="visible"><defs id="SvgjsDefs1153"></defs><g id="SvgjsG1154" transform="scale(0.25080679536704936)" opacity="1"><g id="SvgjsG1155" class="dsyPQwFSu" transform="translate(-32.52567370188211, -32.241149823361326) scale(6.505907776563547)" light-content="false" non-strokable="false" fill="#6587c3"><path d="M40.217 93.043a1.957 1.957 0 1 1-3.913 0 1.957 1.957 0 0 1 3.913 0zm7.826 0a1.957 1.957 0 1 1-3.913 0 1.957 1.957 0 0 1 3.913 0zm7.827 0a1.957 1.957 0 1 1-3.913 0 1.957 1.957 0 0 1 3.913 0zm7.826 0a1.957 1.957 0 1 1-3.913 0 1.957 1.957 0 0 1 3.913 0zm7.826 0a1.957 1.957 0 1 1-3.913 0 1.957 1.957 0 0 1 3.913 0zm-54.782-2a1.957 1.957 0 1 1-3.914 0 1.957 1.957 0 0 1 3.913 0zm7.825 2a1.957 1.957 0 1 1-3.913 0 1.957 1.957 0 0 1 3.913 0zm7.826 0a1.957 1.957 0 1 1-3.913 0 1.957 1.957 0 0 1 3.913 0zm46.957 0a1.957 1.957 0 1 1-3.913 0 1.957 1.957 0 0 1 3.913 0zm7.826-2a1.957 1.957 0 1 1-3.913 0 1.957 1.957 0 0 1 3.913 0zM93 14.783a1.957 1.957 0 1 0-3.913 0 1.957 1.957 0 0 0 3.913 0zm2 7.826a1.957 1.957 0 1 0-3.913 0 1.957 1.957 0 0 0 3.913 0zm0 7.826a1.957 1.957 0 1 0-3.913 0 1.957 1.957 0 0 0 3.913 0zm0 7.825a1.957 1.957 0 1 0-3.913 0 1.957 1.957 0 0 0 3.913 0zm0 7.827a1.957 1.957 0 1 0-3.913 0 1.957 1.957 0 0 0 3.913 0zm0 7.826a1.957 1.957 0 1 0-3.913 0 1.957 1.957 0 0 0 3.913 0zm0 7.827a1.957 1.957 0 1 0-3.913 0 1.957 1.957 0 0 0 3.913 0zm0 7.825a1.957 1.957 0 1 0-3.913 0 1.957 1.957 0 0 0 3.913 0zm0 7.826a1.957 1.957 0 1 0-3.913 0 1.957 1.957 0 0 0 3.913 0zm-2 7.826a1.957 1.957 0 1 0-3.913 0 1.957 1.957 0 0 0 3.913 0zM59.783 6.957a1.957 1.957 0 1 1 3.913 0 1.957 1.957 0 0 1-3.913 0zm-7.826 0a1.957 1.957 0 1 1 3.913 0 1.957 1.957 0 0 1-3.913 0zm-7.827 0a1.957 1.957 0 1 1 3.913 0 1.957 1.957 0 0 1-3.913 0zm-7.826 0a1.957 1.957 0 1 1 3.913 0 1.957 1.957 0 0 1-3.913 0zm-7.826 0a1.957 1.957 0 1 1 3.913 0 1.957 1.957 0 0 1-3.913 0zm54.782 2a1.957 1.957 0 1 1 3.914 0 1.957 1.957 0 0 1-3.913 0zm-7.825-2a1.957 1.957 0 1 1 3.913 0 1.957 1.957 0 0 1-3.913 0zm-7.826 0a1.957 1.957 0 1 1 3.913 0 1.957 1.957 0 0 1-3.913 0zm-46.957 0a1.957 1.957 0 1 1 3.913 0 1.957 1.957 0 0 1-3.913 0zm-7.826 2a1.957 1.957 0 1 1 3.913 0 1.957 1.957 0 0 1-3.913 0zM7 85.217a1.957 1.957 0 1 0 3.913 0 1.957 1.957 0 0 0-3.913 0zm-2-7.826a1.957 1.957 0 1 0 3.913 0 1.957 1.957 0 0 0-3.913 0zm0-7.826a1.957 1.957 0 1 0 3.913 0 1.957 1.957 0 0 0-3.913 0zm0-7.825a1.957 1.957 0 1 0 3.913 0 1.957 1.957 0 0 0-3.913 0zm0-7.827a1.957 1.957 0 1 0 3.913 0 1.957 1.957 0 0 0-3.913 0zm0-7.826a1.957 1.957 0 1 0 3.913 0 1.957 1.957 0 0 0-3.913 0zm0-7.827a1.957 1.957 0 1 0 3.913 0 1.957 1.957 0 0 0-3.913 0zm0-7.825a1.957 1.957 0 1 0 3.913 0 1.957 1.957 0 0 0-3.913 0zm0-7.826a1.957 1.957 0 1 0 3.913 0 1.957 1.957 0 0 0-3.913 0zm2-7.826a1.957 1.957 0 1 0 3.913 0 1.957 1.957 0 0 0-3.913 0z" color="#000"></path></g><g id="SvgjsG1156" class="text" transform="translate(292.19472951788657, 282.304259499923) scale(1)" light-content="false" fill="#474747"><path d="M-184.01 -1.1C-184.01 -6.35 -182.47 -14.24 -179.4 -24.77C-178.18 -29.02 -177.08 -32.38 -176.09 -34.85C-176.09 -36.45 -176.81 -37.25 -178.25 -37.25C-181.99 -37.25 -186.79 -31.73 -192.65 -20.69L-193.08 -20.69C-192.34 -24.78 -191.98 -27.65 -191.98 -29.28C-191.98 -32.67 -192.97 -34.37 -194.95 -34.37C-198.41 -34.37 -202.68 -29.22 -207.77 -18.91L-208.25 -18.91C-208.12 -20 -208.06 -21.06 -208.06 -22.08C-208.06 -24.8 -208.42 -27.33 -209.16 -29.66C-209.61 -31.07 -210.34 -32.2 -211.34 -33.05C-212.35 -33.9 -213.7 -34.32 -215.4 -34.32C-217.1 -34.32 -218.61 -33.81 -219.94 -32.78C-221.26 -31.76 -221.93 -30.59 -221.93 -29.28C-221.93 -28.42 -221.59 -27.98 -220.92 -27.98C-220.25 -27.98 -219.86 -28.21 -219.77 -28.66C-219.99 -28.66 -220.1 -28.86 -220.1 -29.26C-220.1 -29.66 -219.98 -30.14 -219.72 -30.72C-218.92 -32.35 -217.54 -33.17 -215.59 -33.17C-214.34 -33.17 -213.34 -32.74 -212.57 -31.87C-211.8 -31.01 -211.32 -29.88 -211.13 -28.49C-210.94 -27.1 -210.84 -25.7 -210.84 -24.29C-210.84 -21.66 -211.48 -17.38 -212.76 -11.42C-213.14 -9.63 -213.62 -7.78 -214.18 -5.88C-214.74 -3.98 -215.14 -2.58 -215.4 -1.7C-215.66 -0.82 -215.86 -0.16 -216.02 0.29C-216.18 0.74 -216.28 1.01 -216.31 1.1C-216.31 1.81 -215.98 2.16 -215.3 2.16C-213.83 2.16 -212.14 -1.15 -210.22 -7.78C-208.62 -13.28 -206.23 -18.78 -203.06 -24.26C-199.9 -29.75 -197.58 -32.5 -196.1 -32.5C-195.37 -32.5 -195 -31.66 -195 -30C-195 -26.29 -197 -17.18 -201 -2.69C-201.03 -2.66 -201.05 -2.62 -201.05 -2.59C-201.05 -1.92 -200.71 -1.58 -200.04 -1.58C-198.89 -1.58 -197.56 -3.81 -196.06 -8.26C-194.94 -11.42 -193.19 -15.39 -190.82 -20.16C-189.48 -22.91 -187.92 -25.63 -186.14 -28.32C-184.37 -31.01 -182.63 -33.15 -180.94 -34.75C-180.62 -35.04 -180.32 -35.18 -180.05 -35.18C-179.78 -35.18 -179.7 -34.99 -179.83 -34.61C-184.73 -19.92 -187.18 -9.12 -187.18 -2.21C-187.18 3.94 -185.24 7.01 -181.37 7.01C-180.12 7.01 -179.02 6.3 -178.06 4.9C-177.64 4.26 -177.35 3.78 -177.19 3.48C-177.03 3.18 -176.91 2.92 -176.83 2.71C-176.75 2.5 -176.79 2.37 -176.95 2.3C-177.34 2.18 -177.62 2.27 -177.82 2.59C-178.68 4.48 -179.75 5.42 -181.03 5.42C-183.02 5.42 -184.01 3.25 -184.01 -1.1Z M-148.39 -22.46C-148.39 -17.31 -149.63 -12.09 -152.11 -6.79C-154.59 -1.5 -157.77 1.15 -161.64 1.15C-163.5 1.15 -165 0.4 -166.15 -1.1C-167.59 -3.06 -168.31 -5.86 -168.31 -9.5C-168.31 -10.69 -168.23 -11.98 -168.07 -13.39C-167.46 -18.93 -165.82 -23.9 -163.15 -28.32C-160.48 -32.74 -157.42 -34.94 -153.96 -34.94C-153.1 -34.94 -152.5 -34.88 -152.18 -34.75L-152.23 -35.33C-152.23 -35.74 -152.47 -36.15 -152.95 -36.55C-153.43 -36.95 -154.12 -37.15 -155.02 -37.15C-158.25 -37.15 -161.27 -35.65 -164.09 -32.64C-167.35 -29.15 -169.7 -24.51 -171.14 -18.72C-171.85 -15.81 -172.2 -13.1 -172.2 -10.61C-172.2 -8.11 -171.83 -5.84 -171.1 -3.79C-169.56 0.59 -166.63 2.78 -162.31 2.78C-159.66 2.78 -157.18 1.78 -154.87 -0.24C-151.51 -3.18 -149 -7.65 -147.34 -13.63C-146.34 -17.12 -145.85 -20.29 -145.85 -23.14C-145.85 -24.64 -145.99 -26.06 -146.28 -27.41C-146.95 -30.74 -148.36 -32.4 -150.5 -32.4C-151.11 -32.4 -151.62 -32.22 -152.04 -31.87C-152.26 -31.68 -152.38 -31.47 -152.38 -31.25C-149.72 -31.25 -148.39 -28.32 -148.39 -22.46Z M-111.48 -32.74C-111.48 -29.89 -112.68 -26.94 -115.08 -23.9C-117.77 -20.51 -120.81 -18.82 -124.2 -18.82C-124.17 -18.37 -124.05 -18.04 -123.84 -17.83C-123.63 -17.62 -123.35 -17.52 -123 -17.52C-122.26 -16.88 -121.36 -15.18 -120.29 -12.43C-119.22 -9.68 -118.2 -6.92 -117.24 -4.15C-116.28 -1.38 -115.02 1.14 -113.47 3.41C-111.92 5.68 -110.31 6.82 -108.65 6.82C-107.62 6.72 -106.76 6.19 -106.06 5.23C-105.86 4.94 -105.77 4.72 -105.77 4.56C-105.77 4.4 -105.88 4.32 -106.1 4.32C-106.52 4.93 -107.16 5.23 -108.02 5.23C-109.11 5.23 -110.22 4.05 -111.34 1.68C-112.46 -0.69 -113.42 -3.3 -114.22 -6.17C-115.02 -9.03 -115.94 -11.67 -116.98 -14.09C-118.02 -16.5 -119 -17.76 -119.93 -17.86L-118.1 -18.43C-114.87 -19.74 -112.3 -22.05 -110.38 -25.34C-109.03 -27.65 -108.36 -29.78 -108.36 -31.73C-108.36 -32.34 -108.42 -32.91 -108.55 -33.46C-109.1 -35.89 -110.78 -37.1 -113.59 -37.1C-114.97 -37.1 -116.34 -36.59 -117.7 -35.57C-119.06 -34.54 -120.3 -33.24 -121.42 -31.66C-122.54 -30.07 -123.85 -27.74 -125.35 -24.65C-126.86 -21.56 -128.31 -17.7 -129.72 -13.06L-130.06 -13.06C-128.49 -22.34 -126.58 -29.57 -124.34 -34.75C-124.34 -35.26 -124.6 -35.52 -125.11 -35.52C-126.97 -35.52 -129.22 -35.13 -131.88 -34.34C-134.54 -33.56 -137.01 -32.36 -139.3 -30.74C-141.58 -29.13 -142.73 -27.38 -142.73 -25.49C-142.73 -24.69 -142.51 -24.06 -142.08 -23.62C-141.65 -23.17 -141.14 -22.94 -140.57 -22.94C-139.99 -22.94 -139.64 -23.17 -139.51 -23.62C-140.15 -23.62 -140.47 -24.03 -140.47 -24.86C-140.47 -26.56 -139.66 -28.13 -138.02 -29.57C-135.18 -32.16 -131.46 -33.78 -126.89 -34.42C-128.58 -32.46 -130.13 -28.58 -131.52 -22.75C-132.91 -16.93 -133.61 -10.93 -133.61 -4.75C-133.61 -2.19 -133.13 -0.91 -132.17 -0.91C-131.72 -0.91 -131.5 -1.12 -131.5 -1.54C-131.5 -1.82 -131.18 -3.13 -130.54 -5.45C-129.9 -7.77 -128.99 -10.62 -127.82 -13.99C-126.66 -17.37 -125.37 -20.68 -123.96 -23.93C-122.55 -27.18 -120.93 -29.94 -119.09 -32.23C-117.25 -34.52 -115.5 -35.66 -113.83 -35.66C-112.26 -35.66 -111.48 -34.69 -111.48 -32.74Z M-82.15 -1.25C-82.15 -6.43 -80.62 -14.27 -77.54 -24.77C-76.33 -29.02 -75.22 -32.38 -74.23 -34.85C-74.23 -36.45 -74.95 -37.25 -76.39 -37.25C-80.46 -37.25 -86.2 -30.19 -93.62 -16.08L-94.06 -16.08C-93.74 -17.97 -93.58 -19.82 -93.58 -21.65C-93.58 -30.1 -95.9 -34.32 -100.54 -34.32C-102.49 -34.32 -104.13 -33.81 -105.46 -32.78C-106.78 -31.76 -107.45 -30.59 -107.45 -29.28C-107.45 -28.42 -107.11 -27.98 -106.44 -27.98C-105.77 -27.98 -105.4 -28.21 -105.34 -28.66C-105.56 -28.66 -105.67 -28.85 -105.67 -29.23C-105.67 -29.62 -105.54 -30.08 -105.29 -30.62C-104.49 -32.32 -103.16 -33.17 -101.3 -33.17C-99.45 -33.17 -98.15 -32.4 -97.42 -30.86C-96.68 -29.33 -96.31 -27.52 -96.31 -25.44C-96.31 -25.12 -96.33 -24.77 -96.36 -24.38C-96.62 -19.04 -97.7 -12.96 -99.62 -6.14C-100.71 -2.24 -101.45 0.14 -101.83 1.01L-101.83 1.1C-101.83 1.81 -101.5 2.16 -100.82 2.16C-99.9 2.16 -98.73 0.42 -97.32 -3.05C-95.91 -6.52 -93.64 -11.36 -90.5 -17.57C-88.81 -20.96 -86.94 -24.18 -84.91 -27.24C-82.88 -30.3 -80.97 -32.61 -79.18 -34.18C-78.98 -34.34 -78.78 -34.42 -78.58 -34.42C-78.37 -34.42 -78.3 -34.29 -78.36 -34.03L-79.13 -31.58C-83.26 -18.27 -85.32 -8.46 -85.32 -2.16C-85.32 3.95 -83.38 7.01 -79.51 7.01C-78.87 7.01 -78.26 6.81 -77.66 6.41C-77.07 6.01 -76.58 5.5 -76.18 4.87C-75.78 4.25 -75.5 3.78 -75.34 3.48C-75.18 3.18 -75.05 2.92 -74.95 2.71C-74.86 2.5 -74.9 2.37 -75.1 2.3C-75.48 2.18 -75.75 2.27 -75.91 2.59C-76.87 4.48 -77.96 5.42 -79.18 5.42C-81.16 5.42 -82.15 3.2 -82.15 -1.25Z M-45.96 -36.58C-47.62 -36.58 -49.62 -36.09 -51.94 -35.11C-54.26 -34.14 -56.35 -32.76 -58.22 -30.98C-60.1 -29.21 -61.03 -27.38 -61.03 -25.49C-61.03 -24.59 -60.8 -23.9 -60.34 -23.42C-59.87 -22.94 -59.34 -22.7 -58.75 -22.7C-58.16 -22.7 -57.83 -22.93 -57.77 -23.38C-58.44 -23.38 -58.78 -23.87 -58.78 -24.86C-58.78 -27.07 -57.76 -29.11 -55.73 -30.98C-53.7 -32.86 -51.43 -34.22 -48.94 -35.09C-50.47 -33.36 -51.77 -29.71 -52.82 -24.14C-53.24 -21.81 -53.67 -19.33 -54.12 -16.7C-54.57 -14.08 -55.1 -11.56 -55.7 -9.14C-56.31 -6.73 -57.03 -4.54 -57.86 -2.57C-58.7 -0.6 -59.79 0.97 -61.15 2.14C-62.51 3.3 -64.09 3.89 -65.88 3.89C-69.18 3.89 -71.27 2.46 -72.17 -0.38C-72.49 -1.41 -72.65 -2.42 -72.65 -3.41C-72.65 -5.26 -72.12 -7.12 -71.06 -8.98C-69.4 -11.82 -67.13 -13.25 -64.25 -13.25C-64.34 -13.82 -64.53 -14.26 -64.8 -14.54C-65.07 -14.83 -65.45 -14.98 -65.93 -14.98C-67.72 -14.98 -69.31 -14.27 -70.7 -12.86C-72.1 -11.46 -72.98 -9.91 -73.34 -8.23C-73.71 -6.55 -73.9 -5.21 -73.9 -4.2C-73.9 -3.19 -73.86 -2.35 -73.8 -1.68C-73.58 0.34 -72.7 2.05 -71.18 3.46C-69.66 4.86 -67.72 5.57 -65.35 5.57C-62.98 5.57 -60.94 4.98 -59.21 3.79C-57.48 2.61 -56.13 1.05 -55.15 -0.89C-54.18 -2.82 -53.32 -5.03 -52.58 -7.51C-51.85 -9.99 -51.31 -12.53 -50.98 -15.12C-50.64 -17.71 -50.28 -20.25 -49.9 -22.73C-49.51 -25.21 -49.16 -27.42 -48.84 -29.35C-48.52 -31.29 -48.03 -32.85 -47.38 -34.03C-46.72 -35.22 -45.93 -35.81 -45 -35.81L-45.05 -36C-45.14 -36.38 -45.45 -36.58 -45.96 -36.58Z M-20.71 -1.25C-20.71 -6.43 -19.18 -14.27 -16.1 -24.77C-14.89 -29.02 -13.78 -32.38 -12.79 -34.85C-12.79 -36.45 -13.51 -37.25 -14.95 -37.25C-19.02 -37.25 -24.76 -30.19 -32.18 -16.08L-32.62 -16.08C-32.3 -17.97 -32.14 -19.82 -32.14 -21.65C-32.14 -30.1 -34.46 -34.32 -39.1 -34.32C-41.05 -34.32 -42.69 -33.81 -44.02 -32.78C-45.34 -31.76 -46.01 -30.59 -46.01 -29.28C-46.01 -28.42 -45.67 -27.98 -45 -27.98C-44.33 -27.98 -43.96 -28.21 -43.9 -28.66C-44.12 -28.66 -44.23 -28.85 -44.23 -29.23C-44.23 -29.62 -44.1 -30.08 -43.85 -30.62C-43.05 -32.32 -41.72 -33.17 -39.86 -33.17C-38.01 -33.17 -36.71 -32.4 -35.98 -30.86C-35.24 -29.33 -34.87 -27.52 -34.87 -25.44C-34.87 -25.12 -34.89 -24.77 -34.92 -24.38C-35.18 -19.04 -36.26 -12.96 -38.18 -6.14C-39.27 -2.24 -40.01 0.14 -40.39 1.01L-40.39 1.1C-40.39 1.81 -40.06 2.16 -39.38 2.16C-38.46 2.16 -37.29 0.42 -35.88 -3.05C-34.47 -6.52 -32.2 -11.36 -29.06 -17.57C-27.37 -20.96 -25.5 -24.18 -23.47 -27.24C-21.44 -30.3 -19.53 -32.61 -17.74 -34.18C-17.54 -34.34 -17.34 -34.42 -17.14 -34.42C-16.93 -34.42 -16.86 -34.29 -16.92 -34.03L-17.69 -31.58C-21.82 -18.27 -23.88 -8.46 -23.88 -2.16C-23.88 3.95 -21.94 7.01 -18.07 7.01C-17.43 7.01 -16.82 6.81 -16.22 6.41C-15.63 6.01 -15.14 5.5 -14.74 4.87C-14.34 4.25 -14.06 3.78 -13.9 3.48C-13.74 3.18 -13.61 2.92 -13.51 2.71C-13.42 2.5 -13.46 2.37 -13.66 2.3C-14.04 2.18 -14.31 2.27 -14.47 2.59C-15.43 4.48 -16.52 5.42 -17.74 5.42C-19.72 5.42 -20.71 3.2 -20.71 -1.25Z M-1.56 -21.31C-3.1 -17.15 -3.86 -13.46 -3.86 -10.22C-3.86 -6.99 -3.24 -4.62 -1.99 -3.12C-1 -1.94 0.42 -1.34 2.28 -1.34C4.14 -1.34 6.14 -2.58 8.28 -5.04C10.42 -7.5 12.46 -10.56 14.38 -14.21L14.86 -14.21C14.66 -13.47 14.54 -12.94 14.5 -12.6C14.45 -12.26 14.41 -12.01 14.38 -11.83C14.34 -11.66 14.31 -11.5 14.28 -11.38C14.25 -11.25 14.06 -10.3 13.73 -8.54C13.39 -6.78 13.06 -5.15 12.72 -3.65C12.38 -2.14 11.75 0.02 10.82 2.83C9.9 5.65 8.92 7.73 7.9 9.07C6.87 10.42 5.49 11.66 3.74 12.82C2 13.97 0.02 14.54 -2.18 14.54C-3.3 14.54 -4.34 14.42 -5.3 14.16C-9.24 13.1 -11.21 10.26 -11.21 5.62C-11.21 4.43 -10.84 3.14 -10.1 1.73C-8.98 -0.45 -7.43 -1.54 -5.45 -1.54L-5.5 -1.82C-5.66 -2.46 -6.25 -2.78 -7.27 -2.78C-7.85 -2.78 -8.5 -2.64 -9.24 -2.35C-11.19 -1.49 -12.55 0.19 -13.32 2.69C-13.64 3.78 -13.8 5 -13.8 6.36C-13.8 7.72 -13.35 9.15 -12.46 10.66C-10.57 13.98 -7.13 15.65 -2.14 15.65C0.87 15.65 3.59 14.96 6.02 13.58C7.08 12.98 8.08 12.15 9.02 11.11C9.97 10.07 10.78 9.06 11.45 8.09C12.12 7.11 12.76 5.88 13.37 4.39C13.98 2.9 14.57 1.28 15.14 -0.48C15.72 -2.24 16.57 -6.13 17.69 -12.14C18.78 -18.54 19.9 -23.1 21.05 -25.82C21.05 -26.56 20.71 -26.93 20.04 -26.93C19.37 -26.93 18.8 -26.64 18.34 -26.06C17.87 -25.49 17.4 -24.61 16.92 -23.42C15.86 -20.61 13.99 -16.74 11.3 -11.81C9.93 -9.31 8.46 -7.22 6.89 -5.52C5.32 -3.82 3.93 -2.98 2.71 -2.98C0.95 -2.98 0.07 -4.9 0.07 -8.74C0.07 -12.58 0.78 -16.67 2.18 -21.02C3.46 -21.09 4.7 -21.26 5.88 -21.55C9.82 -22.54 12.9 -24.58 15.14 -27.65C16.62 -29.63 17.35 -31.46 17.35 -33.12C17.35 -33.5 17.3 -33.89 17.21 -34.27C16.82 -36.19 15.46 -37.15 13.13 -37.15C10.41 -37.15 7.78 -35.76 5.23 -32.98C2.69 -30.19 0.58 -26.72 -1.08 -22.56C-2.81 -22.98 -4.01 -23.75 -4.68 -24.89C-5.35 -26.02 -5.69 -27.09 -5.69 -28.08C-5.69 -29.71 -5.08 -31.18 -3.86 -32.5C-2.9 -33.52 -1.77 -34.03 -0.46 -34.03C-0.49 -34.38 -0.58 -34.65 -0.74 -34.82C-0.9 -35 -1.13 -35.09 -1.42 -35.09C-2.7 -35.09 -3.85 -34.69 -4.87 -33.89C-6.63 -32.48 -7.51 -30.45 -7.51 -27.79C-7.51 -26.16 -6.94 -24.74 -5.78 -23.52C-4.73 -22.46 -3.32 -21.73 -1.56 -21.31ZM13.13 -35.76C14.54 -35.66 15.34 -34.83 15.53 -33.26C15.53 -31.34 14.6 -29.34 12.74 -27.26C10.09 -24.26 6.71 -22.61 2.62 -22.32C3.93 -26.19 5.5 -29.4 7.34 -31.94C9.18 -34.49 11.11 -35.76 13.13 -35.76Z M63.34 -22.46C63.34 -17.31 62.1 -12.09 59.62 -6.79C57.14 -1.5 53.96 1.15 50.09 1.15C48.23 1.15 46.73 0.4 45.58 -1.1C44.14 -3.06 43.42 -5.86 43.42 -9.5C43.42 -10.69 43.5 -11.98 43.66 -13.39C44.26 -18.93 45.9 -23.9 48.58 -28.32C51.25 -32.74 54.31 -34.94 57.77 -34.94C58.63 -34.94 59.22 -34.88 59.54 -34.75L59.5 -35.33C59.5 -35.74 59.26 -36.15 58.78 -36.55C58.3 -36.95 57.61 -37.15 56.71 -37.15C53.48 -37.15 50.46 -35.65 47.64 -32.64C44.38 -29.15 42.02 -24.51 40.58 -18.72C39.88 -15.81 39.53 -13.1 39.53 -10.61C39.53 -8.11 39.9 -5.84 40.63 -3.79C42.17 0.59 45.1 2.78 49.42 2.78C52.07 2.78 54.55 1.78 56.86 -0.24C60.22 -3.18 62.73 -7.65 64.39 -13.63C65.38 -17.12 65.88 -20.29 65.88 -23.14C65.88 -24.64 65.74 -26.06 65.45 -27.41C64.78 -30.74 63.37 -32.4 61.22 -32.4C60.62 -32.4 60.1 -32.22 59.69 -31.87C59.46 -31.68 59.35 -31.47 59.35 -31.25C62.01 -31.25 63.34 -28.32 63.34 -22.46Z M77.5 -24.58C77.5 -26.3 78.09 -28.02 79.27 -29.71C81.74 -33.33 86.04 -35.14 92.18 -35.14C93.27 -35.14 94.07 -35.15 94.58 -35.18C93.59 -34.16 92.73 -32.66 91.99 -30.7C91.26 -28.73 90.49 -26.18 89.69 -23.04C87.86 -22.88 86.53 -22.8 85.68 -22.8C84.83 -22.8 84.33 -22.9 84.17 -23.09C83.78 -22.99 83.61 -22.62 83.64 -21.98C83.77 -21.18 84.29 -20.78 85.2 -20.78C86.11 -20.78 87.46 -20.93 89.26 -21.22C89.13 -20.7 88.78 -19.18 88.2 -16.63C87.62 -14.09 86.92 -11.33 86.09 -8.35C85.38 -5.92 84.76 -4.23 84.22 -3.29C83.67 -2.34 82.98 -1.18 82.13 0.22C81.28 1.61 80.34 2.57 79.3 3.1C78.26 3.62 77.27 3.89 76.34 3.89C75.42 3.89 74.66 3.81 74.09 3.65C71.66 2.88 70.44 0.77 70.44 -2.69C70.44 -5.06 71.14 -7.34 72.55 -9.55C74.34 -12.4 76.62 -13.82 79.37 -13.82C79.27 -14.21 79.09 -14.5 78.82 -14.69C78.54 -14.88 78.2 -14.98 77.78 -14.98C74.87 -14.98 72.52 -13.26 70.73 -9.84C69.54 -7.6 68.95 -5.36 68.95 -3.12C68.95 -1.94 69.13 -0.75 69.48 0.43C70.41 3.86 72.74 5.57 76.49 5.57C81.7 5.57 85.72 1.68 88.54 -6.1C89.66 -9.17 90.97 -14.42 92.47 -21.84C94.46 -22.16 95.72 -22.33 96.26 -22.34C96.81 -22.36 97.14 -22.56 97.27 -22.94C97.3 -23.3 97.18 -23.47 96.89 -23.47C95.8 -23.47 94.42 -23.39 92.76 -23.23C93.53 -27.01 94.26 -29.9 94.97 -31.9C95.67 -33.9 96.55 -35.12 97.61 -35.57C98.89 -35.82 100.04 -36.18 101.06 -36.62C102.76 -37.42 103.72 -38.27 103.94 -39.17L103.94 -39.46C103.94 -39.84 103.62 -40.03 102.98 -40.03C102.34 -40.03 101.35 -39.41 100.01 -38.16C99.5 -37.68 98.55 -37.25 97.18 -36.86C95.8 -36.48 94.14 -36.29 92.21 -36.29C90.27 -36.29 88.46 -36.13 86.76 -35.81C81.8 -34.82 78.38 -32.58 76.49 -29.09C75.66 -27.58 75.24 -26.3 75.24 -25.22C75.24 -24.15 75.37 -23.25 75.62 -22.51C76.17 -20.91 77.1 -20.11 78.41 -20.11C79.05 -20.11 79.42 -20.34 79.51 -20.78C78.17 -20.94 77.5 -22.21 77.5 -24.58ZM98.62 -14.74C98.62 -16.02 98.74 -17.25 99 -18.43C99.64 -21.28 100.68 -23.42 102.12 -24.86C102.12 -25.25 102.01 -25.55 101.78 -25.78C101.56 -26 101.29 -26.11 100.97 -26.11C99.75 -26.11 98.78 -25.11 98.04 -23.11C97.3 -21.11 96.94 -18.48 96.94 -15.22C96.94 -14.99 97.07 -14.82 97.34 -14.69C97.62 -14.56 97.9 -14.5 98.18 -14.5C98.47 -14.5 98.62 -14.58 98.62 -14.74Z M110.14 -24.58C110.14 -26.3 110.73 -28.02 111.91 -29.71C114.38 -33.33 118.68 -35.14 124.82 -35.14C125.91 -35.14 126.71 -35.15 127.22 -35.18C126.23 -34.16 125.37 -32.66 124.63 -30.7C123.9 -28.73 123.13 -26.18 122.33 -23.04C120.5 -22.88 119.17 -22.8 118.32 -22.8C117.47 -22.8 116.97 -22.9 116.81 -23.09C116.42 -22.99 116.25 -22.62 116.28 -21.98C116.41 -21.18 116.93 -20.78 117.84 -20.78C118.75 -20.78 120.1 -20.93 121.9 -21.22C121.77 -20.7 121.42 -19.18 120.84 -16.63C120.26 -14.09 119.56 -11.33 118.73 -8.35C118.02 -5.92 117.4 -4.23 116.86 -3.29C116.31 -2.34 115.62 -1.18 114.77 0.22C113.92 1.61 112.98 2.57 111.94 3.1C110.9 3.62 109.91 3.89 108.98 3.89C108.06 3.89 107.3 3.81 106.73 3.65C104.3 2.88 103.08 0.77 103.08 -2.69C103.08 -5.06 103.78 -7.34 105.19 -9.55C106.98 -12.4 109.26 -13.82 112.01 -13.82C111.91 -14.21 111.73 -14.5 111.46 -14.69C111.18 -14.88 110.84 -14.98 110.42 -14.98C107.51 -14.98 105.16 -13.26 103.37 -9.84C102.18 -7.6 101.59 -5.36 101.59 -3.12C101.59 -1.94 101.77 -0.75 102.12 0.43C103.05 3.86 105.38 5.57 109.13 5.57C114.34 5.57 118.36 1.68 121.18 -6.1C122.3 -9.17 123.61 -14.42 125.11 -21.84C127.1 -22.16 128.36 -22.33 128.9 -22.34C129.45 -22.36 129.78 -22.56 129.91 -22.94C129.94 -23.3 129.82 -23.47 129.53 -23.47C128.44 -23.47 127.06 -23.39 125.4 -23.23C126.17 -27.01 126.9 -29.9 127.61 -31.9C128.31 -33.9 129.19 -35.12 130.25 -35.57C131.53 -35.82 132.68 -36.18 133.7 -36.62C135.4 -37.42 136.36 -38.27 136.58 -39.17L136.58 -39.46C136.58 -39.84 136.26 -40.03 135.62 -40.03C134.98 -40.03 133.99 -39.41 132.65 -38.16C132.14 -37.68 131.19 -37.25 129.82 -36.86C128.44 -36.48 126.78 -36.29 124.85 -36.29C122.91 -36.29 121.1 -36.13 119.4 -35.81C114.44 -34.82 111.02 -32.58 109.13 -29.09C108.3 -27.58 107.88 -26.3 107.88 -25.22C107.88 -24.15 108.01 -23.25 108.26 -22.51C108.81 -20.91 109.74 -20.11 111.05 -20.11C111.69 -20.11 112.06 -20.34 112.15 -20.78C110.81 -20.94 110.14 -22.21 110.14 -24.58ZM131.26 -14.74C131.26 -16.02 131.38 -17.25 131.64 -18.43C132.28 -21.28 133.32 -23.42 134.76 -24.86C134.76 -25.25 134.65 -25.55 134.42 -25.78C134.2 -26 133.93 -26.11 133.61 -26.11C132.39 -26.11 131.42 -25.11 130.68 -23.11C129.94 -21.11 129.58 -18.48 129.58 -15.22C129.58 -14.99 129.71 -14.82 129.98 -14.69C130.26 -14.56 130.54 -14.5 130.82 -14.5C131.11 -14.5 131.26 -14.58 131.26 -14.74Z M162.65 -36.58C160.98 -36.58 158.99 -36.09 156.67 -35.11C154.35 -34.14 152.26 -32.76 150.38 -30.98C148.51 -29.21 147.58 -27.38 147.58 -25.49C147.58 -24.59 147.81 -23.9 148.27 -23.42C148.74 -22.94 149.26 -22.7 149.86 -22.7C150.45 -22.7 150.78 -22.93 150.84 -23.38C150.17 -23.38 149.83 -23.87 149.83 -24.86C149.83 -27.07 150.85 -29.11 152.88 -30.98C154.91 -32.86 157.18 -34.22 159.67 -35.09C158.14 -33.36 156.84 -29.71 155.78 -24.14C155.37 -21.81 154.94 -19.33 154.49 -16.7C154.04 -14.08 153.51 -11.56 152.9 -9.14C152.3 -6.73 151.58 -4.54 150.74 -2.57C149.91 -0.6 148.82 0.97 147.46 2.14C146.1 3.3 144.52 3.89 142.73 3.89C139.43 3.89 137.34 2.46 136.44 -0.38C136.12 -1.41 135.96 -2.42 135.96 -3.41C135.96 -5.26 136.49 -7.12 137.54 -8.98C139.21 -11.82 141.48 -13.25 144.36 -13.25C144.26 -13.82 144.08 -14.26 143.81 -14.54C143.54 -14.83 143.16 -14.98 142.68 -14.98C140.89 -14.98 139.3 -14.27 137.9 -12.86C136.51 -11.46 135.63 -9.91 135.26 -8.23C134.9 -6.55 134.71 -5.21 134.71 -4.2C134.71 -3.19 134.74 -2.35 134.81 -1.68C135.03 0.34 135.9 2.05 137.42 3.46C138.94 4.86 140.89 5.57 143.26 5.57C145.62 5.57 147.67 4.98 149.4 3.79C151.13 2.61 152.48 1.05 153.46 -0.89C154.43 -2.82 155.29 -5.03 156.02 -7.51C156.76 -9.99 157.3 -12.53 157.63 -15.12C157.97 -17.71 158.33 -20.25 158.71 -22.73C159.1 -25.21 159.45 -27.42 159.77 -29.35C160.09 -31.29 160.58 -32.85 161.23 -34.03C161.89 -35.22 162.68 -35.81 163.61 -35.81L163.56 -36C163.46 -36.38 163.16 -36.58 162.65 -36.58Z M190.34 -24.67C190.34 -25.95 190.47 -27.17 190.73 -28.32C191.34 -31.14 192.38 -33.28 193.85 -34.75C193.85 -35.14 193.74 -35.44 193.51 -35.66C193.29 -35.89 193.02 -36 192.7 -36C191.51 -36 190.55 -35 189.82 -33C189.08 -31 188.71 -28.37 188.71 -25.1C188.71 -24.88 188.85 -24.7 189.12 -24.58C189.39 -24.45 189.66 -24.4 189.94 -24.43C190.21 -24.46 190.34 -24.54 190.34 -24.67ZM187.46 -34.85C188.33 -34.85 188.89 -34.8 189.14 -34.7L189.14 -35.33C189.18 -35.71 189.05 -36.11 188.76 -36.53C188.47 -36.94 188.01 -37.15 187.37 -37.15C182.76 -37.12 178.56 -35.07 174.77 -31.01C170.98 -26.94 168.28 -21.84 166.68 -15.7C165.85 -12.59 165.43 -9.78 165.43 -7.27C165.43 -4.76 165.8 -2.51 166.54 -0.53C168.04 3.73 170.92 5.86 175.18 5.86C178.57 5.86 181.53 4.24 184.06 1.01C186.17 -1.71 187.22 -4.27 187.22 -6.67C187.22 -7.95 186.78 -8.59 185.88 -8.59C185.11 -8.59 184.63 -8.22 184.44 -7.49C184.82 -7.49 185.02 -7.12 185.02 -6.38C185.02 -4.72 184.34 -2.8 183 -0.62C181.02 2.61 178.62 4.22 175.8 4.22C173.72 4.22 172.1 3.27 170.95 1.37C169.8 -0.54 169.22 -3.06 169.22 -6.19C169.22 -7.82 169.38 -9.62 169.7 -11.57C170.63 -17.49 172.6 -22.67 175.61 -27.12C179.1 -32.27 183.05 -34.85 187.46 -34.85Z M214.49 -14.5C213.37 -14.5 212.6 -14.13 212.18 -13.39C212.47 -13.39 212.74 -13.34 213 -13.25C214.5 -12.7 215.26 -10.93 215.26 -7.92C215.26 -5.17 214.46 -2.54 212.86 -0.05C210.42 3.79 206.94 5.71 202.39 5.71C200.38 5.71 198.74 5.1 197.5 3.89C195.9 2.38 195.1 0.26 195.1 -2.5C195.1 -7.36 196.86 -11.78 200.38 -15.74C204.12 -20 208.76 -22.13 214.3 -22.13C214.14 -22.54 213.94 -22.86 213.7 -23.06C213.46 -23.27 213.16 -23.38 212.81 -23.38C208.81 -23.38 206.81 -24.7 206.81 -27.36C206.81 -28.77 207.51 -30.19 208.92 -31.63C210.9 -33.68 213.35 -34.7 216.26 -34.7C217.1 -34.7 217.64 -34.64 217.9 -34.51L217.9 -35.14C217.93 -35.58 217.8 -36.03 217.51 -36.48C217.22 -36.93 216.79 -37.15 216.22 -37.15C212.76 -37.15 209.9 -36.14 207.62 -34.1C205.35 -32.07 204.22 -29.92 204.22 -27.65C204.22 -25.38 205.5 -23.78 208.06 -22.85C205.24 -22.21 202.66 -21.06 200.33 -19.39C196.55 -16.64 193.93 -13.09 192.46 -8.74C191.78 -6.75 191.45 -4.85 191.45 -3.02C191.45 -1.2 191.85 0.51 192.65 2.11C194.38 5.57 197.61 7.3 202.34 7.3C204.55 7.3 206.62 6.85 208.54 5.95C212.02 4.32 214.63 1.49 216.36 -2.54C217.35 -4.88 217.85 -7.02 217.85 -8.98C217.85 -9.81 217.75 -10.61 217.56 -11.38C217.08 -13.46 216.06 -14.5 214.49 -14.5ZM219.58 -26.3C219.58 -27.58 219.7 -28.82 219.96 -30C220.57 -32.82 221.61 -34.96 223.08 -36.43C223.08 -36.78 222.97 -37.08 222.74 -37.32C222.52 -37.56 222.25 -37.68 221.93 -37.68C220.71 -37.68 219.74 -36.68 219 -34.68C218.26 -32.68 217.9 -30.05 217.9 -26.78C217.9 -26.56 218.03 -26.38 218.3 -26.26C218.58 -26.13 218.86 -26.06 219.14 -26.06C219.43 -26.06 219.58 -26.14 219.58 -26.3Z"></path></g><g id="SvgjsG1157" class="text" transform="translate(292.11474294562095, 337.61426056803816) scale(1)" light-content="false" fill="#474747"><path d="M-219.98 -1.63L-221.85 -1.25L-221.85 0L-208.39 0L-207.83 -3.79L-209.42 -4.13L-210.71 -1.75L-217 -1.49L-217 -8.66L-213.14 -8.59L-212.68 -6.79L-211.15 -6.79L-211.15 -12.07L-212.68 -12.07L-213.14 -10.27L-217 -10.15L-217 -16.73L-211.31 -16.54L-210.57 -14.62L-208.89 -14.62L-209.23 -18.19L-221.8 -18.19L-221.8 -16.75L-219.98 -16.54Z M-203.08 -11.57L-201.92 -11.33L-196.96 0.19L-194.72 0.19L-190.12 -11.26L-188.82 -11.57L-188.82 -13.1L-193.96 -13.1L-193.96 -11.57L-192.47 -11.3L-194.51 -5.26L-195.37 -2.38L-196.31 -5.33L-198.64 -11.28L-197.34 -11.57L-197.34 -13.1L-203.08 -13.1Z M-173.3 -12.14C-174.15 -13.06 -175.35 -13.51 -176.89 -13.51C-178.2 -13.51 -179.37 -13.21 -180.39 -12.6C-181.41 -11.99 -182.21 -11.15 -182.79 -10.07C-183.37 -8.99 -183.65 -7.77 -183.65 -6.41C-183.65 -4.34 -183.12 -2.71 -182.05 -1.51C-180.97 -0.31 -179.46 0.3 -177.51 0.31C-176.55 0.31 -175.58 0.18 -174.61 -0.08C-173.63 -0.35 -172.89 -0.7 -172.37 -1.15L-172.88 -2.3C-173.29 -2.1 -173.84 -1.92 -174.51 -1.79C-175.18 -1.65 -175.81 -1.58 -176.41 -1.58C-177.75 -1.58 -178.79 -2 -179.51 -2.83C-180.24 -3.66 -180.62 -4.82 -180.65 -6.31L-172.18 -6.31C-172.07 -6.94 -172.01 -7.6 -172.01 -8.3C-172.01 -9.95 -172.44 -11.23 -173.3 -12.14ZM-179.61 -11.02C-179.04 -11.74 -178.32 -12.1 -177.44 -12.1C-176.64 -12.1 -176.08 -11.79 -175.76 -11.18C-175.25 -10.7 -174.99 -9.87 -174.99 -8.69C-174.99 -8.34 -175 -8.07 -175.01 -7.9L-180.63 -7.9C-180.52 -9.26 -180.18 -10.3 -179.61 -11.02Z M-163.85 -1.49L-165.58 -1.22L-165.58 0L-157.78 0L-157.78 -1.22L-160.87 -1.54L-160.87 -10.2C-160.22 -10.63 -159.39 -10.85 -158.4 -10.85C-157.6 -10.85 -156.91 -10.7 -156.34 -10.42L-156.34 -13.3C-156.51 -13.36 -156.9 -13.39 -157.51 -13.39C-158.18 -13.39 -158.92 -13.16 -159.71 -12.68C-160.5 -12.21 -161.02 -11.71 -161.28 -11.18L-161.28 -13.18L-161.95 -13.39L-165.5 -12.34L-165.5 -11.33L-163.85 -10.34Z M-148.84 3.77C-149.27 3.78 -149.68 3.74 -150.07 3.62L-150.07 5.98C-149.99 6.02 -149.81 6.06 -149.55 6.1C-149.29 6.13 -149.03 6.14 -148.79 6.14C-148.11 6.14 -147.51 5.94 -147.02 5.54C-146.3 5.24 -145.67 4.69 -145.12 3.89C-144.58 3.09 -144.02 1.97 -143.44 0.53C-143.12 -0.27 -142.53 -1.82 -141.67 -4.13C-140.8 -6.43 -139.94 -8.84 -139.07 -11.35L-137.85 -11.57L-137.85 -13.1L-143.23 -13.1L-143.23 -11.57L-141.47 -11.33L-143.66 -4.03L-144.23 -2.09L-144.81 -4.01L-147.38 -11.3L-145.82 -11.57L-145.82 -13.1L-151.77 -13.1L-151.77 -11.57L-150.62 -11.3L-145.96 -0.02L-145.39 -0.02C-145.77 1.32 -146.27 2.29 -146.87 2.88C-147.48 3.47 -148.14 3.77 -148.84 3.77Z M-128.36 -13.1L-128.36 -16.25L-129.8 -16.25C-130.22 -14.82 -130.55 -13.9 -130.79 -13.49C-130.98 -13.18 -131.2 -12.98 -131.45 -12.88C-131.7 -12.77 -132.2 -12.62 -132.95 -12.43L-132.95 -11.4L-131.17 -11.4L-131.17 -3.41C-131.17 -2.13 -130.94 -1.19 -130.48 -0.6C-130.01 -0.01 -129.27 0.29 -128.24 0.29C-127.52 0.29 -126.77 0.17 -125.98 -0.06C-125.18 -0.29 -124.59 -0.61 -124.19 -1.01L-124.67 -2.16C-124.86 -2.03 -125.2 -1.91 -125.69 -1.8C-126.18 -1.69 -126.59 -1.63 -126.92 -1.63C-127.36 -1.63 -127.66 -1.77 -127.85 -2.05C-128.03 -2.33 -128.15 -2.76 -128.21 -3.34C-128.26 -3.91 -128.29 -4.82 -128.29 -6.05L-128.29 -11.4L-124.43 -11.4L-124.43 -13.1Z M-116.55 -1.49L-118.28 -1.22L-118.28 0L-112.11 0L-112.11 -1.22L-113.6 -1.49L-113.6 -10.56C-112.85 -11.1 -111.93 -11.38 -110.84 -11.38C-110.07 -11.38 -109.5 -11.19 -109.13 -10.81C-108.77 -10.44 -108.53 -9.91 -108.44 -9.23C-108.34 -8.55 -108.29 -7.58 -108.29 -6.34L-108.29 -1.49L-110.17 -1.22L-110.17 0L-103.66 0L-103.66 -1.22L-105.34 -1.49L-105.34 -7.2C-105.33 -8.67 -105.42 -9.85 -105.63 -10.73C-105.84 -11.61 -106.23 -12.27 -106.79 -12.72C-107.36 -13.17 -108.18 -13.39 -109.25 -13.39C-109.97 -13.39 -110.74 -13.24 -111.56 -12.95C-112.37 -12.65 -113.1 -12.23 -113.74 -11.69L-113.62 -13.44L-113.6 -18.82L-114.2 -19.06L-118.42 -18.55L-118.42 -17.28L-116.55 -16.78Z M-93.16 -19.19C-93.47 -19.5 -93.92 -19.66 -94.51 -19.66C-95.06 -19.66 -95.55 -19.46 -96 -19.06C-96.45 -18.66 -96.67 -18.18 -96.67 -17.62C-96.67 -17.1 -96.49 -16.69 -96.13 -16.37C-95.77 -16.05 -95.34 -15.89 -94.85 -15.89C-94.27 -15.89 -93.77 -16.08 -93.34 -16.46C-92.9 -16.85 -92.69 -17.34 -92.69 -17.93C-92.69 -18.46 -92.84 -18.88 -93.16 -19.19ZM-92.95 -13.15L-93.65 -13.39L-97.42 -12.26L-97.42 -11.4L-95.83 -10.25L-95.83 -1.49L-97.68 -1.22L-97.68 0L-91.13 0L-91.13 -1.22L-92.95 -1.49Z M-83.56 -1.46L-85.1 -1.22L-85.1 0L-78.95 0L-78.95 -1.22L-80.59 -1.49L-80.59 -10.34C-80.15 -10.66 -79.67 -10.9 -79.13 -11.06C-78.6 -11.22 -78.12 -11.3 -77.71 -11.3C-77.03 -11.3 -76.52 -11.18 -76.17 -10.92C-75.82 -10.66 -75.58 -10.27 -75.45 -9.73C-75.32 -9.2 -75.26 -8.46 -75.26 -7.51L-75.26 -1.49L-77.01 -1.22L-77.01 0L-70.53 0L-70.53 -1.22L-72.31 -1.46L-72.31 -7.97C-72.31 -9.86 -72.58 -11.23 -73.13 -12.1C-73.69 -12.96 -74.65 -13.39 -76.03 -13.39C-76.84 -13.39 -77.72 -13.21 -78.65 -12.84C-79.59 -12.47 -80.36 -12.02 -80.97 -11.47L-80.97 -13.18L-81.62 -13.39L-85.19 -12.34L-85.19 -11.33L-83.56 -10.34Z M-55.02 -12.58C-55.92 -13.23 -57.11 -13.56 -58.6 -13.56C-59.64 -13.56 -60.6 -13.38 -61.48 -13.03C-62.36 -12.68 -63.07 -12.15 -63.61 -11.45C-64.16 -10.74 -64.43 -9.87 -64.43 -8.83C-64.43 -7.22 -63.76 -6.02 -62.41 -5.26C-62.83 -4.89 -63.18 -4.43 -63.47 -3.88C-63.76 -3.32 -63.9 -2.88 -63.9 -2.54C-63.9 -2.18 -63.88 -1.88 -63.84 -1.64C-63.8 -1.41 -63.68 -1.19 -63.49 -0.97C-63.3 -0.76 -63 -0.58 -62.58 -0.43C-63.12 -0.11 -63.59 0.33 -63.98 0.9C-64.38 1.47 -64.57 2.08 -64.57 2.74C-64.57 3.97 -64.03 4.86 -62.94 5.4C-61.85 5.94 -60.47 6.22 -58.79 6.22C-57.48 6.22 -56.31 6.03 -55.3 5.66C-54.28 5.3 -53.48 4.76 -52.91 4.07C-52.33 3.37 -52.04 2.54 -52.04 1.58C-52.04 0.4 -52.4 -0.52 -53.1 -1.18C-53.8 -1.83 -55.12 -2.16 -57.04 -2.16C-58.46 -2.16 -59.44 -2.18 -59.96 -2.21C-60.51 -2.22 -60.9 -2.34 -61.15 -2.57C-61.4 -2.79 -61.52 -3.13 -61.52 -3.58L-61.52 -4.03C-61.52 -4.3 -61.48 -4.57 -61.38 -4.82C-60.66 -4.6 -59.88 -4.49 -59.05 -4.49C-58.03 -4.49 -57.1 -4.67 -56.27 -5.03C-55.44 -5.39 -54.77 -5.93 -54.28 -6.65C-53.78 -7.37 -53.53 -8.23 -53.53 -9.24C-53.53 -9.99 -53.67 -10.64 -53.94 -11.18L-51.61 -11.18L-51.61 -13.34L-52.88 -13.34C-53.99 -13.34 -54.7 -13.09 -55.02 -12.58ZM-60.85 -11.52C-60.4 -11.97 -59.8 -12.19 -59.05 -12.19C-57.26 -12.19 -56.36 -11.13 -56.36 -9C-56.36 -8.01 -56.55 -7.26 -56.92 -6.74C-57.28 -6.23 -57.89 -5.98 -58.74 -5.98C-59.7 -5.98 -60.4 -6.3 -60.85 -6.94C-61.3 -7.58 -61.52 -8.42 -61.52 -9.46C-61.52 -10.38 -61.3 -11.07 -60.85 -11.52ZM-61.88 1.85C-61.88 1.05 -61.7 0.38 -61.33 -0.14C-60.87 -0.08 -60.22 -0.05 -59.39 -0.05L-57.71 -0.02C-56.88 -0.02 -56.24 0.06 -55.79 0.22C-55.34 0.38 -55.03 0.62 -54.85 0.96C-54.68 1.3 -54.59 1.74 -54.59 2.3C-54.59 3.14 -54.9 3.74 -55.54 4.13C-56.17 4.51 -57.09 4.7 -58.31 4.7C-59.35 4.7 -60.2 4.47 -60.88 4C-61.55 3.52 -61.88 2.81 -61.88 1.85Z M-27.46 -12.36C-28.3 -13.05 -29.5 -13.39 -31.06 -13.39C-31.9 -13.39 -32.84 -13.27 -33.85 -13.02C-34.87 -12.77 -35.65 -12.42 -36.19 -11.98L-35.64 -10.66C-35.14 -10.93 -34.56 -11.15 -33.89 -11.33C-33.22 -11.5 -32.62 -11.59 -32.09 -11.59C-31.11 -11.59 -30.38 -11.38 -29.88 -10.94C-29.38 -10.51 -29.14 -9.75 -29.14 -8.66L-29.14 -7.94C-30.32 -7.94 -31.5 -7.79 -32.66 -7.48C-33.83 -7.16 -34.81 -6.66 -35.59 -5.98C-36.38 -5.29 -36.77 -4.42 -36.77 -3.36C-36.77 -2.66 -36.59 -2.02 -36.24 -1.46C-35.89 -0.9 -35.39 -0.47 -34.75 -0.16C-34.11 0.16 -33.38 0.31 -32.57 0.31C-30.97 0.31 -29.73 -0.18 -28.85 -1.18C-28.83 -0.65 -28.7 -0.27 -28.44 -0.04C-28.18 0.2 -27.77 0.31 -27.19 0.31C-26.74 0.31 -26.29 0.26 -25.82 0.16C-25.36 0.05 -24.98 -0.09 -24.7 -0.26L-24.7 -1.22L-26.18 -1.22L-26.18 -8.9C-26.18 -10.52 -26.61 -11.67 -27.46 -12.36ZM-32.36 -5.86C-31.41 -6.29 -30.34 -6.5 -29.14 -6.5L-29.16 -2.28C-29.4 -2.06 -29.72 -1.86 -30.13 -1.7C-30.54 -1.54 -30.94 -1.46 -31.32 -1.46C-32.97 -1.46 -33.79 -2.24 -33.79 -3.79C-33.79 -4.74 -33.32 -5.42 -32.36 -5.86Z M-19.79 -17.33L-17.99 -16.82L-17.99 -0.6C-17.72 -0.38 -17.08 -0.16 -16.07 0.04C-15.07 0.24 -14.05 0.34 -13.03 0.34C-11.71 0.34 -10.53 0 -9.49 -0.66C-8.44 -1.32 -7.62 -2.22 -7.03 -3.36C-6.43 -4.5 -6.14 -5.74 -6.14 -7.08C-6.14 -8.5 -6.37 -9.7 -6.83 -10.66C-7.3 -11.62 -7.93 -12.33 -8.74 -12.8C-9.55 -13.28 -10.47 -13.51 -11.49 -13.51C-12.23 -13.51 -12.88 -13.4 -13.45 -13.16C-14.01 -12.93 -14.55 -12.63 -15.04 -12.26L-15.04 -18.86L-15.59 -19.06L-19.79 -18.58ZM-14.2 -1.32C-14.62 -1.48 -14.89 -1.72 -15.02 -2.04L-15.02 -10.92C-14.76 -11.14 -14.43 -11.33 -14.02 -11.48C-13.61 -11.64 -13.16 -11.71 -12.67 -11.71C-12.01 -11.71 -11.41 -11.53 -10.87 -11.16C-10.32 -10.79 -9.89 -10.25 -9.56 -9.53C-9.23 -8.81 -9.07 -7.94 -9.07 -6.94C-9.07 -5.74 -9.22 -4.69 -9.53 -3.8C-9.85 -2.92 -10.27 -2.24 -10.82 -1.78C-11.36 -1.31 -11.99 -1.08 -12.69 -1.08C-13.28 -1.08 -13.79 -1.16 -14.2 -1.32Z M11.24 -11.7C10.2 -12.91 8.69 -13.51 6.71 -13.51C5.48 -13.51 4.36 -13.23 3.36 -12.67C2.36 -12.11 1.56 -11.31 0.97 -10.27C0.38 -9.23 0.08 -8.01 0.08 -6.6C0.08 -4.55 0.61 -2.89 1.67 -1.62C2.72 -0.35 4.28 0.29 6.35 0.29C7.58 0.29 8.68 -0.01 9.66 -0.61C10.64 -1.21 11.4 -2.05 11.96 -3.13C12.52 -4.21 12.8 -5.46 12.8 -6.86C12.8 -8.88 12.28 -10.49 11.24 -11.7ZM3.23 -6.94C3.23 -10.36 4.31 -12.07 6.47 -12.07C7.57 -12.07 8.38 -11.57 8.9 -10.57C9.42 -9.57 9.68 -8.26 9.68 -6.65C9.68 -4.89 9.44 -3.54 8.95 -2.59C8.46 -1.65 7.64 -1.18 6.47 -1.2C5.4 -1.22 4.59 -1.78 4.04 -2.9C3.5 -4.02 3.23 -5.37 3.23 -6.94Z M18.98 -11.5L20.15 -10.97L20.15 -5.11C20.17 -3.88 20.27 -2.89 20.47 -2.14C20.66 -1.38 21.05 -0.8 21.63 -0.37C22.21 0.05 23.08 0.26 24.23 0.26C24.92 0.26 25.64 0.1 26.39 -0.22C27.15 -0.54 27.8 -0.97 28.36 -1.51L28.36 -0.72C28.36 -0.35 28.49 -0.08 28.73 0.11C28.98 0.29 29.32 0.38 29.75 0.38C30.15 0.38 30.63 0.33 31.17 0.22C31.71 0.1 32.11 -0.02 32.35 -0.17L32.35 -1.22L30.95 -1.22L30.95 -13.2L30.52 -13.39L26.61 -12.58L26.61 -11.38L28.07 -10.85L28.07 -2.64C27.82 -2.4 27.41 -2.17 26.86 -1.94C26.31 -1.72 25.78 -1.61 25.27 -1.61C24.39 -1.61 23.79 -1.88 23.48 -2.41C23.17 -2.95 23.01 -3.84 23.01 -5.09L23.01 -13.18L22.53 -13.39L18.98 -12.6Z M42.84 -13.1L42.84 -16.25L41.4 -16.25C40.98 -14.82 40.66 -13.9 40.42 -13.49C40.22 -13.18 40 -12.98 39.76 -12.88C39.51 -12.77 39.01 -12.62 38.26 -12.43L38.26 -11.4L40.03 -11.4L40.03 -3.41C40.03 -2.13 40.26 -1.19 40.73 -0.6C41.19 -0.01 41.94 0.29 42.96 0.29C43.68 0.29 44.44 0.17 45.23 -0.06C46.02 -0.29 46.62 -0.61 47.02 -1.01L46.54 -2.16C46.34 -2.03 46 -1.91 45.52 -1.8C45.03 -1.69 44.62 -1.63 44.28 -1.63C43.85 -1.63 43.54 -1.77 43.36 -2.05C43.17 -2.33 43.05 -2.76 43 -3.34C42.94 -3.91 42.91 -4.82 42.91 -6.05L42.91 -11.4L46.78 -11.4L46.78 -13.1Z M64.16 -3.58L62.82 -3.58L62.82 -0.74C63.4 -0.42 64.07 -0.17 64.85 0.01C65.62 0.2 66.38 0.29 67.12 0.29C68.73 0.29 70.06 -0.06 71.1 -0.76C72.14 -1.45 72.66 -2.47 72.66 -3.82C72.66 -4.5 72.49 -5.08 72.16 -5.56C71.82 -6.03 71.41 -6.42 70.92 -6.72C70.43 -7.02 69.77 -7.37 68.94 -7.75C68.04 -8.18 67.42 -8.5 67.06 -8.69C66.7 -8.88 66.38 -9.13 66.1 -9.44C65.82 -9.76 65.68 -10.12 65.68 -10.54C65.68 -11.1 65.89 -11.52 66.31 -11.8C66.74 -12.08 67.29 -12.22 67.98 -12.22C68.7 -12.22 69.34 -11.92 69.9 -11.33L70.45 -9.96L71.82 -9.96L71.82 -12.74C71.39 -12.95 70.81 -13.13 70.09 -13.28C69.37 -13.44 68.66 -13.51 67.96 -13.51C67.12 -13.51 66.31 -13.38 65.52 -13.1C64.73 -12.83 64.08 -12.42 63.56 -11.86C63.05 -11.3 62.8 -10.62 62.8 -9.82C62.8 -8.86 63.13 -8.05 63.8 -7.39C64.48 -6.74 65.41 -6.12 66.61 -5.54L67.21 -5.28C68.11 -4.88 68.77 -4.53 69.19 -4.22C69.62 -3.92 69.84 -3.53 69.85 -3.05C69.85 -2.41 69.63 -1.92 69.18 -1.6C68.73 -1.27 68.12 -1.1 67.33 -1.1C66.79 -1.1 66.33 -1.19 65.96 -1.36C65.6 -1.52 65.2 -1.8 64.76 -2.18Z M83.23 -13.1L83.23 -16.25L81.79 -16.25C81.37 -14.82 81.04 -13.9 80.8 -13.49C80.61 -13.18 80.39 -12.98 80.14 -12.88C79.89 -12.77 79.39 -12.62 78.64 -12.43L78.64 -11.4L80.42 -11.4L80.42 -3.41C80.42 -2.13 80.65 -1.19 81.11 -0.6C81.58 -0.01 82.32 0.29 83.35 0.29C84.07 0.29 84.82 0.17 85.61 -0.06C86.41 -0.29 87 -0.61 87.4 -1.01L86.92 -2.16C86.73 -2.03 86.39 -1.91 85.9 -1.8C85.41 -1.69 85 -1.63 84.67 -1.63C84.23 -1.63 83.93 -1.77 83.74 -2.05C83.56 -2.33 83.44 -2.76 83.38 -3.34C83.33 -3.91 83.3 -4.82 83.3 -6.05L83.3 -11.4L87.16 -11.4L87.16 -13.1Z M102.6 -12.36C101.75 -13.05 100.55 -13.39 99 -13.39C98.15 -13.39 97.22 -13.27 96.2 -13.02C95.19 -12.77 94.41 -12.42 93.86 -11.98L94.42 -10.66C94.91 -10.93 95.5 -11.15 96.17 -11.33C96.84 -11.5 97.44 -11.59 97.97 -11.59C98.94 -11.59 99.68 -11.38 100.18 -10.94C100.67 -10.51 100.92 -9.75 100.92 -8.66L100.92 -7.94C99.74 -7.94 98.56 -7.79 97.39 -7.48C96.22 -7.16 95.25 -6.66 94.46 -5.98C93.68 -5.29 93.29 -4.42 93.29 -3.36C93.29 -2.66 93.46 -2.02 93.82 -1.46C94.17 -0.9 94.66 -0.47 95.3 -0.16C95.94 0.16 96.67 0.31 97.49 0.31C99.09 0.31 100.33 -0.18 101.21 -1.18C101.22 -0.65 101.36 -0.27 101.62 -0.04C101.87 0.2 102.29 0.31 102.86 0.31C103.31 0.31 103.77 0.26 104.23 0.16C104.7 0.05 105.07 -0.09 105.36 -0.26L105.36 -1.22L103.87 -1.22L103.87 -8.9C103.87 -10.52 103.45 -11.67 102.6 -12.36ZM97.69 -5.86C98.64 -6.29 99.72 -6.5 100.92 -6.5L100.9 -2.28C100.66 -2.06 100.33 -1.86 99.92 -1.7C99.52 -1.54 99.12 -1.46 98.74 -1.46C97.09 -1.46 96.26 -2.24 96.26 -3.79C96.26 -4.74 96.74 -5.42 97.69 -5.86Z M115.47 -13.1L115.47 -16.25L114.03 -16.25C113.61 -14.82 113.29 -13.9 113.05 -13.49C112.85 -13.18 112.63 -12.98 112.39 -12.88C112.14 -12.77 111.64 -12.62 110.89 -12.43L110.89 -11.4L112.66 -11.4L112.66 -3.41C112.66 -2.13 112.89 -1.19 113.36 -0.6C113.82 -0.01 114.57 0.29 115.59 0.29C116.31 0.29 117.07 0.17 117.86 -0.06C118.65 -0.29 119.25 -0.61 119.65 -1.01L119.17 -2.16C118.97 -2.03 118.63 -1.91 118.15 -1.8C117.66 -1.69 117.25 -1.63 116.91 -1.63C116.48 -1.63 116.17 -1.77 115.99 -2.05C115.8 -2.33 115.68 -2.76 115.63 -3.34C115.57 -3.91 115.54 -4.82 115.54 -6.05L115.54 -11.4L119.41 -11.4L119.41 -13.1Z M130.06 -19.19C129.74 -19.5 129.29 -19.66 128.7 -19.66C128.16 -19.66 127.66 -19.46 127.21 -19.06C126.76 -18.66 126.54 -18.18 126.54 -17.62C126.54 -17.1 126.72 -16.69 127.08 -16.37C127.44 -16.05 127.87 -15.89 128.36 -15.89C128.94 -15.89 129.44 -16.08 129.88 -16.46C130.31 -16.85 130.52 -17.34 130.52 -17.93C130.52 -18.46 130.37 -18.88 130.06 -19.19ZM130.26 -13.15L129.56 -13.39L125.8 -12.26L125.8 -11.4L127.38 -10.25L127.38 -1.49L125.53 -1.22L125.53 0L132.08 0L132.08 -1.22L130.26 -1.49Z M148.91 -11.7C147.87 -12.91 146.36 -13.51 144.38 -13.51C143.15 -13.51 142.03 -13.23 141.03 -12.67C140.03 -12.11 139.23 -11.31 138.64 -10.27C138.05 -9.23 137.75 -8.01 137.75 -6.6C137.75 -4.55 138.28 -2.89 139.34 -1.62C140.39 -0.35 141.95 0.29 144.02 0.29C145.25 0.29 146.35 -0.01 147.33 -0.61C148.31 -1.21 149.07 -2.05 149.63 -3.13C150.19 -4.21 150.47 -5.46 150.47 -6.86C150.47 -8.88 149.95 -10.49 148.91 -11.7ZM140.9 -6.94C140.9 -10.36 141.98 -12.07 144.14 -12.07C145.24 -12.07 146.05 -11.57 146.57 -10.57C147.09 -9.57 147.35 -8.26 147.35 -6.65C147.35 -4.89 147.11 -3.54 146.62 -2.59C146.13 -1.65 145.31 -1.18 144.14 -1.2C143.07 -1.22 142.26 -1.78 141.71 -2.9C141.17 -4.02 140.9 -5.37 140.9 -6.94Z M158.57 -1.46L157.03 -1.22L157.03 0L163.18 0L163.18 -1.22L161.54 -1.49L161.54 -10.34C161.98 -10.66 162.46 -10.9 163 -11.06C163.53 -11.22 164.01 -11.3 164.42 -11.3C165.1 -11.3 165.61 -11.18 165.96 -10.92C166.31 -10.66 166.55 -10.27 166.68 -9.73C166.81 -9.2 166.87 -8.46 166.87 -7.51L166.87 -1.49L165.12 -1.22L165.12 0L171.6 0L171.6 -1.22L169.82 -1.46L169.82 -7.97C169.82 -9.86 169.55 -11.23 169 -12.1C168.44 -12.96 167.48 -13.39 166.1 -13.39C165.29 -13.39 164.41 -13.21 163.48 -12.84C162.54 -12.47 161.77 -12.02 161.16 -11.47L161.16 -13.18L160.51 -13.39L156.94 -12.34L156.94 -11.33L158.57 -10.34Z M187.72 -12.14C186.87 -13.06 185.67 -13.51 184.13 -13.51C182.82 -13.51 181.65 -13.21 180.63 -12.6C179.61 -11.99 178.81 -11.15 178.23 -10.07C177.65 -8.99 177.37 -7.77 177.37 -6.41C177.37 -4.34 177.9 -2.71 178.97 -1.51C180.05 -0.31 181.56 0.3 183.51 0.31C184.47 0.31 185.44 0.18 186.41 -0.08C187.39 -0.35 188.13 -0.7 188.65 -1.15L188.14 -2.3C187.73 -2.1 187.18 -1.92 186.51 -1.79C185.84 -1.65 185.21 -1.58 184.61 -1.58C183.27 -1.58 182.23 -2 181.51 -2.83C180.78 -3.66 180.4 -4.82 180.37 -6.31L188.84 -6.31C188.95 -6.94 189.01 -7.6 189.01 -8.3C189.01 -9.95 188.58 -11.23 187.72 -12.14ZM181.41 -11.02C181.98 -11.74 182.7 -12.1 183.58 -12.1C184.38 -12.1 184.94 -11.79 185.26 -11.18C185.77 -10.7 186.03 -9.87 186.03 -8.69C186.03 -8.34 186.02 -8.07 186.01 -7.9L180.39 -7.9C180.5 -9.26 180.84 -10.3 181.41 -11.02Z M197.17 -1.49L195.44 -1.22L195.44 0L203.24 0L203.24 -1.22L200.15 -1.54L200.15 -10.2C200.8 -10.63 201.63 -10.85 202.62 -10.85C203.42 -10.85 204.11 -10.7 204.68 -10.42L204.68 -13.3C204.51 -13.36 204.12 -13.39 203.51 -13.39C202.84 -13.39 202.1 -13.16 201.31 -12.68C200.52 -12.21 200 -11.71 199.74 -11.18L199.74 -13.18L199.07 -13.39L195.52 -12.34L195.52 -11.33L197.17 -10.34Z M212.18 3.77C211.75 3.78 211.34 3.74 210.95 3.62L210.95 5.98C211.03 6.02 211.21 6.06 211.47 6.1C211.73 6.13 211.99 6.14 212.23 6.14C212.91 6.14 213.5 5.94 214 5.54C214.72 5.24 215.35 4.69 215.9 3.89C216.44 3.09 217 1.97 217.58 0.53C217.9 -0.27 218.49 -1.82 219.35 -4.13C220.22 -6.43 221.08 -8.84 221.95 -11.35L223.17 -11.57L223.17 -13.1L217.79 -13.1L217.79 -11.57L219.55 -11.33L217.36 -4.03L216.79 -2.09L216.21 -4.01L213.64 -11.3L215.2 -11.57L215.2 -13.1L209.25 -13.1L209.25 -11.57L210.4 -11.3L215.06 -0.02L215.63 -0.02C215.25 1.32 214.75 2.29 214.15 2.88C213.54 3.47 212.88 3.77 212.18 3.77Z"></path></g></g></svg>