<svg id="SvgjsSvg1141" width="100%" height="100%" xmlns="http://www.w3.org/2000/svg" version="1.1" xlink="http://www.w3.org/1999/xlink" xmlns:svgjs="http://svgjs.com/svgjs" preserveAspectRatio="xMidYMid meet" viewBox="0 0 241.8245391845703 147.00001525878906" overflow="visible"><defs id="SvgjsDefs1142"></defs><g id="SvgjsG1143" transform="scale(0.5234297108673978)" opacity="1"><g id="SvgjsG1144" class="OGHfRZRXsV" transform="translate(147.84, 0) scale(1.6632)" light-content="false" non-strokable="false" fill="#080808"><path d="M24 0h76v76c0 13.255-10.745 24-24 24H0V24C0 10.745 10.745 0 24 0z"></path></g><g id="SvgjsG1145" class="cDqY_g4BSI" transform="translate(152.42440276930773, 5.3827239920202885) scale(1.5715120645107008)" light-content="true" non-strokable="false" fill="#ffffff"><path d="M59.375 25c0 5.176-4.2 9.375-9.375 9.375s-9.375-4.2-9.375-9.375 4.2-9.375 9.375-9.375 9.375 4.2 9.375 9.375m23.437 40.625c0 5.176-4.2 9.375-9.375 9.375s-9.375-4.2-9.375-9.375 4.2-9.375 9.375-9.375 9.375 4.2 9.375 9.375m-46.874 0c0 5.176-4.2 9.375-9.375 9.375s-9.375-4.2-9.375-9.375 4.2-9.375 9.375-9.375 9.375 4.2 9.375 9.375M64.062 25a13.989 13.989 0 0 1-1.96 7.125 23.395 23.395 0 0 1 11.265 19.438h.07c2.743.012 5.426.828 7.711 2.344 0-.578.047-1.156.047-1.742a31.256 31.256 0 0 0-17.133-27.883V25zm-2.804 47.656a23.361 23.361 0 0 1-22.516 0 14.22 14.22 0 0 1-5.883 5.555c5.086 3.36 11.047 5.148 17.141 5.148s12.055-1.789 17.141-5.148a14.22 14.22 0 0 1-5.883-5.555zM26.562 51.562h.07a23.393 23.393 0 0 1 11.266-19.438 13.989 13.989 0 0 1-1.96-7.125v-.719A31.253 31.253 0 0 0 18.75 52.131c0 .586 0 1.164.047 1.742a14.067 14.067 0 0 1 7.766-2.312z"></path></g><g id="SvgjsG1146" class="text" transform="translate(230.4600067138672, 230.04000122070312) scale(1)" light-content="false" fill="#080808"><path d="M-230.46 0L-221.22 0L-221.22 -11.52C-221.22 -13.52 -221.38 -15.85 -221.7 -18.51C-222.02 -21.17 -222.3 -23.48 -222.54 -25.44L-222.3 -25.44L-219.18 -16.08L-214.38 -3.18L-208.86 -3.18L-204.06 -16.08L-200.82 -25.44L-200.58 -25.44C-200.82 -23.48 -201.1 -21.17 -201.42 -18.51C-201.74 -15.85 -201.9 -13.52 -201.9 -11.52L-201.9 0L-192.54 0L-192.54 -39L-203.58 -39L-209.22 -23.04C-209.58 -21.96 -209.92 -20.83 -210.24 -19.65C-210.56 -18.47 -210.9 -17.32 -211.26 -16.2L-211.5 -16.2C-211.86 -17.32 -212.2 -18.47 -212.52 -19.65C-212.84 -20.83 -213.18 -21.96 -213.54 -23.04L-219.42 -39L-230.46 -39Z M-167.46 0.72C-162.06 0.72 -157.69 -1.08 -154.35 -4.68C-151.01 -8.28 -149.34 -13.28 -149.34 -19.68C-149.34 -26.08 -151.01 -31.02 -154.35 -34.5C-157.69 -37.98 -162.06 -39.72 -167.46 -39.72C-172.86 -39.72 -177.23 -37.98 -180.57 -34.5C-183.91 -31.02 -185.58 -26.08 -185.58 -19.68C-185.58 -13.28 -183.91 -8.28 -180.57 -4.68C-177.23 -1.08 -172.86 0.72 -167.46 0.72ZM-167.46 -8.16C-169.78 -8.16 -171.62 -9.2 -172.98 -11.28C-174.34 -13.36 -175.02 -16.16 -175.02 -19.68C-175.02 -23.2 -174.34 -25.94 -172.98 -27.9C-171.62 -29.86 -169.78 -30.84 -167.46 -30.84C-165.14 -30.84 -163.3 -29.86 -161.94 -27.9C-160.58 -25.94 -159.9 -23.2 -159.9 -19.68C-159.9 -16.16 -160.58 -13.36 -161.94 -11.28C-163.3 -9.2 -165.14 -8.16 -167.46 -8.16Z M-132.06 -21.24L-132.06 -30.84L-128.34 -30.84C-126.3 -30.84 -124.75 -30.52 -123.69 -29.88C-122.63 -29.24 -122.1 -28.08 -122.1 -26.4C-122.1 -22.96 -124.18 -21.24 -128.34 -21.24ZM-132.06 0L-132.06 -13.08L-128.1 -13.08L-121.38 0L-109.86 0L-118.32 -15.12C-116.44 -16.16 -114.92 -17.6 -113.76 -19.44C-112.6 -21.28 -112.02 -23.6 -112.02 -26.4C-112.02 -29.64 -112.74 -32.17 -114.18 -33.99C-115.62 -35.81 -117.52 -37.1 -119.88 -37.86C-122.24 -38.62 -124.82 -39 -127.62 -39L-142.38 -39L-142.38 0Z M-104.58 0L-94.74 0L-94.74 -11.28C-94.74 -13.68 -94.9 -16.2 -95.22 -18.84C-95.54 -21.48 -95.82 -23.92 -96.06 -26.16L-95.82 -26.16L-92.1 -17.46L-83.46 0L-72.9 0L-72.9 -39L-82.74 -39L-82.74 -27.72C-82.74 -25.32 -82.58 -22.76 -82.26 -20.04C-81.94 -17.32 -81.66 -14.92 -81.42 -12.84L-81.66 -12.84L-85.38 -21.6L-94.02 -39L-104.58 -39Z M-64.26 0L-53.94 0L-53.94 -39L-64.26 -39Z M-45.3 0L-35.46 0L-35.46 -11.28C-35.46 -13.68 -35.62 -16.2 -35.94 -18.84C-36.26 -21.48 -36.54 -23.92 -36.78 -26.16L-36.54 -26.16L-32.82 -17.46L-24.18 0L-13.62 0L-13.62 -39L-23.46 -39L-23.46 -27.72C-23.46 -25.32 -23.3 -22.76 -22.98 -20.04C-22.66 -17.32 -22.38 -14.92 -22.14 -12.84L-22.38 -12.84L-26.1 -21.6L-34.74 -39L-45.3 -39Z M13.02 0.72C15.78 0.72 18.33 0.25 20.67 -0.69C23.01 -1.63 24.86 -2.76 26.22 -4.08L26.22 -22.68L11.34 -22.68L11.34 -14.28L17.1 -14.28L17.1 -8.88C16.38 -8.4 15.38 -8.16 14.1 -8.16C10.62 -8.16 8.05 -9.14 6.39 -11.1C4.73 -13.06 3.9 -15.88 3.9 -19.56C3.9 -23.08 4.78 -25.84 6.54 -27.84C8.3 -29.84 10.5 -30.84 13.14 -30.84C14.7 -30.84 16.01 -30.57 17.07 -30.03C18.13 -29.49 19.14 -28.8 20.1 -27.96L25.5 -34.56C24.14 -35.92 22.4 -37.12 20.28 -38.16C18.16 -39.2 15.66 -39.72 12.78 -39.72C9.3 -39.72 6.09 -38.92 3.15 -37.32C0.21 -35.72 -2.16 -33.39 -3.96 -30.33C-5.76 -27.27 -6.66 -23.56 -6.66 -19.2C-6.66 -14.76 -5.78 -11.07 -4.02 -8.13C-2.26 -5.19 0.11 -2.98 3.09 -1.5C6.07 -0.02 9.38 0.72 13.02 0.72Z M62.22 0.72C67.62 0.72 71.99 -1.08 75.33 -4.68C78.67 -8.28 80.34 -13.28 80.34 -19.68C80.34 -26.08 78.67 -31.02 75.33 -34.5C71.99 -37.98 67.62 -39.72 62.22 -39.72C56.82 -39.72 52.45 -37.98 49.11 -34.5C45.77 -31.02 44.1 -26.08 44.1 -19.68C44.1 -13.28 45.77 -8.28 49.11 -4.68C52.45 -1.08 56.82 0.72 62.22 0.72ZM62.22 -8.16C59.9 -8.16 58.06 -9.2 56.7 -11.28C55.34 -13.36 54.66 -16.16 54.66 -19.68C54.66 -23.2 55.34 -25.94 56.7 -27.9C58.06 -29.86 59.9 -30.84 62.22 -30.84C64.54 -30.84 66.38 -29.86 67.74 -27.9C69.1 -25.94 69.78 -23.2 69.78 -19.68C69.78 -16.16 69.1 -13.36 67.74 -11.28C66.38 -9.2 64.54 -8.16 62.22 -8.16Z M87.3 0L97.62 0L97.62 -14.28L110.58 -14.28L110.58 -22.92L97.62 -22.92L97.62 -30.36L112.74 -30.36L112.74 -39L87.3 -39Z M119.46 0L129.78 0L129.78 -14.28L142.74 -14.28L142.74 -22.92L129.78 -22.92L129.78 -30.36L144.9 -30.36L144.9 -39L119.46 -39Z M151.62 0L161.94 0L161.94 -39L151.62 -39Z M187.5 0.72C192.78 0.72 197.06 -1.2 200.34 -5.04L194.94 -11.52C194.1 -10.64 193.09 -9.86 191.91 -9.18C190.73 -8.5 189.38 -8.16 187.86 -8.16C185.34 -8.16 183.31 -9.14 181.77 -11.1C180.23 -13.06 179.46 -15.88 179.46 -19.56C179.46 -23.08 180.31 -25.84 182.01 -27.84C183.71 -29.84 185.7 -30.84 187.98 -30.84C189.3 -30.84 190.47 -30.57 191.49 -30.03C192.51 -29.49 193.5 -28.8 194.46 -27.96L199.86 -34.56C198.5 -35.92 196.78 -37.12 194.7 -38.16C192.62 -39.2 190.3 -39.72 187.74 -39.72C184.46 -39.72 181.39 -38.92 178.53 -37.32C175.67 -35.72 173.35 -33.39 171.57 -30.33C169.79 -27.27 168.9 -23.56 168.9 -19.2C168.9 -14.76 169.76 -11.07 171.48 -8.13C173.2 -5.19 175.47 -2.98 178.29 -1.5C181.11 -0.02 184.18 0.72 187.5 0.72Z M205.74 0L231.54 0L231.54 -8.64L216.06 -8.64L216.06 -15.6L228.78 -15.6L228.78 -24.24L216.06 -24.24L216.06 -30.36L230.94 -30.36L230.94 -39L205.74 -39Z"></path></g><g id="SvgjsG1147" class="text" transform="translate(229.8300018310547, 274.12000061035155) scale(1)" light-content="false" fill="#080808"><path d="M-229.83 0L-218.19 0L-218.19 -2.13L-227.34 -2.13L-227.34 -9.27L-219.87 -9.27L-219.87 -11.4L-227.34 -11.4L-227.34 -17.58L-218.49 -17.58L-218.49 -19.68L-229.83 -19.68Z M-206.89 0L-204.01 0L-198.85 -14.58L-201.28 -14.58L-204.04 -6.3C-204.24 -5.58 -204.46 -4.86 -204.7 -4.14C-204.94 -3.42 -205.16 -2.71 -205.36 -2.01L-205.48 -2.01C-205.7 -2.71 -205.93 -3.42 -206.16 -4.14C-206.39 -4.86 -206.62 -5.58 -206.83 -6.3L-209.59 -14.58L-212.14 -14.58Z M-185.73 0.36C-184.75 0.36 -183.86 0.21 -183.06 -0.09C-182.26 -0.39 -181.55 -0.74 -180.93 -1.14L-181.8 -2.76C-182.34 -2.42 -182.91 -2.14 -183.49 -1.93C-184.08 -1.72 -184.73 -1.62 -185.43 -1.62C-186.83 -1.62 -187.96 -2.08 -188.83 -3C-189.7 -3.92 -190.19 -5.15 -190.29 -6.69L-180.45 -6.69C-180.39 -7.05 -180.36 -7.52 -180.36 -8.1C-180.36 -10.18 -180.87 -11.84 -181.87 -13.08C-182.88 -14.32 -184.32 -14.94 -186.18 -14.94C-187.3 -14.94 -188.35 -14.63 -189.34 -14.01C-190.33 -13.39 -191.14 -12.51 -191.77 -11.37C-192.4 -10.23 -192.72 -8.86 -192.72 -7.26C-192.72 -4.88 -192.04 -3.01 -190.68 -1.66C-189.32 -0.31 -187.67 0.36 -185.73 0.36ZM-190.32 -8.46C-190.16 -9.9 -189.67 -11.01 -188.86 -11.8C-188.05 -12.6 -187.14 -12.99 -186.12 -12.99C-183.72 -12.99 -182.52 -11.48 -182.52 -8.46Z M-172.24 0L-169.78 0L-169.78 -9.36C-169.28 -10.6 -168.7 -11.47 -168.03 -11.97C-167.36 -12.47 -166.72 -12.72 -166.09 -12.72C-165.79 -12.72 -165.54 -12.7 -165.34 -12.66C-165.15 -12.62 -164.92 -12.56 -164.68 -12.48L-164.2 -14.64C-164.66 -14.84 -165.18 -14.94 -165.76 -14.94C-166.58 -14.94 -167.35 -14.67 -168.07 -14.13C-168.79 -13.59 -169.4 -12.86 -169.9 -11.94L-169.99 -11.94L-170.2 -14.58L-172.24 -14.58Z M-156.33 6.27C-154.85 6.27 -153.7 5.78 -152.88 4.81C-152.06 3.84 -151.39 2.64 -150.87 1.2L-145.38 -14.58L-147.78 -14.58L-150.39 -6.51C-150.59 -5.87 -150.79 -5.19 -150.99 -4.47C-151.19 -3.75 -151.4 -3.06 -151.62 -2.4L-151.74 -2.4C-151.96 -3.08 -152.2 -3.78 -152.44 -4.5C-152.69 -5.22 -152.93 -5.89 -153.15 -6.51L-156.12 -14.58L-158.67 -14.58L-152.82 0.03L-153.15 1.11C-153.45 2.01 -153.87 2.76 -154.41 3.35C-154.95 3.94 -155.63 4.23 -156.45 4.23C-156.63 4.23 -156.83 4.21 -157.03 4.16C-157.24 4.1 -157.42 4.06 -157.56 4.02L-158.04 5.97C-157.5 6.17 -156.93 6.27 -156.33 6.27Z M-133.46 0.36C-133 0.36 -132.53 0.31 -132.06 0.2C-131.59 0.08 -131.16 -0.04 -130.75 -0.18L-131.24 -2.04C-131.47 -1.96 -131.74 -1.87 -132.05 -1.78C-132.34 -1.69 -132.63 -1.65 -132.88 -1.65C-133.72 -1.65 -134.31 -1.89 -134.64 -2.38C-134.97 -2.88 -135.13 -3.57 -135.13 -4.47L-135.13 -12.57L-131.21 -12.57L-131.21 -14.58L-135.13 -14.58L-135.13 -18.66L-137.21 -18.66L-137.5 -14.58L-139.78 -14.43L-139.78 -12.57L-137.62 -12.57L-137.62 -4.5C-137.62 -3.06 -137.32 -1.89 -136.71 -0.99C-136.1 -0.09 -135.02 0.36 -133.46 0.36Z M-123.39 0L-120.93 0L-120.93 -10.56C-120.19 -11.3 -119.53 -11.86 -118.93 -12.24C-118.34 -12.62 -117.68 -12.81 -116.94 -12.81C-115.98 -12.81 -115.28 -12.5 -114.84 -11.88C-114.4 -11.26 -114.18 -10.27 -114.18 -8.91L-114.18 0L-111.72 0L-111.72 -9.24C-111.72 -13.04 -113.2 -14.94 -116.16 -14.94C-117.16 -14.94 -118.05 -14.7 -118.81 -14.23C-119.59 -13.77 -120.32 -13.2 -121.02 -12.54L-120.93 -15.54L-120.93 -21.36L-123.39 -21.36Z M-101.29 -17.58C-100.81 -17.58 -100.41 -17.73 -100.08 -18.03C-99.75 -18.33 -99.58 -18.71 -99.58 -19.17C-99.58 -19.65 -99.75 -20.03 -100.08 -20.32C-100.41 -20.62 -100.81 -20.76 -101.29 -20.76C-101.77 -20.76 -102.18 -20.62 -102.51 -20.32C-102.84 -20.03 -103.01 -19.65 -103.01 -19.17C-103.01 -18.71 -102.84 -18.33 -102.51 -18.03C-102.18 -17.73 -101.77 -17.58 -101.29 -17.58ZM-102.55 0L-100.09 0L-100.09 -14.58L-102.55 -14.58Z M-90.66 0L-88.2 0L-88.2 -10.56C-87.46 -11.3 -86.8 -11.86 -86.2 -12.24C-85.61 -12.62 -84.95 -12.81 -84.21 -12.81C-83.25 -12.81 -82.55 -12.5 -82.11 -11.88C-81.67 -11.26 -81.45 -10.27 -81.45 -8.91L-81.45 0L-78.99 0L-78.99 -9.24C-78.99 -13.04 -80.47 -14.94 -83.43 -14.94C-84.43 -14.94 -85.32 -14.7 -86.11 -14.22C-86.9 -13.74 -87.64 -13.16 -88.32 -12.48L-88.41 -12.48L-88.62 -14.58L-90.66 -14.58Z M-64.81 -6.27C-65.65 -6.27 -66.38 -6.58 -66.99 -7.21C-67.6 -7.84 -67.9 -8.69 -67.9 -9.75C-67.9 -10.81 -67.6 -11.64 -67 -12.24C-66.4 -12.84 -65.68 -13.14 -64.81 -13.14C-63.96 -13.14 -63.22 -12.84 -62.62 -12.24C-62.02 -11.64 -61.72 -10.81 -61.72 -9.75C-61.72 -8.69 -62.03 -7.84 -62.64 -7.21C-63.25 -6.58 -63.97 -6.27 -64.81 -6.27ZM-64.81 6.72C-62.55 6.72 -60.76 6.22 -59.43 5.22C-58.1 4.22 -57.43 3.04 -57.43 1.68C-57.43 -0.64 -59.13 -1.8 -62.53 -1.8L-65.35 -1.8C-66.35 -1.8 -67.03 -1.95 -67.39 -2.25C-67.75 -2.55 -67.93 -2.93 -67.93 -3.39C-67.93 -3.79 -67.84 -4.12 -67.66 -4.39C-67.48 -4.66 -67.27 -4.91 -67 -5.13C-66.32 -4.79 -65.59 -4.62 -64.81 -4.62C-63.33 -4.62 -62.07 -5.08 -61.03 -5.98C-60 -6.89 -59.47 -8.13 -59.47 -9.69C-59.47 -10.31 -59.59 -10.88 -59.82 -11.4C-60.05 -11.92 -60.33 -12.35 -60.67 -12.69L-57.67 -12.69L-57.67 -14.58L-62.74 -14.58C-63.36 -14.82 -64.05 -14.94 -64.81 -14.94C-66.29 -14.94 -67.58 -14.47 -68.67 -13.53C-69.76 -12.59 -70.3 -11.33 -70.3 -9.75C-70.3 -8.89 -70.11 -8.12 -69.72 -7.44C-69.33 -6.76 -68.89 -6.22 -68.41 -5.82L-68.41 -5.7C-68.79 -5.44 -69.15 -5.08 -69.49 -4.62C-69.84 -4.16 -70 -3.62 -70 -3C-70 -2.44 -69.88 -1.96 -69.63 -1.56C-69.38 -1.16 -69.07 -0.85 -68.71 -0.63L-68.71 -0.51C-70.13 0.45 -70.84 1.55 -70.84 2.79C-70.84 4.05 -70.28 5.02 -69.16 5.7C-68.05 6.38 -66.6 6.72 -64.81 6.72ZM-64.45 5.01C-65.77 5.01 -66.81 4.78 -67.56 4.32C-68.31 3.86 -68.68 3.24 -68.68 2.46C-68.69 1.54 -68.19 0.72 -67.18 0C-66.86 0.08 -66.54 0.14 -66.21 0.18C-65.88 0.22 -65.57 0.24 -65.29 0.24L-62.77 0.24C-61.83 0.24 -61.11 0.37 -60.6 0.63C-60.09 0.89 -59.83 1.36 -59.83 2.04C-59.83 2.8 -60.25 3.49 -61.09 4.1C-61.93 4.7 -63.06 5.01 -64.45 5.01Z M-35.51 -1.62C-36.22 -1.62 -36.83 -1.81 -37.33 -2.17C-37.84 -2.55 -38.08 -3.14 -38.08 -3.96C-38.08 -4.88 -37.6 -5.65 -36.64 -6.25C-35.68 -6.86 -33.99 -7.32 -31.54 -7.62L-31.54 -3.57C-32.25 -2.95 -32.91 -2.47 -33.52 -2.13C-34.14 -1.79 -34.81 -1.62 -35.51 -1.62ZM-36.22 0.36C-35.3 0.36 -34.45 0.15 -33.64 -0.27C-32.85 -0.69 -32.1 -1.18 -31.39 -1.74L-31.3 -1.74L-31.09 0L-29.05 0L-29.05 -8.94C-29.05 -10.76 -29.46 -12.21 -30.25 -13.3C-31.05 -14.4 -32.34 -14.94 -34.12 -14.94C-35.29 -14.94 -36.36 -14.73 -37.35 -14.32C-38.34 -13.92 -39.18 -13.49 -39.85 -13.05L-38.89 -11.34C-38.31 -11.74 -37.66 -12.1 -36.91 -12.42C-36.17 -12.74 -35.38 -12.9 -34.54 -12.9C-33.34 -12.9 -32.55 -12.52 -32.14 -11.76C-31.74 -11 -31.54 -10.16 -31.54 -9.24C-34.64 -8.9 -36.91 -8.31 -38.34 -7.45C-39.77 -6.61 -40.48 -5.38 -40.48 -3.78C-40.48 -2.48 -40.08 -1.47 -39.27 -0.73C-38.46 -0.01 -37.45 0.36 -36.22 0.36Z M-13.5 0.36C-11.84 0.36 -10.38 -0.33 -9.1 -1.71C-7.83 -3.09 -7.2 -5.03 -7.2 -7.53C-7.2 -9.79 -7.69 -11.59 -8.68 -12.93C-9.68 -14.27 -11.11 -14.94 -12.99 -14.94C-13.79 -14.94 -14.58 -14.74 -15.37 -14.35C-16.16 -13.96 -16.89 -13.48 -17.55 -12.9L-17.49 -15.54L-17.49 -21.36L-19.95 -21.36L-19.95 0L-17.97 0L-17.76 -1.5L-17.67 -1.5C-16.31 -0.26 -14.92 0.36 -13.5 0.36ZM-13.92 -1.71C-14.4 -1.71 -14.95 -1.82 -15.58 -2.05C-16.21 -2.28 -16.85 -2.68 -17.49 -3.24L-17.49 -10.89C-16.07 -12.21 -14.77 -12.87 -13.59 -12.87C-12.21 -12.87 -11.22 -12.37 -10.63 -11.38C-10.05 -10.39 -9.75 -9.1 -9.75 -7.5C-9.75 -5.7 -10.14 -4.28 -10.93 -3.25C-11.73 -2.23 -12.72 -1.71 -13.92 -1.71Z M6.83 0.36C8.61 0.36 10.17 -0.31 11.54 -1.63C12.9 -2.96 13.58 -4.84 13.58 -7.26C13.58 -9.7 12.9 -11.59 11.54 -12.93C10.18 -14.27 8.61 -14.94 6.83 -14.94C5.05 -14.94 3.47 -14.27 2.12 -12.93C0.76 -11.59 0.08 -9.7 0.08 -7.26C0.07 -4.84 0.75 -2.96 2.12 -1.63C3.47 -0.31 5.04 0.36 6.83 0.36ZM6.83 -1.68C5.59 -1.68 4.58 -2.19 3.8 -3.22C3.02 -4.25 2.63 -5.6 2.63 -7.26C2.63 -8.94 3.02 -10.3 3.8 -11.34C4.58 -12.38 5.59 -12.9 6.83 -12.9C8.09 -12.9 9.1 -12.38 9.87 -11.34C10.64 -10.3 11.03 -8.94 11.03 -7.26C11.03 -5.6 10.64 -4.25 9.87 -3.22C9.1 -2.2 8.09 -1.68 6.83 -1.68Z M26.19 0.36C27.19 0.36 28.07 0.12 28.83 -0.36C29.59 -0.84 30.31 -1.48 30.99 -2.28L31.08 -2.28L31.29 0L33.33 0L33.33 -14.58L30.87 -14.58L30.87 -4.23C30.19 -3.37 29.55 -2.74 28.95 -2.35C28.35 -1.96 27.68 -1.77 26.94 -1.77C25.98 -1.77 25.28 -2.08 24.86 -2.7C24.43 -3.32 24.21 -4.31 24.21 -5.67L24.21 -14.58L21.72 -14.58L21.72 -5.34C21.72 -1.54 23.21 0.36 26.19 0.36Z M47.36 0.36C47.81 0.36 48.28 0.31 48.75 0.2C49.22 0.08 49.65 -0.04 50.06 -0.18L49.58 -2.04C49.34 -1.96 49.07 -1.87 48.77 -1.78C48.47 -1.69 48.18 -1.65 47.93 -1.65C47.09 -1.65 46.5 -1.89 46.17 -2.38C45.84 -2.88 45.68 -3.57 45.68 -4.47L45.68 -12.57L49.61 -12.57L49.61 -14.58L45.68 -14.58L45.68 -18.66L43.61 -18.66L43.31 -14.58L41.03 -14.43L41.03 -12.57L43.19 -12.57L43.19 -4.5C43.19 -3.06 43.49 -1.89 44.1 -0.99C44.71 -0.09 45.8 0.36 47.36 0.36Z M71.74 0.36C73.47 0.36 74.79 -0.07 75.71 -0.93C76.62 -1.79 77.08 -2.81 77.08 -3.99C77.08 -5.37 76.61 -6.35 75.66 -6.93C74.71 -7.51 73.71 -8 72.65 -8.4C71.83 -8.72 71.08 -9.05 70.41 -9.39C69.74 -9.73 69.41 -10.24 69.41 -10.92C69.41 -11.48 69.62 -11.97 70.05 -12.39C70.48 -12.81 71.15 -13.02 72.07 -13.02C72.71 -13.02 73.3 -12.9 73.85 -12.66C74.38 -12.42 74.91 -12.11 75.4 -11.73L76.57 -13.29C76.02 -13.75 75.35 -14.14 74.58 -14.46C73.81 -14.78 72.97 -14.94 72.04 -14.94C70.46 -14.94 69.23 -14.54 68.35 -13.74C67.48 -12.94 67.04 -11.96 67.04 -10.8C67.04 -9.56 67.5 -8.64 68.43 -8.05C69.36 -7.47 70.34 -6.98 71.38 -6.6C72.19 -6.3 72.94 -5.95 73.65 -5.56C74.36 -5.17 74.71 -4.6 74.71 -3.84C74.71 -3.2 74.47 -2.66 73.99 -2.22C73.51 -1.78 72.79 -1.56 71.83 -1.56C70.96 -1.56 70.18 -1.72 69.49 -2.04C68.82 -2.36 68.16 -2.78 67.54 -3.3L66.32 -1.65C66.99 -1.07 67.81 -0.59 68.76 -0.21C69.71 0.17 70.7 0.36 71.74 0.36Z M89.01 0.36C89.47 0.36 89.93 0.31 90.41 0.2C90.87 0.08 91.31 -0.04 91.71 -0.18L91.23 -2.04C90.99 -1.96 90.72 -1.87 90.42 -1.78C90.12 -1.69 89.84 -1.65 89.58 -1.65C88.74 -1.65 88.16 -1.89 87.83 -2.38C87.5 -2.88 87.33 -3.57 87.33 -4.47L87.33 -12.57L91.26 -12.57L91.26 -14.58L87.33 -14.58L87.33 -18.66L85.26 -18.66L84.96 -14.58L82.68 -14.43L82.68 -12.57L84.84 -12.57L84.84 -4.5C84.84 -3.06 85.14 -1.89 85.76 -0.99C86.36 -0.09 87.45 0.36 89.01 0.36Z M102.53 -1.62C101.81 -1.62 101.2 -1.81 100.7 -2.17C100.19 -2.55 99.95 -3.14 99.95 -3.96C99.95 -4.88 100.43 -5.65 101.39 -6.25C102.35 -6.86 104.04 -7.32 106.49 -7.62L106.49 -3.57C105.78 -2.95 105.12 -2.47 104.51 -2.13C103.89 -1.79 103.22 -1.62 102.53 -1.62ZM101.81 0.36C102.73 0.36 103.58 0.15 104.39 -0.27C105.18 -0.69 105.93 -1.18 106.64 -1.74L106.73 -1.74L106.93 0L108.98 0L108.98 -8.94C108.98 -10.76 108.57 -12.21 107.78 -13.3C106.98 -14.4 105.69 -14.94 103.9 -14.94C102.74 -14.94 101.67 -14.73 100.68 -14.32C99.69 -13.92 98.85 -13.49 98.18 -13.05L99.14 -11.34C99.72 -11.74 100.37 -12.1 101.12 -12.42C101.86 -12.74 102.65 -12.9 103.49 -12.9C104.68 -12.9 105.48 -12.52 105.89 -11.76C106.29 -11 106.49 -10.16 106.49 -9.24C103.39 -8.9 101.12 -8.31 99.69 -7.45C98.26 -6.61 97.55 -5.38 97.54 -3.78C97.54 -2.48 97.95 -1.47 98.76 -0.73C99.57 -0.01 100.58 0.36 101.81 0.36Z M122.25 0.36C122.71 0.36 123.17 0.31 123.65 0.2C124.11 0.08 124.55 -0.04 124.95 -0.18L124.47 -2.04C124.23 -1.96 123.96 -1.87 123.66 -1.78C123.36 -1.69 123.08 -1.65 122.82 -1.65C121.98 -1.65 121.4 -1.89 121.07 -2.38C120.74 -2.88 120.57 -3.57 120.57 -4.47L120.57 -12.57L124.5 -12.57L124.5 -14.58L120.57 -14.58L120.57 -18.66L118.5 -18.66L118.2 -14.58L115.92 -14.43L115.92 -12.57L118.08 -12.57L118.08 -4.5C118.08 -3.06 118.38 -1.89 118.99 -0.99C119.6 -0.09 120.69 0.36 122.25 0.36Z M133.57 -17.58C134.05 -17.58 134.46 -17.73 134.79 -18.03C135.12 -18.33 135.29 -18.71 135.29 -19.17C135.29 -19.65 135.12 -20.03 134.79 -20.32C134.46 -20.62 134.05 -20.76 133.57 -20.76C133.1 -20.76 132.69 -20.62 132.36 -20.32C132.03 -20.03 131.86 -19.65 131.86 -19.17C131.86 -18.71 132.03 -18.33 132.36 -18.03C132.69 -17.73 133.1 -17.58 133.57 -17.58ZM132.32 0L134.77 0L134.77 -14.58L132.32 -14.58Z M149.88 0.36C151.66 0.36 153.23 -0.31 154.59 -1.63C155.95 -2.96 156.63 -4.84 156.63 -7.26C156.63 -9.7 155.95 -11.59 154.59 -12.93C153.23 -14.27 151.66 -14.94 149.88 -14.94C148.1 -14.94 146.53 -14.27 145.17 -12.93C143.81 -11.59 143.13 -9.7 143.13 -7.26C143.13 -4.84 143.81 -2.96 145.17 -1.63C146.53 -0.31 148.1 0.36 149.88 0.36ZM149.88 -1.68C148.64 -1.68 147.63 -2.19 146.85 -3.22C146.07 -4.25 145.68 -5.6 145.68 -7.26C145.68 -8.94 146.07 -10.3 146.85 -11.34C147.63 -12.38 148.64 -12.9 149.88 -12.9C151.14 -12.9 152.16 -12.38 152.92 -11.34C153.69 -10.3 154.08 -8.94 154.08 -7.26C154.08 -5.6 153.69 -4.25 152.92 -3.22C152.16 -2.2 151.14 -1.68 149.88 -1.68Z M164.99 0L167.45 0L167.45 -10.56C168.19 -11.3 168.85 -11.86 169.44 -12.24C170.03 -12.62 170.7 -12.81 171.44 -12.81C172.4 -12.81 173.1 -12.5 173.54 -11.88C173.97 -11.26 174.2 -10.27 174.2 -8.91L174.2 0L176.66 0L176.66 -9.24C176.66 -13.04 175.17 -14.94 172.22 -14.94C171.22 -14.94 170.32 -14.7 169.53 -14.22C168.74 -13.74 168.01 -13.16 167.33 -12.48L167.24 -12.48L167.02 -14.58L164.99 -14.58Z M191.82 0.36C192.8 0.36 193.69 0.21 194.49 -0.09C195.29 -0.39 196 -0.74 196.62 -1.14L195.75 -2.76C195.21 -2.42 194.64 -2.14 194.05 -1.93C193.47 -1.72 192.82 -1.62 192.12 -1.62C190.72 -1.62 189.58 -2.08 188.71 -3C187.85 -3.92 187.36 -5.15 187.26 -6.69L197.1 -6.69C197.16 -7.05 197.19 -7.52 197.19 -8.1C197.19 -10.18 196.68 -11.84 195.68 -13.08C194.67 -14.32 193.23 -14.94 191.37 -14.94C190.25 -14.94 189.2 -14.63 188.21 -14.01C187.21 -13.39 186.4 -12.51 185.77 -11.37C185.15 -10.23 184.83 -8.86 184.83 -7.26C184.83 -4.88 185.51 -3.01 186.87 -1.66C188.23 -0.31 189.88 0.36 191.82 0.36ZM187.23 -8.46C187.39 -9.9 187.88 -11.01 188.68 -11.8C189.49 -12.6 190.41 -12.99 191.43 -12.99C193.83 -12.99 195.03 -11.48 195.03 -8.46Z M205.3 0L207.77 0L207.77 -9.36C208.27 -10.6 208.85 -11.47 209.52 -11.97C210.19 -12.47 210.83 -12.72 211.46 -12.72C211.76 -12.72 212.01 -12.7 212.21 -12.66C212.4 -12.62 212.62 -12.56 212.86 -12.48L213.34 -14.64C212.89 -14.84 212.37 -14.94 211.79 -14.94C210.97 -14.94 210.2 -14.67 209.48 -14.13C208.76 -13.59 208.15 -12.86 207.65 -11.94L207.55 -11.94L207.34 -14.58L205.3 -14.58Z M221.22 6.27C222.7 6.27 223.85 5.78 224.67 4.81C225.49 3.84 226.16 2.64 226.68 1.2L232.17 -14.58L229.77 -14.58L227.16 -6.51C226.96 -5.87 226.76 -5.19 226.56 -4.47C226.36 -3.75 226.15 -3.06 225.93 -2.4L225.81 -2.4C225.59 -3.08 225.35 -3.78 225.11 -4.5C224.86 -5.22 224.62 -5.89 224.4 -6.51L221.43 -14.58L218.88 -14.58L224.73 0.03L224.4 1.11C224.1 2.01 223.68 2.76 223.14 3.35C222.6 3.94 221.92 4.23 221.1 4.23C220.92 4.23 220.73 4.21 220.52 4.16C220.31 4.1 220.13 4.06 219.99 4.02L219.51 5.97C220.05 6.17 220.62 6.27 221.22 6.27Z"></path></g></g></svg>