<svg id="SvgjsSvg1097" width="100%" height="100%" xmlns="http://www.w3.org/2000/svg" version="1.1" xlink="http://www.w3.org/1999/xlink" xmlns:svgjs="http://svgjs.com/svgjs" preserveAspectRatio="xMidYMid meet" viewBox="0 0 286.8355407714844 147.00001525878906" overflow="visible"><defs id="SvgjsDefs1098"></defs><g id="SvgjsG1099" transform="scale(1.1668518812509923)" opacity="1"><g id="SvgjsG1100" class="text" transform="translate(122.58000183105469, 40.20000076293945) scale(1)" light-content="false" fill="#383838"><path d="M-78.6 0.36L-78.42 -0.78C-79.62 -1.3 -80.8 -1.7 -81.96 -1.98L-81.66 -18.84L-81.66 -19.68C-81.66 -25.96 -83.46 -29.1 -87.06 -29.1C-88.74 -28.5 -90.62 -27.21 -92.7 -25.23C-94.78 -23.25 -96.46 -21.32 -97.74 -19.44L-97.98 -19.5C-97.98 -25.9 -99.78 -29.1 -103.38 -29.1C-105.06 -28.5 -106.94 -27.21 -109.02 -25.23C-111.1 -23.25 -112.78 -21.32 -114.06 -19.44L-114.3 -19.5C-114.3 -22.98 -114.08 -26.1 -113.64 -28.86L-114.06 -29.1C-116.9 -28.46 -119.6 -28.08 -122.16 -27.96L-122.16 -26.7C-120.96 -26.7 -119.88 -26.54 -118.92 -26.22C-118.64 -23.38 -118.5 -20.12 -118.5 -16.44L-118.5 -11.4C-118.5 -7.84 -118.68 -4.7 -119.04 -1.98C-120.2 -1.7 -121.38 -1.3 -122.58 -0.78L-122.4 0.36C-120.36 0.12 -118.34 0 -116.34 0C-114.34 0 -112.22 0.16 -109.98 0.48L-109.86 -0.66C-111.3 -1.18 -112.56 -1.56 -113.64 -1.8C-114.08 -5.32 -114.3 -9.98 -114.3 -15.78C-113.58 -17.46 -112.19 -19.28 -110.13 -21.24C-108.07 -23.2 -106.32 -24.18 -104.88 -24.18C-103.2 -24.18 -102.36 -21.82 -102.36 -17.1L-102.36 -16.14C-102.52 -8.98 -102.9 -3.84 -103.5 -0.72L-103.5 0.12C-102.38 0.04 -101.12 0 -99.72 0C-98.32 0 -96.5 0.16 -94.26 0.48L-94.14 -0.66C-95.54 -1.18 -96.92 -1.58 -98.28 -1.86L-98.04 -15.78C-97.32 -17.46 -95.92 -19.28 -93.84 -21.24C-91.76 -23.2 -90 -24.18 -88.56 -24.18C-86.88 -24.18 -86.04 -21.82 -86.04 -17.1L-86.04 -16.14C-86.2 -8.98 -86.58 -3.84 -87.18 -0.72L-87.18 0.12C-86.06 0.04 -84.83 0 -83.49 0C-82.15 0 -80.52 0.12 -78.6 0.36Z M-64.26 -2.61C-62.02 -0.27 -59.16 0.9 -55.68 0.9C-52.2 -0.46 -49.34 -2.82 -47.1 -6.18C-44.86 -9.54 -43.74 -13.12 -43.74 -16.92C-43.74 -20.72 -44.7 -23.7 -46.62 -25.86C-48.54 -28.02 -51.36 -29.1 -55.08 -29.1C-58.84 -28.14 -61.87 -25.97 -64.17 -22.59C-66.47 -19.21 -67.62 -15.62 -67.62 -11.82C-67.62 -8.02 -66.5 -4.95 -64.26 -2.61ZM-56.7 -25.38C-53.94 -25.38 -51.89 -24.23 -50.55 -21.93C-49.21 -19.63 -48.54 -16.73 -48.54 -13.23C-48.54 -9.73 -49.18 -6.76 -50.46 -4.32C-51.58 -3.32 -52.98 -2.82 -54.66 -2.82C-57.14 -2.82 -59.12 -4.07 -60.6 -6.57C-62.08 -9.07 -62.82 -11.96 -62.82 -15.24C-62.82 -18.52 -62.16 -21.42 -60.84 -23.94C-59.76 -24.9 -58.38 -25.38 -56.7 -25.38Z M-18.9 0.48L-18.78 -0.66C-20.14 -1.14 -21.82 -1.52 -23.82 -1.8C-24.26 -5.32 -24.48 -9.98 -24.48 -15.78C-23.88 -17.5 -22.91 -19.31 -21.57 -21.21C-20.23 -23.11 -18.96 -24.06 -17.76 -24.06C-16.92 -24.06 -16.24 -23.86 -15.72 -23.46C-15.64 -22.58 -15.6 -21.36 -15.6 -19.8L-14.28 -19.8C-14.08 -22.88 -13.22 -25.38 -11.7 -27.3L-11.7 -28.14C-13.42 -28.78 -15.18 -29.1 -16.98 -29.1C-18.26 -28.46 -19.65 -27.09 -21.15 -24.99C-22.65 -22.89 -23.68 -21.04 -24.24 -19.44L-24.48 -19.5C-24.48 -22.98 -24.26 -26.1 -23.82 -28.86L-24.24 -29.1C-27.08 -28.46 -29.78 -28.08 -32.34 -27.96L-32.34 -26.7C-31.14 -26.7 -30.06 -26.54 -29.1 -26.22C-28.82 -23.38 -28.68 -20.12 -28.68 -16.44L-28.68 -11.4C-28.68 -7.84 -28.86 -4.7 -29.22 -1.98C-30.38 -1.7 -31.56 -1.3 -32.76 -0.78L-32.58 0.36C-30.3 0.12 -27.96 0 -25.56 0C-23.16 0 -20.94 0.16 -18.9 0.48Z M16.92 -17.46C16.92 -16.98 16.9 -16.54 16.86 -16.14C16.7 -8.98 16.3 -3.84 15.66 -0.72L15.66 0.12C16.86 0.04 18.13 0 19.47 0C20.81 0 22.44 0.12 24.36 0.36L24.54 -0.78C23.34 -1.3 22.16 -1.7 21 -1.98L21.3 -18.84L21.3 -20.04C21.3 -22.32 21.06 -24.24 20.58 -25.8C19.86 -28 18.28 -29.1 15.84 -29.1C14.08 -28.5 12.11 -27.21 9.93 -25.23C7.75 -23.25 5.98 -21.32 4.62 -19.44L4.38 -19.5C4.38 -22.98 4.6 -26.1 5.04 -28.86L4.62 -29.1C1.78 -28.46 -0.92 -28.08 -3.48 -27.96L-3.48 -26.7C-2.28 -26.7 -1.2 -26.54 -0.24 -26.22C0.04 -23.38 0.18 -20.12 0.18 -16.44L0.18 -11.4C0.18 -7.84 0 -4.7 -0.36 -1.98C-1.52 -1.7 -2.7 -1.3 -3.9 -0.78L-3.72 0.36C-1.68 0.12 0.34 0 2.34 0C4.34 0 6.46 0.16 8.7 0.48L8.82 -0.66C7.38 -1.18 6.12 -1.56 5.04 -1.8C4.6 -5.32 4.38 -9.98 4.38 -15.78C5.1 -17.46 6.52 -19.28 8.64 -21.24C10.76 -23.2 12.6 -24.18 14.16 -24.18C16 -24.18 16.92 -21.94 16.92 -17.46Z M44.04 -16.44C44.04 -21.64 44.3 -25.78 44.82 -28.86L44.4 -29.1C41.8 -28.5 38.96 -28.1 35.88 -27.9L35.88 -26.64C37 -26.64 38.08 -26.48 39.12 -26.16C39.44 -22.92 39.6 -19.68 39.6 -16.44L39.6 -11.4C39.6 -7.84 39.42 -4.7 39.06 -1.98C37.9 -1.7 36.72 -1.3 35.52 -0.78L35.7 0.36C37.74 0.12 39.76 0 41.76 0C43.76 0 45.88 0.16 48.12 0.48L48.24 -0.66C46.84 -1.18 45.58 -1.56 44.46 -1.8C44.18 -3.88 44.04 -7.08 44.04 -11.4ZM45.12 -37.2C44.84 -37.64 44.36 -38.17 43.68 -38.79C43 -39.41 42.4 -39.88 41.88 -40.2C41.32 -39.92 40.7 -39.47 40.02 -38.85C39.34 -38.23 38.88 -37.68 38.64 -37.2C38.92 -36.68 39.41 -36.02 40.11 -35.22C40.81 -34.42 41.4 -33.86 41.88 -33.54C42.36 -33.86 42.95 -34.42 43.65 -35.22C44.35 -36.02 44.84 -36.68 45.12 -37.2Z M78.96 -17.46C78.96 -16.98 78.94 -16.54 78.9 -16.14C78.74 -8.98 78.34 -3.84 77.7 -0.72L77.7 0.12C78.9 0.04 80.17 0 81.51 0C82.85 0 84.48 0.12 86.4 0.36L86.58 -0.78C85.38 -1.3 84.2 -1.7 83.04 -1.98L83.34 -18.84L83.34 -20.04C83.34 -22.32 83.1 -24.24 82.62 -25.8C81.9 -28 80.32 -29.1 77.88 -29.1C76.12 -28.5 74.15 -27.21 71.97 -25.23C69.79 -23.25 68.02 -21.32 66.66 -19.44L66.42 -19.5C66.42 -22.98 66.64 -26.1 67.08 -28.86L66.66 -29.1C63.82 -28.46 61.12 -28.08 58.56 -27.96L58.56 -26.7C59.76 -26.7 60.84 -26.54 61.8 -26.22C62.08 -23.38 62.22 -20.12 62.22 -16.44L62.22 -11.4C62.22 -7.84 62.04 -4.7 61.68 -1.98C60.52 -1.7 59.34 -1.3 58.14 -0.78L58.32 0.36C60.36 0.12 62.38 0 64.38 0C66.38 0 68.5 0.16 70.74 0.48L70.86 -0.66C69.42 -1.18 68.16 -1.56 67.08 -1.8C66.64 -5.32 66.42 -9.98 66.42 -15.78C67.14 -17.46 68.56 -19.28 70.68 -21.24C72.8 -23.2 74.64 -24.18 76.2 -24.18C78.04 -24.18 78.96 -21.94 78.96 -17.46Z M97.86 -11.1C97.86 -8.82 98.4 -6.59 99.48 -4.41C100.56 -2.23 102.02 -0.88 103.86 -0.36L103.86 -0.12C100.14 3.88 97.9 7.22 97.14 9.9L97.14 11.04C100.54 12.28 104.1 12.9 107.82 12.9C110.22 12.14 112.64 10.69 115.08 8.55C117.52 6.41 119.18 4.24 120.06 2.04C119.78 -1 119.64 -5.25 119.64 -10.71C119.64 -16.17 119.9 -21.32 120.42 -26.16C121.54 -26.72 122.48 -27.3 123.24 -27.9L122.94 -28.98C121.62 -28.58 120.08 -28.2 118.32 -27.84C115.4 -28.68 112.6 -29.1 109.92 -29.1C106.2 -27.86 103.26 -25.57 101.1 -22.23C98.94 -18.89 97.86 -15.18 97.86 -11.1ZM102.66 -13.74C102.66 -17.62 103.26 -21.02 104.46 -23.94C105.54 -24.9 107.04 -25.38 108.96 -25.38C110.88 -25.38 112.9 -24.9 115.02 -23.94C115.3 -22.26 115.44 -18.8 115.44 -13.56C114.8 -12 113.51 -10.17 111.57 -8.07C109.63 -5.97 108.01 -4.92 106.71 -4.92C105.41 -4.92 104.41 -5.92 103.71 -7.92C103.01 -9.92 102.66 -11.86 102.66 -13.74ZM109.26 9.18C106.54 9.18 104.08 8.62 101.88 7.5C102.16 4.94 103.56 2.4 106.08 -0.12C107.12 -1.16 108.2 -2.16 109.32 -3.12C112.16 -5.6 114.12 -7.98 115.2 -10.26L115.44 -10.2C115.44 -5.12 115.33 -1.46 115.11 0.78C114.89 3.02 114.32 5.34 113.4 7.74C112.4 8.7 111.02 9.18 109.26 9.18Z"></path></g><g id="SvgjsG1101" class="text" transform="translate(122.06999816894532, 113.9799998474121) scale(1)" light-content="false" fill="#383838"><path d="M-80.64 -2.55C-78.12 -0.25 -74.74 0.9 -70.5 0.9C-66.54 -0.74 -63.23 -3.24 -60.57 -6.6C-57.91 -9.96 -56.58 -13.66 -56.58 -17.7C-56.58 -21.74 -57.69 -24.85 -59.91 -27.03C-62.13 -29.21 -65.44 -30.3 -69.84 -30.3C-73.88 -28.62 -77.32 -26.1 -80.16 -22.74C-83 -19.38 -84.42 -15.75 -84.42 -11.85C-84.42 -7.95 -83.16 -4.85 -80.64 -2.55ZM-71.1 -25.92C-69.26 -25.92 -68.02 -24.91 -67.38 -22.89C-66.74 -20.87 -66.42 -17.97 -66.42 -14.19C-66.42 -10.41 -66.78 -7 -67.5 -3.96C-68.02 -3.64 -68.82 -3.48 -69.9 -3.48C-71.74 -3.48 -72.98 -4.49 -73.62 -6.51C-74.26 -8.53 -74.58 -11.43 -74.58 -15.21C-74.58 -18.99 -74.22 -22.4 -73.5 -25.44C-72.82 -25.76 -72.02 -25.92 -71.1 -25.92Z M-34.62 -16.08L-34.62 -26.22C-32.54 -26.18 -30.2 -26.02 -27.6 -25.74C-27.48 -26.86 -27.2 -28.12 -26.76 -29.52L-27.06 -29.82L-34.62 -29.52C-34.54 -32.16 -34.2 -34.92 -33.6 -37.8C-32.04 -37.64 -30.69 -37.28 -29.55 -36.72C-28.41 -36.16 -27.14 -35.3 -25.74 -34.14L-25.14 -34.26C-24.5 -36.54 -23.24 -38.62 -21.36 -40.5L-21.36 -41.46C-23.88 -42.26 -26.78 -42.66 -30.06 -42.66C-32.94 -41.46 -35.62 -39.66 -38.1 -37.26C-40.58 -34.86 -42.34 -32.24 -43.38 -29.4C-45.74 -28.72 -47.18 -28.28 -47.7 -28.08C-47.82 -27.84 -47.88 -27.3 -47.88 -26.46L-47.76 -26.34L-43.74 -26.34L-43.8 -16.2C-43.84 -12.44 -44.13 -7.07 -44.67 -0.09C-45.21 6.89 -45.5 10.88 -45.54 11.88L-44.04 12C-43.36 8.16 -42.46 5.2 -41.34 3.12C-38.82 3.2 -36.24 3.36 -33.6 3.6C-34.28 -3.12 -34.62 -9.68 -34.62 -16.08Z M4.74 -19.32C4.74 -10.76 4.46 -5.08 3.9 -2.28C2.06 -1.64 0.82 -1.14 0.18 -0.78L0.36 0.42C2.4 0.14 5.21 0 8.79 0C12.37 0 15.52 0.18 18.24 0.54L18.42 -0.66C17.18 -1.22 15.86 -1.7 14.46 -2.1C14.1 -3.82 13.92 -7.98 13.92 -14.58C13.92 -21.18 14.34 -26.28 15.18 -29.88L14.76 -30.3C9.36 -29.7 2.16 -29.4 -6.84 -29.4C-6.76 -32.16 -6.42 -34.96 -5.82 -37.8C-1.98 -37.44 1.4 -35.64 4.32 -32.4L4.92 -32.34C6.2 -35.14 8.24 -37.36 11.04 -39L11.1 -39.72C7.46 -41.68 3 -42.66 -2.28 -42.66C-5.16 -41.46 -7.84 -39.66 -10.32 -37.26C-12.8 -34.86 -14.56 -32.24 -15.6 -29.4C-17.96 -28.72 -19.4 -28.28 -19.92 -28.08C-20.04 -27.84 -20.1 -27.3 -20.1 -26.46L-19.98 -26.34L-15.96 -26.34L-16.02 -16.2C-16.06 -12.44 -16.35 -7.07 -16.89 -0.09C-17.43 6.89 -17.72 10.88 -17.76 11.88L-16.26 12C-15.58 8.16 -14.68 5.2 -13.56 3.12C-11.04 3.2 -8.46 3.36 -5.82 3.6C-6.5 -3.12 -6.84 -9.68 -6.84 -16.08L-6.84 -26.22C-5.4 -26.18 -1.64 -25.86 4.44 -25.26C4.64 -23.06 4.74 -21.08 4.74 -19.32Z M31.08 -2.7C33.44 -0.3 36.6 0.9 40.56 0.9C44.64 -1.06 47.86 -4.48 50.22 -9.36L49.26 -9.84C48.58 -8.68 47.62 -7.69 46.38 -6.87C45.14 -6.05 43.92 -5.64 42.72 -5.64C39 -5.64 37.14 -8.7 37.14 -14.82C37.14 -18.02 37.5 -21.56 38.22 -25.44C40.7 -25.16 42.84 -24.16 44.64 -22.44C44.92 -21.44 45.12 -20.16 45.24 -18.6L46.68 -18.6C46.92 -20.56 47.35 -22.14 47.97 -23.34C48.59 -24.54 49.88 -26.02 51.84 -27.78L51.84 -28.74C48.8 -29.78 45.42 -30.3 41.7 -30.3C37.9 -28.7 34.59 -26.21 31.77 -22.83C28.95 -19.45 27.54 -15.85 27.54 -12.03C27.54 -8.21 28.72 -5.1 31.08 -2.7Z M74.76 -5.52C72.24 -5.52 70.51 -6.27 69.57 -7.77C68.63 -9.27 68.16 -11.5 68.16 -14.46C74.4 -15.82 80.08 -16.5 85.2 -16.5L86.04 -16.5L86.1 -17.82C85.18 -17.86 84.18 -18.14 83.1 -18.66C83.46 -20.1 83.64 -21.46 83.64 -22.74C83.64 -27.78 80 -30.3 72.72 -30.3C68.96 -28.74 65.66 -26.26 62.82 -22.86C59.98 -19.46 58.56 -15.81 58.56 -11.91C58.56 -8.01 59.81 -4.9 62.31 -2.58C64.81 -0.26 68.18 0.9 72.42 0.9C77.58 -1.46 81.4 -4.86 83.88 -9.3L83.1 -9.96C82.02 -8.64 80.74 -7.57 79.26 -6.75C77.78 -5.93 76.28 -5.52 74.76 -5.52ZM71.28 -25.92C72.48 -25.92 73.26 -25.38 73.62 -24.3C73.98 -23.22 74.16 -21.12 74.16 -18C72.16 -17.56 70.16 -16.92 68.16 -16.08C68.24 -19.32 68.58 -22.44 69.18 -25.44C69.82 -25.76 70.52 -25.92 71.28 -25.92Z"></path></g></g></svg>