<svg id="SvgjsSvg1113" width="100%" height="100%" xmlns="http://www.w3.org/2000/svg" version="1.1" xlink="http://www.w3.org/1999/xlink" xmlns:svgjs="http://svgjs.com/svgjs" preserveAspectRatio="xMidYMid meet" viewBox="0 0 300.0000305175781 64.68673706054688" overflow="visible"><defs id="SvgjsDefs1114"></defs><g id="SvgjsG1115" transform="scale(0.5642597852051084)" opacity="1"><g id="SvgjsG1116" class="RWDR5HZNcV" transform="translate(0, 0) scale(1)" light-content="false" fill="#2d93eb"><path d="M0 0 h 531.67 v 82.16 h -531.67 Z"></path></g><g id="SvgjsG1117" class="text" transform="translate(267.8399963378906, 58.599998474121094) scale(1)" light-content="true" fill="#ffffff"><path d="M-207.86 -41.34C-208.13 -41.38 -208.49 -41.42 -208.93 -41.47C-209.37 -41.52 -209.84 -41.57 -210.35 -41.62C-210.86 -41.67 -211.36 -41.7 -211.86 -41.73C-212.36 -41.76 -212.8 -41.79 -213.19 -41.81C-213.58 -40.89 -214.02 -39.71 -214.51 -38.28C-215 -36.84 -215.52 -35.21 -216.08 -33.4C-216.64 -31.58 -217.21 -29.61 -217.81 -27.48C-218.4 -25.35 -218.99 -23.14 -219.58 -20.86C-220.85 -18.71 -222.16 -16.77 -223.52 -15.04C-224.88 -13.32 -226.13 -11.85 -227.29 -10.63C-228.44 -9.42 -229.42 -8.51 -230.24 -7.88C-231.06 -7.26 -231.58 -6.97 -231.8 -7.03C-231.97 -7.07 -232.11 -7.32 -232.22 -7.78C-232.33 -8.24 -232.41 -8.82 -232.47 -9.54C-232.53 -10.25 -232.57 -11.05 -232.6 -11.94C-232.63 -12.83 -232.65 -13.73 -232.65 -14.65C-232.65 -15.57 -232.64 -16.46 -232.63 -17.33C-232.62 -18.2 -232.61 -18.96 -232.59 -19.63C-232.57 -21.21 -232.5 -22.83 -232.37 -24.48C-232.24 -26.13 -232.09 -27.73 -231.91 -29.28C-231.74 -30.83 -231.54 -32.3 -231.33 -33.69C-231.11 -35.08 -230.91 -36.31 -230.73 -37.38C-230.54 -38.46 -230.38 -39.34 -230.24 -40.02C-230.11 -40.7 -230.02 -41.12 -229.98 -41.28C-230.12 -41.44 -230.37 -41.72 -230.74 -42.13C-231.11 -42.54 -231.55 -43.01 -232.05 -43.54C-232.54 -44.06 -233.07 -44.61 -233.61 -45.19C-234.16 -45.77 -234.68 -46.3 -235.17 -46.8C-235.65 -47.3 -236.08 -47.71 -236.44 -48.05C-236.8 -48.38 -237.03 -48.56 -237.13 -48.6C-237.73 -44.01 -238.2 -39.84 -238.52 -36.08C-238.84 -32.32 -239.08 -28.9 -239.24 -25.81C-239.47 -26.04 -239.72 -26.28 -239.97 -26.51C-240.22 -26.75 -240.5 -26.99 -240.79 -27.25C-243.45 -20.82 -246.24 -15.33 -249.17 -10.77C-252.1 -6.21 -254.99 -2.68 -257.84 -0.18C-257.63 0.1 -257.37 0.39 -257.08 0.69C-256.79 0.99 -256.49 1.29 -256.19 1.6C-255.88 1.9 -255.59 2.19 -255.31 2.46C-255.02 2.73 -254.79 2.98 -254.59 3.19C-254.22 2.9 -253.7 2.42 -253.02 1.74C-252.35 1.07 -251.59 0.27 -250.74 -0.66C-249.89 -1.59 -248.97 -2.61 -248 -3.74C-247.02 -4.86 -246.03 -6.02 -245.02 -7.22C-244.02 -8.42 -243.03 -9.63 -242.05 -10.84C-241.07 -12.05 -240.17 -13.2 -239.33 -14.3C-239.23 -11.56 -239.07 -9.46 -238.84 -8C-238.62 -6.53 -238.41 -5.64 -238.21 -5.33C-238.02 -5.02 -237.68 -4.63 -237.2 -4.16C-236.72 -3.69 -236.2 -3.26 -235.62 -2.87C-235.04 -2.48 -234.46 -2.19 -233.88 -1.99C-233.29 -1.8 -232.79 -1.82 -232.38 -2.05C-231.39 -2.58 -230.31 -3.29 -229.16 -4.19C-228.16 -4.95 -227.03 -5.96 -225.75 -7.22C-224.47 -8.48 -223.12 -10.06 -221.72 -11.95C-222.19 -9.82 -222.62 -7.71 -223.02 -5.62C-223.42 -3.54 -223.77 -1.52 -224.08 0.42C-224.38 2.37 -224.62 4.22 -224.79 5.98C-224.97 7.73 -225.07 9.35 -225.09 10.81C-224.85 10.69 -224.51 10.52 -224.06 10.28C-223.61 10.05 -223.11 9.79 -222.55 9.49C-222 9.2 -221.42 8.9 -220.81 8.58C-220.21 8.27 -219.62 7.96 -219.07 7.66C-218.51 7.36 -218 7.08 -217.54 6.81C-217.08 6.55 -216.74 6.34 -216.5 6.18C-216.48 0.83 -216.24 -4.05 -215.77 -8.45C-215.3 -12.86 -214.68 -16.96 -213.9 -20.76C-213.12 -24.56 -212.21 -28.12 -211.17 -31.46C-210.14 -34.8 -209.03 -38.1 -207.86 -41.34Z M-171.56 -39.29C-171.72 -39.54 -171.96 -39.88 -172.28 -40.3C-172.6 -40.72 -172.99 -41.17 -173.44 -41.65C-173.89 -42.12 -174.39 -42.6 -174.95 -43.08C-175.5 -43.56 -176.08 -44 -176.69 -44.4C-177.29 -44.8 -177.92 -45.12 -178.55 -45.37C-179.18 -45.61 -179.81 -45.73 -180.44 -45.73C-181.4 -45.73 -182.44 -45.57 -183.57 -45.25C-184.71 -44.93 -185.85 -44.46 -187 -43.84C-188.15 -43.23 -189.27 -42.48 -190.34 -41.59C-191.42 -40.7 -192.37 -39.68 -193.21 -38.54C-194.05 -37.4 -194.72 -36.14 -195.22 -34.76C-195.72 -33.38 -195.97 -31.91 -195.97 -30.35C-195.97 -29.53 -195.89 -28.73 -195.73 -27.95C-195.58 -27.17 -195.39 -26.45 -195.16 -25.78C-194.94 -25.12 -194.69 -24.53 -194.41 -24.02C-194.14 -23.52 -193.89 -23.12 -193.65 -22.85C-193.11 -22.75 -192.49 -22.67 -191.81 -22.6C-191.12 -22.53 -190.43 -22.47 -189.73 -22.41C-189.02 -22.35 -188.35 -22.3 -187.71 -22.25C-187.06 -22.2 -186.5 -22.15 -186.04 -22.09C-186.07 -22.34 -186.27 -22.77 -186.64 -23.36C-187 -23.96 -187.36 -24.74 -187.72 -25.69C-188.08 -26.65 -188.36 -27.78 -188.55 -29.08C-188.75 -30.38 -188.7 -31.85 -188.41 -33.49C-188.21 -34.46 -187.85 -35.48 -187.32 -36.53C-186.8 -37.59 -186.1 -38.55 -185.24 -39.43C-184.38 -40.31 -183.36 -41.04 -182.18 -41.62C-181 -42.19 -179.66 -42.48 -178.15 -42.48C-177.82 -42.48 -177.5 -42.42 -177.17 -42.29C-176.85 -42.16 -176.56 -41.95 -176.31 -41.65C-176.05 -41.34 -175.85 -40.95 -175.69 -40.47C-175.54 -40 -175.46 -39.4 -175.46 -38.7C-175.46 -36.38 -175.73 -34.05 -176.26 -31.71C-176.8 -29.38 -177.54 -27.1 -178.48 -24.87C-179.41 -22.65 -180.5 -20.5 -181.74 -18.44C-182.98 -16.38 -184.31 -14.45 -185.71 -12.66C-187.12 -10.86 -188.57 -9.22 -190.08 -7.73C-191.58 -6.25 -193.05 -4.98 -194.49 -3.93C-195.92 -2.87 -197.29 -2.05 -198.6 -1.46C-199.91 -0.88 -201.07 -0.59 -202.09 -0.59C-202.25 -0.59 -202.42 -0.65 -202.62 -0.78C-202.81 -0.9 -203 -1.07 -203.17 -1.29C-203.35 -1.5 -203.5 -1.75 -203.61 -2.04C-203.73 -2.32 -203.79 -2.62 -203.79 -2.93C-203.79 -3.4 -203.68 -4.05 -203.45 -4.89C-203.23 -5.73 -202.91 -6.69 -202.5 -7.76C-202.09 -8.84 -201.59 -10 -201.01 -11.25C-200.42 -12.5 -199.77 -13.76 -199.06 -15.04C-198.34 -16.32 -197.57 -17.59 -196.73 -18.84C-195.89 -20.09 -195 -21.25 -194.06 -22.32C-194.16 -22.5 -194.34 -22.76 -194.59 -23.1C-194.84 -23.44 -195.15 -23.83 -195.51 -24.26C-195.87 -24.69 -196.26 -25.14 -196.67 -25.62C-197.08 -26.1 -197.47 -26.55 -197.84 -26.98C-198.21 -27.41 -198.55 -27.8 -198.87 -28.14C-199.18 -28.48 -199.41 -28.74 -199.57 -28.92C-201.41 -26.61 -202.92 -24.42 -204.1 -22.34C-205.28 -20.26 -206.21 -18.3 -206.89 -16.46C-207.58 -14.63 -208.05 -12.92 -208.32 -11.32C-208.58 -9.73 -208.71 -8.26 -208.71 -6.91C-208.71 -6.04 -208.67 -5.29 -208.59 -4.67C-208.52 -4.06 -208.42 -3.54 -208.3 -3.12C-208.18 -2.7 -208.06 -2.35 -207.92 -2.08L-207.57 -1.38C-207.47 -1.18 -207.29 -0.89 -207.04 -0.5C-206.79 -0.11 -206.47 0.33 -206.09 0.81C-205.71 1.28 -205.28 1.77 -204.8 2.26C-204.32 2.74 -203.81 3.19 -203.28 3.6C-202.74 4.01 -202.19 4.35 -201.64 4.6C-201.08 4.85 -200.54 4.98 -200.01 4.98C-198.68 4.98 -197.24 4.7 -195.67 4.13C-194.11 3.56 -192.5 2.76 -190.85 1.73C-189.2 0.69 -187.55 -0.55 -185.89 -2.01C-184.23 -3.46 -182.63 -5.08 -181.1 -6.87C-179.57 -8.66 -178.13 -10.58 -176.81 -12.64C-175.48 -14.7 -174.33 -16.86 -173.35 -19.1C-172.37 -21.35 -171.6 -23.66 -171.04 -26.04C-170.47 -28.43 -170.19 -30.83 -170.19 -33.25C-170.19 -34.4 -170.23 -35.32 -170.33 -36.01C-170.43 -36.69 -170.55 -37.24 -170.68 -37.65C-170.82 -38.06 -170.97 -38.37 -171.12 -38.6C-171.28 -38.82 -171.43 -39.05 -171.56 -39.29Z M-127.27 -36.12C-127.29 -36.53 -127.41 -37 -127.63 -37.51C-127.86 -38.03 -128.15 -38.56 -128.51 -39.1C-128.87 -39.63 -129.29 -40.16 -129.76 -40.68C-130.22 -41.2 -130.71 -41.65 -131.21 -42.06C-131.7 -42.46 -132.21 -42.78 -132.71 -43.02C-133.22 -43.27 -133.69 -43.39 -134.12 -43.39C-135.92 -43.39 -137.77 -43.03 -139.67 -42.32C-141.58 -41.61 -143.52 -40.62 -145.49 -39.35C-145.39 -39.74 -145.31 -40.1 -145.25 -40.44C-145.2 -40.79 -145.15 -41.12 -145.11 -41.46C-145.36 -41.87 -145.7 -42.33 -146.13 -42.86C-146.56 -43.39 -147.06 -43.92 -147.63 -44.44C-148.19 -44.97 -148.83 -45.48 -149.53 -45.97C-150.23 -46.45 -150.98 -46.86 -151.76 -47.17C-151.87 -45.12 -152.26 -42.71 -152.9 -39.93C-153.54 -37.16 -154.37 -34.22 -155.36 -31.11C-156.92 -29.53 -158.44 -27.87 -159.92 -26.13C-161.39 -24.39 -162.8 -22.63 -164.14 -20.84C-165.47 -19.06 -166.72 -17.26 -167.89 -15.45C-169.05 -13.65 -170.1 -11.89 -171.05 -10.18C-172 -8.47 -172.82 -6.84 -173.53 -5.27C-174.23 -3.71 -174.78 -2.28 -175.17 -0.97C-175.26 -0.58 -175.31 -0.18 -175.3 0.22C-175.29 0.62 -175.21 0.97 -175.05 1.26C-174.99 1.36 -174.87 1.55 -174.68 1.85C-174.5 2.14 -174.26 2.47 -173.98 2.84C-173.7 3.21 -173.39 3.6 -173.06 4.01C-172.72 4.42 -172.39 4.79 -172.06 5.13C-171.73 5.46 -171.4 5.73 -171.08 5.95C-170.76 6.16 -170.48 6.26 -170.24 6.24C-169.62 6.18 -169.1 6.08 -168.68 5.95C-168.26 5.81 -167.9 5.66 -167.61 5.51C-166.46 4.88 -165.26 3.85 -164.02 2.42C-162.78 0.98 -161.54 -0.72 -160.3 -2.68C-159.06 -4.64 -157.84 -6.81 -156.64 -9.17C-155.43 -11.53 -154.29 -13.97 -153.19 -16.48C-152.1 -18.99 -151.08 -21.51 -150.15 -24.04C-149.21 -26.57 -148.38 -28.96 -147.66 -31.23C-146.31 -32.42 -144.98 -33.54 -143.66 -34.57C-142.34 -35.61 -141.07 -36.52 -139.85 -37.31C-138.63 -38.1 -137.47 -38.76 -136.36 -39.29C-135.26 -39.81 -134.25 -40.18 -133.33 -40.37C-132.8 -40.45 -132.38 -40.46 -132.06 -40.42C-131.73 -40.37 -131.48 -40.25 -131.31 -40.08C-131.13 -39.9 -131.02 -39.67 -130.96 -39.39C-130.9 -39.11 -130.87 -38.78 -130.87 -38.41C-130.87 -37.45 -131.02 -36.4 -131.32 -35.26C-131.63 -34.12 -132.1 -32.93 -132.76 -31.7C-133.41 -30.47 -134.26 -29.22 -135.29 -27.95C-136.33 -26.68 -137.59 -25.44 -139.07 -24.24C-140.56 -23.04 -142.28 -21.9 -144.24 -20.83C-146.21 -19.76 -148.43 -18.79 -150.91 -17.93C-150.62 -16.05 -150.28 -14.17 -149.9 -12.29C-149.52 -10.41 -149.12 -8.58 -148.7 -6.81C-148.28 -5.04 -147.85 -3.36 -147.42 -1.77C-146.99 -0.18 -146.59 1.25 -146.22 2.53C-145.85 3.81 -145.52 4.91 -145.22 5.83C-144.93 6.75 -144.71 7.42 -144.55 7.85C-144 7.71 -143.36 7.53 -142.63 7.31C-141.9 7.08 -141.15 6.85 -140.39 6.61C-139.63 6.36 -138.89 6.12 -138.16 5.89C-137.44 5.65 -136.82 5.45 -136.29 5.27C-136.89 4.24 -137.57 3.06 -138.33 1.74C-139.08 0.42 -139.87 -1.01 -140.7 -2.56C-141.53 -4.12 -142.37 -5.77 -143.22 -7.53C-144.07 -9.29 -144.89 -11.13 -145.69 -13.07C-142.47 -14.43 -139.7 -16.04 -137.37 -17.87C-135.05 -19.71 -133.14 -21.64 -131.65 -23.67C-130.15 -25.7 -129.05 -27.79 -128.33 -29.93C-127.62 -32.07 -127.27 -34.13 -127.27 -36.12ZM-170.42 0.23C-170.62 0.23 -170.71 0.12 -170.71 -0.12C-170.71 -1.07 -170.44 -2.23 -169.89 -3.59C-169.35 -4.95 -168.59 -6.43 -167.62 -8.04C-166.66 -9.65 -165.51 -11.36 -164.19 -13.15C-162.88 -14.95 -161.45 -16.77 -159.9 -18.6C-160.94 -16.04 -161.98 -13.62 -163.04 -11.34C-164.09 -9.05 -165.09 -7.05 -166.04 -5.33C-166.99 -3.61 -167.84 -2.26 -168.6 -1.26C-169.37 -0.26 -169.97 0.23 -170.42 0.23Z M-89.97 -35.83L-89.97 -36.83C-90.67 -37.84 -91.44 -38.85 -92.26 -39.84C-92.96 -40.7 -93.77 -41.61 -94.69 -42.57C-95.61 -43.53 -96.57 -44.39 -97.59 -45.18L-97.59 -43.15C-97.59 -39.66 -97.71 -36.16 -97.94 -32.65C-98.17 -29.15 -98.68 -25.59 -99.46 -21.97C-100.24 -18.36 -101.36 -14.67 -102.82 -10.9C-104.27 -7.13 -106.22 -3.23 -108.66 0.79C-108.96 -0.01 -109.22 -0.92 -109.45 -1.93C-109.69 -2.95 -109.89 -4.01 -110.05 -5.11C-110.22 -6.22 -110.36 -7.34 -110.46 -8.48C-110.57 -9.62 -110.66 -10.73 -110.74 -11.81C-110.92 -14.31 -111.02 -16.89 -111.04 -19.57C-111.04 -22.44 -110.94 -25 -110.74 -27.25C-110.55 -29.49 -110.31 -31.49 -110.02 -33.24C-109.74 -34.99 -109.44 -36.51 -109.12 -37.81C-108.79 -39.11 -108.51 -40.24 -108.25 -41.22C-108.39 -41.4 -108.64 -41.67 -109 -42.04C-109.36 -42.41 -109.78 -42.83 -110.26 -43.3C-110.74 -43.77 -111.25 -44.26 -111.78 -44.78C-112.32 -45.3 -112.83 -45.79 -113.32 -46.26C-113.81 -46.73 -114.25 -47.15 -114.64 -47.53C-115.03 -47.92 -115.32 -48.19 -115.52 -48.37C-115.58 -48.06 -115.65 -47.64 -115.74 -47.12C-115.83 -46.61 -115.93 -45.94 -116.04 -45.12C-116.16 -44.3 -116.28 -43.3 -116.41 -42.13C-116.54 -40.96 -116.67 -39.56 -116.81 -37.92C-116.94 -36.29 -117.07 -34.41 -117.17 -32.29C-117.28 -30.16 -117.37 -27.72 -117.45 -24.99C-117.72 -25.26 -118.01 -25.54 -118.3 -25.81C-118.59 -26.08 -118.91 -26.36 -119.24 -26.63C-121.89 -20.21 -124.69 -14.72 -127.62 -10.17C-130.55 -5.62 -133.44 -2.09 -136.29 0.41C-136.07 0.68 -135.83 0.98 -135.54 1.29C-135.26 1.6 -134.97 1.91 -134.66 2.21C-134.36 2.51 -134.07 2.8 -133.78 3.08C-133.5 3.35 -133.25 3.58 -133.04 3.78C-132.65 3.47 -132.1 2.95 -131.4 2.24C-130.69 1.53 -129.89 0.68 -128.99 -0.29C-128.1 -1.27 -127.13 -2.35 -126.11 -3.53C-125.08 -4.71 -124.05 -5.92 -123.02 -7.16C-121.98 -8.4 -120.97 -9.65 -119.97 -10.9C-118.97 -12.15 -118.06 -13.32 -117.22 -14.41C-116.94 -11.37 -116.52 -8.74 -115.96 -6.53C-115.39 -4.33 -114.8 -2.49 -114.2 -1.01C-113.59 0.46 -113.02 1.6 -112.49 2.4C-111.95 3.2 -111.56 3.7 -111.33 3.9C-110.96 4.23 -110.51 4.47 -109.98 4.63C-109.45 4.79 -108.94 4.86 -108.43 4.86C-107.82 4.86 -107.27 4.75 -106.76 4.51C-106.45 4.36 -105.9 3.85 -105.12 2.99C-104.34 2.13 -103.42 0.92 -102.38 -0.64C-101.33 -2.21 -100.21 -4.12 -99.01 -6.37C-97.81 -8.63 -96.63 -11.22 -95.48 -14.15C-94.42 -16.85 -93.54 -19.3 -92.83 -21.5C-92.11 -23.71 -91.55 -25.71 -91.13 -27.5C-90.71 -29.28 -90.41 -30.86 -90.23 -32.24C-90.06 -33.62 -89.97 -34.81 -89.97 -35.83Z M-56.25 -40.55C-56.37 -40.84 -56.6 -41.22 -56.94 -41.67C-57.28 -42.13 -57.67 -42.61 -58.11 -43.1C-58.55 -43.58 -58.99 -44.05 -59.44 -44.49C-59.89 -44.93 -60.28 -45.25 -60.62 -45.47C-60.95 -45.72 -61.45 -45.85 -62.11 -45.85C-63.32 -45.85 -64.65 -45.66 -66.11 -45.28C-67.56 -44.9 -69.03 -44.34 -70.52 -43.59C-72 -42.85 -73.44 -41.93 -74.84 -40.84C-76.24 -39.75 -77.48 -38.48 -78.56 -37.05C-79.64 -35.61 -80.51 -34.01 -81.17 -32.26C-81.82 -30.5 -82.15 -28.58 -82.15 -26.51C-82.15 -25.11 -82.02 -23.73 -81.75 -22.38C-81.49 -21.04 -81.13 -19.72 -80.67 -18.44C-80.21 -17.16 -79.67 -15.93 -79.04 -14.75C-78.42 -13.57 -77.73 -12.45 -76.99 -11.4C-78.32 -9.7 -79.62 -8.12 -80.89 -6.65C-82.16 -5.19 -83.35 -3.92 -84.48 -2.84C-85.6 -1.77 -86.62 -0.93 -87.54 -0.32C-88.46 0.28 -89.22 0.59 -89.82 0.59C-90.21 0.59 -90.48 0.41 -90.63 0.04C-90.78 -0.32 -90.85 -0.69 -90.85 -1.08C-90.85 -2.02 -90.74 -2.92 -90.53 -3.76C-90.31 -4.61 -90.02 -5.44 -89.66 -6.25C-89.3 -7.07 -88.87 -7.88 -88.36 -8.69C-87.85 -9.5 -87.3 -10.34 -86.72 -11.22C-87.19 -11.14 -87.77 -11.02 -88.48 -10.84C-89.18 -10.66 -89.89 -10.48 -90.6 -10.28C-91.31 -10.09 -91.97 -9.9 -92.56 -9.71C-93.16 -9.53 -93.57 -9.38 -93.81 -9.29C-94.37 -7.96 -94.77 -6.78 -94.98 -5.74C-95.2 -4.71 -95.3 -3.69 -95.3 -2.7C-95.3 -1.87 -95.22 -1.19 -95.07 -0.64C-94.91 -0.1 -94.71 0.36 -94.45 0.73C-94.22 1.06 -93.89 1.52 -93.47 2.09C-93.05 2.67 -92.57 3.24 -92.04 3.81C-91.5 4.37 -90.94 4.86 -90.35 5.27C-89.77 5.68 -89.2 5.89 -88.65 5.89C-87.97 5.89 -87.42 5.84 -87.01 5.76C-86.6 5.67 -86.26 5.57 -85.99 5.45C-83.74 4.49 -81.47 3.04 -79.17 1.08C-76.88 -0.87 -74.59 -3.18 -72.3 -5.86C-71.25 -4.84 -70.23 -3.98 -69.24 -3.28C-68.26 -2.58 -67.38 -2.06 -66.62 -1.73C-66.05 -2 -65.45 -2.38 -64.8 -2.87C-65.86 -3.55 -66.86 -4.34 -67.81 -5.21C-68.75 -6.09 -69.65 -7.04 -70.49 -8.06C-69.14 -9.76 -67.84 -11.52 -66.59 -13.34C-65.34 -15.17 -64.18 -17.01 -63.11 -18.87C-62.03 -20.72 -61.04 -22.56 -60.15 -24.37C-59.25 -26.19 -58.49 -27.94 -57.86 -29.63C-57.24 -31.32 -56.75 -32.92 -56.4 -34.41C-56.04 -35.9 -55.87 -37.26 -55.87 -38.47C-55.87 -38.95 -55.91 -39.37 -55.99 -39.71C-56.06 -40.05 -56.15 -40.33 -56.25 -40.55ZM-76.99 -23.35C-76.99 -25.54 -76.65 -27.53 -75.97 -29.33C-75.28 -31.12 -74.42 -32.72 -73.37 -34.13C-72.33 -35.54 -71.18 -36.75 -69.93 -37.78C-68.68 -38.8 -67.49 -39.65 -66.36 -40.33C-65.22 -41 -64.22 -41.5 -63.35 -41.82C-62.49 -42.14 -61.91 -42.3 -61.64 -42.3C-61.46 -42.3 -61.33 -42.28 -61.23 -42.22C-61.13 -42.16 -61.08 -42 -61.08 -41.75C-61.08 -40.81 -61.25 -39.71 -61.6 -38.45C-61.94 -37.19 -62.42 -35.83 -63.03 -34.35C-63.65 -32.88 -64.38 -31.32 -65.23 -29.68C-66.08 -28.04 -67.01 -26.37 -68.01 -24.67C-69.02 -22.97 -70.08 -21.26 -71.21 -19.56C-72.33 -17.85 -73.48 -16.18 -74.65 -14.56C-75.39 -16.1 -75.97 -17.63 -76.38 -19.13C-76.79 -20.63 -76.99 -22.04 -76.99 -23.35Z M-20.36 -35.83L-20.36 -36.83C-21.06 -37.84 -21.83 -38.85 -22.65 -39.84C-23.35 -40.7 -24.16 -41.61 -25.08 -42.57C-26 -43.53 -26.96 -44.39 -27.98 -45.18L-27.98 -43.15C-27.98 -39.66 -28.1 -36.16 -28.33 -32.65C-28.56 -29.15 -29.07 -25.59 -29.85 -21.97C-30.63 -18.36 -31.75 -14.67 -33.21 -10.9C-34.66 -7.13 -36.61 -3.23 -39.05 0.79C-39.35 -0.01 -39.61 -0.92 -39.84 -1.93C-40.08 -2.95 -40.28 -4.01 -40.44 -5.11C-40.61 -6.22 -40.75 -7.34 -40.85 -8.48C-40.96 -9.62 -41.05 -10.73 -41.13 -11.81C-41.31 -14.31 -41.41 -16.89 -41.43 -19.57C-41.43 -22.44 -41.33 -25 -41.13 -27.25C-40.94 -29.49 -40.7 -31.49 -40.42 -33.24C-40.13 -34.99 -39.83 -36.51 -39.51 -37.81C-39.18 -39.11 -38.9 -40.24 -38.64 -41.22C-38.78 -41.4 -39.03 -41.67 -39.39 -42.04C-39.75 -42.41 -40.17 -42.83 -40.65 -43.3C-41.13 -43.77 -41.64 -44.26 -42.17 -44.78C-42.71 -45.3 -43.22 -45.79 -43.71 -46.26C-44.2 -46.73 -44.64 -47.15 -45.03 -47.53C-45.42 -47.92 -45.71 -48.19 -45.91 -48.37C-45.97 -48.06 -46.04 -47.64 -46.13 -47.12C-46.22 -46.61 -46.32 -45.94 -46.44 -45.12C-46.55 -44.3 -46.67 -43.3 -46.8 -42.13C-46.93 -40.96 -47.06 -39.56 -47.2 -37.92C-47.33 -36.29 -47.46 -34.41 -47.56 -32.29C-47.67 -30.16 -47.76 -27.72 -47.84 -24.99C-48.12 -25.26 -48.4 -25.54 -48.69 -25.81C-48.98 -26.08 -49.3 -26.36 -49.63 -26.63C-52.29 -20.21 -55.08 -14.72 -58.01 -10.17C-60.94 -5.62 -63.83 -2.09 -66.68 0.41C-66.46 0.68 -66.22 0.98 -65.93 1.29C-65.65 1.6 -65.36 1.91 -65.05 2.21C-64.75 2.51 -64.46 2.8 -64.17 3.08C-63.89 3.35 -63.64 3.58 -63.43 3.78C-63.04 3.47 -62.49 2.95 -61.79 2.24C-61.08 1.53 -60.28 0.68 -59.38 -0.29C-58.49 -1.27 -57.52 -2.35 -56.5 -3.53C-55.47 -4.71 -54.44 -5.92 -53.41 -7.16C-52.37 -8.4 -51.36 -9.65 -50.36 -10.9C-49.37 -12.15 -48.45 -13.32 -47.61 -14.41C-47.33 -11.37 -46.91 -8.74 -46.35 -6.53C-45.78 -4.33 -45.2 -2.49 -44.59 -1.01C-43.98 0.46 -43.41 1.6 -42.88 2.4C-42.34 3.2 -41.95 3.7 -41.72 3.9C-41.35 4.23 -40.9 4.47 -40.37 4.63C-39.84 4.79 -39.33 4.86 -38.82 4.86C-38.21 4.86 -37.66 4.75 -37.15 4.51C-36.84 4.36 -36.29 3.85 -35.51 2.99C-34.73 2.13 -33.81 0.92 -32.77 -0.64C-31.72 -2.21 -30.6 -4.12 -29.4 -6.37C-28.2 -8.63 -27.02 -11.22 -25.87 -14.15C-24.81 -16.85 -23.93 -19.3 -23.22 -21.5C-22.5 -23.71 -21.94 -25.71 -21.52 -27.5C-21.1 -29.28 -20.8 -30.86 -20.62 -32.24C-20.45 -33.62 -20.36 -34.81 -20.36 -35.83Z M10.99 -15.73C10.3 -15.75 9.66 -15.77 9.05 -15.79C8.45 -15.81 7.84 -15.83 7.22 -15.86C6.61 -15.89 5.98 -15.92 5.35 -15.94C4.71 -15.96 4.02 -15.97 3.28 -15.97C2.95 -15.34 2.66 -14.73 2.4 -14.12C2.15 -13.52 1.85 -12.93 1.49 -12.36C1.12 -11.78 0.62 -11.06 -0.01 -10.22C-0.65 -9.38 -1.36 -8.51 -2.15 -7.6C-2.94 -6.69 -3.79 -5.8 -4.7 -4.91C-5.61 -4.02 -6.52 -3.22 -7.43 -2.5C-8.33 -1.79 -9.21 -1.22 -10.05 -0.78C-10.89 -0.34 -11.64 -0.12 -12.3 -0.12C-12.85 -0.12 -13.28 -0.38 -13.58 -0.91C-13.88 -1.44 -14.03 -2.31 -14.03 -3.54C-14.03 -4.87 -13.79 -6.45 -13.32 -8.26C-12.84 -10.08 -12.18 -12.02 -11.35 -14.09C-10.52 -16.16 -9.55 -18.3 -8.42 -20.49C-7.3 -22.69 -6.09 -24.83 -4.8 -26.92C-3.52 -29.01 -2.17 -30.99 -0.78 -32.86C0.62 -34.72 2.01 -36.35 3.38 -37.75C4.76 -39.15 6.1 -40.25 7.4 -41.07C8.7 -41.89 9.89 -42.3 10.99 -42.3C11.4 -42.3 11.71 -42.22 11.94 -42.04C12.16 -41.87 12.33 -41.65 12.44 -41.4C12.54 -41.14 12.61 -40.87 12.63 -40.58C12.65 -40.28 12.66 -40.02 12.66 -39.79C12.66 -38.38 12.39 -37 11.87 -35.64C11.34 -34.28 10.7 -33 9.96 -31.8C9.22 -30.6 8.44 -29.52 7.62 -28.56C6.8 -27.61 6.09 -26.83 5.51 -26.22L10.66 -21.42C11.7 -22.43 12.67 -23.58 13.56 -24.86C14.46 -26.14 15.24 -27.46 15.91 -28.83C16.57 -30.2 17.09 -31.57 17.48 -32.96C17.86 -34.35 18.05 -35.66 18.05 -36.91C18.05 -37.66 17.89 -38.4 17.56 -39.14C17.24 -39.88 16.88 -40.54 16.49 -41.1C16.16 -41.57 15.76 -42.08 15.28 -42.63C14.8 -43.17 14.27 -43.68 13.7 -44.14C13.12 -44.59 12.5 -44.98 11.85 -45.28C11.2 -45.58 10.53 -45.73 9.84 -45.73C8.03 -45.73 6.21 -45.37 4.39 -44.63C2.58 -43.9 0.79 -42.9 -0.97 -41.63C-2.72 -40.36 -4.42 -38.87 -6.05 -37.16C-7.68 -35.45 -9.21 -33.61 -10.63 -31.64C-12.06 -29.67 -13.37 -27.61 -14.56 -25.47C-15.75 -23.33 -16.77 -21.21 -17.61 -19.1C-18.45 -16.99 -19.1 -14.94 -19.57 -12.95C-20.04 -10.96 -20.27 -9.12 -20.27 -7.44C-20.27 -6.43 -20.1 -5.41 -19.76 -4.39C-19.42 -3.38 -18.97 -2.41 -18.41 -1.49C-17.86 -0.58 -17.22 0.28 -16.49 1.07C-15.77 1.86 -15.03 2.54 -14.27 3.12C-13.51 3.7 -12.75 4.15 -12 4.48C-11.25 4.81 -10.57 4.98 -9.96 4.98C-9.08 4.98 -8.2 4.77 -7.31 4.35C-6.42 3.93 -5.54 3.37 -4.67 2.67C-3.8 1.96 -2.95 1.16 -2.12 0.26C-1.29 -0.63 -0.51 -1.56 0.23 -2.52C-0.43 -1.17 -1.01 0.14 -1.51 1.41C-2.01 2.68 -2.46 3.96 -2.87 5.26C-3.28 6.56 -3.66 7.89 -4 9.26C-4.34 10.62 -4.69 12.06 -5.04 13.56C-4.79 13.56 -4.38 13.52 -3.84 13.43C-3.29 13.34 -2.69 13.23 -2.02 13.1C-1.36 12.96 -0.69 12.81 -0.01 12.66C0.66 12.5 1.26 12.34 1.79 12.19C2.12 10.18 2.56 8.11 3.11 5.98C3.65 3.85 4.25 1.77 4.89 -0.25C5.54 -2.27 6.19 -4.19 6.86 -6.01C7.52 -7.82 8.14 -9.42 8.72 -10.81C9.29 -12.2 9.79 -13.33 10.2 -14.21C10.61 -15.09 10.87 -15.6 10.99 -15.73Z M65.45 -39.29C65.29 -39.54 65.05 -39.88 64.73 -40.3C64.41 -40.72 64.02 -41.17 63.57 -41.65C63.12 -42.12 62.62 -42.6 62.07 -43.08C61.51 -43.56 60.93 -44 60.32 -44.4C59.72 -44.8 59.1 -45.12 58.46 -45.37C57.83 -45.61 57.2 -45.73 56.57 -45.73C55.62 -45.73 54.57 -45.57 53.44 -45.25C52.3 -44.93 51.16 -44.46 50.01 -43.84C48.86 -43.23 47.74 -42.48 46.67 -41.59C45.6 -40.7 44.64 -39.68 43.8 -38.54C42.96 -37.4 42.29 -36.14 41.79 -34.76C41.29 -33.38 41.04 -31.91 41.04 -30.35C41.04 -29.53 41.12 -28.73 41.28 -27.95C41.44 -27.17 41.63 -26.45 41.85 -25.78C42.08 -25.12 42.32 -24.53 42.6 -24.02C42.87 -23.52 43.13 -23.12 43.36 -22.85C43.91 -22.75 44.52 -22.67 45.21 -22.6C45.89 -22.53 46.58 -22.47 47.29 -22.41C47.99 -22.35 48.66 -22.3 49.31 -22.25C49.95 -22.2 50.51 -22.15 50.98 -22.09C50.94 -22.34 50.74 -22.77 50.38 -23.36C50.01 -23.96 49.65 -24.74 49.29 -25.69C48.93 -26.65 48.65 -27.78 48.46 -29.08C48.26 -30.38 48.31 -31.85 48.6 -33.49C48.8 -34.46 49.16 -35.48 49.69 -36.53C50.21 -37.59 50.91 -38.55 51.77 -39.43C52.63 -40.31 53.65 -41.04 54.83 -41.62C56.01 -42.19 57.35 -42.48 58.86 -42.48C59.19 -42.48 59.52 -42.42 59.84 -42.29C60.16 -42.16 60.45 -41.95 60.7 -41.65C60.96 -41.34 61.16 -40.95 61.32 -40.47C61.47 -40 61.55 -39.4 61.55 -38.7C61.55 -36.38 61.28 -34.05 60.75 -31.71C60.21 -29.38 59.47 -27.1 58.54 -24.87C57.6 -22.65 56.51 -20.5 55.27 -18.44C54.03 -16.38 52.71 -14.45 51.3 -12.66C49.89 -10.86 48.44 -9.22 46.93 -7.73C45.43 -6.25 43.96 -4.98 42.52 -3.93C41.09 -2.87 39.72 -2.05 38.41 -1.46C37.1 -0.88 35.94 -0.59 34.92 -0.59C34.77 -0.59 34.59 -0.65 34.39 -0.78C34.2 -0.9 34.01 -1.07 33.84 -1.29C33.66 -1.5 33.52 -1.75 33.4 -2.04C33.28 -2.32 33.22 -2.62 33.22 -2.93C33.22 -3.4 33.33 -4.05 33.56 -4.89C33.78 -5.73 34.1 -6.69 34.51 -7.76C34.92 -8.84 35.42 -10 36.01 -11.25C36.59 -12.5 37.24 -13.76 37.95 -15.04C38.67 -16.32 39.44 -17.59 40.28 -18.84C41.12 -20.09 42.01 -21.25 42.95 -22.32C42.85 -22.5 42.68 -22.76 42.42 -23.1C42.17 -23.44 41.86 -23.83 41.5 -24.26C41.14 -24.69 40.75 -25.14 40.34 -25.62C39.93 -26.1 39.54 -26.55 39.17 -26.98C38.8 -27.41 38.46 -27.8 38.14 -28.14C37.83 -28.48 37.6 -28.74 37.44 -28.92C35.61 -26.61 34.1 -24.42 32.92 -22.34C31.73 -20.26 30.8 -18.3 30.12 -16.46C29.43 -14.63 28.96 -12.92 28.7 -11.32C28.43 -9.73 28.3 -8.26 28.3 -6.91C28.3 -6.04 28.34 -5.29 28.42 -4.67C28.5 -4.06 28.59 -3.54 28.71 -3.12C28.83 -2.7 28.96 -2.35 29.09 -2.08L29.44 -1.38C29.54 -1.18 29.72 -0.89 29.97 -0.5C30.22 -0.11 30.54 0.33 30.92 0.81C31.3 1.28 31.73 1.77 32.21 2.26C32.69 2.74 33.2 3.19 33.74 3.6C34.27 4.01 34.82 4.35 35.38 4.6C35.93 4.85 36.47 4.98 37 4.98C38.33 4.98 39.78 4.7 41.34 4.13C42.9 3.56 44.51 2.76 46.16 1.73C47.81 0.69 49.46 -0.55 51.12 -2.01C52.78 -3.46 54.38 -5.08 55.91 -6.87C57.45 -8.66 58.88 -10.58 60.21 -12.64C61.53 -14.7 62.69 -16.86 63.66 -19.1C64.64 -21.35 65.41 -23.66 65.98 -26.04C66.54 -28.43 66.83 -30.83 66.83 -33.25C66.83 -34.4 66.78 -35.32 66.68 -36.01C66.58 -36.69 66.46 -37.24 66.33 -37.65C66.19 -38.06 66.04 -38.37 65.89 -38.6C65.73 -38.82 65.59 -39.05 65.45 -39.29Z M109.19 -18.66C109.15 -18.66 108.93 -18.57 108.52 -18.38C108.11 -18.2 107.49 -17.96 106.67 -17.67C105.85 -17.37 104.81 -17.04 103.56 -16.66C102.31 -16.27 100.81 -15.88 99.05 -15.47C100.34 -17.46 101.62 -19.4 102.88 -21.28C104.14 -23.17 105.33 -24.96 106.46 -26.65C107.6 -28.33 108.64 -29.9 109.6 -31.33C110.56 -32.77 111.39 -34.02 112.09 -35.08C112.79 -36.15 113.34 -37.01 113.75 -37.66C114.15 -38.32 114.35 -38.7 114.35 -38.82C114.33 -39.11 114.21 -39.49 113.99 -39.95C113.78 -40.41 113.5 -40.89 113.16 -41.4C112.82 -41.9 112.43 -42.41 112 -42.92C111.57 -43.43 111.14 -43.89 110.7 -44.3C110.26 -44.71 109.82 -45.04 109.38 -45.29C108.94 -45.55 108.55 -45.67 108.22 -45.67C107.07 -45.67 105.61 -45.48 103.84 -45.1C102.08 -44.72 100.15 -44.2 98.06 -43.54C95.97 -42.87 93.78 -42.08 91.49 -41.15C89.21 -40.22 86.96 -39.21 84.76 -38.12C82.55 -37.02 80.45 -35.86 78.46 -34.63C76.46 -33.4 74.71 -32.15 73.2 -30.88C71.68 -29.61 70.48 -28.33 69.59 -27.06C68.71 -25.78 68.26 -24.54 68.26 -23.35C68.26 -23.15 68.37 -22.85 68.6 -22.43C68.82 -22.01 69.11 -21.55 69.46 -21.05C69.81 -20.55 70.21 -20.03 70.63 -19.5C71.06 -18.96 71.48 -18.47 71.89 -18.02C72.3 -17.57 72.68 -17.2 73.02 -16.9C73.36 -16.61 73.62 -16.46 73.8 -16.44C73.86 -16.44 73.92 -16.43 73.99 -16.41C74.06 -16.39 74.15 -16.38 74.27 -16.38C75.34 -16.38 76.35 -16.41 77.3 -16.48C78.25 -16.55 79.1 -16.64 79.85 -16.74C80.6 -16.85 81.24 -16.97 81.77 -17.09C82.29 -17.22 82.68 -17.34 82.91 -17.46C82.91 -17.81 82.9 -18.27 82.87 -18.82C82.84 -19.38 82.81 -19.96 82.78 -20.57C82.75 -21.17 82.72 -21.77 82.69 -22.37C82.66 -22.96 82.64 -23.49 82.62 -23.94C82.05 -23.64 81.44 -23.33 80.77 -23.01C80.11 -22.69 79.42 -22.39 78.71 -22.12C77.99 -21.85 77.28 -21.62 76.57 -21.45C75.85 -21.27 75.19 -21.18 74.56 -21.18C74.27 -21.18 74.1 -21.24 74.05 -21.34C74 -21.45 73.97 -21.53 73.97 -21.59C73.97 -21.71 74.27 -22.12 74.85 -22.82C75.44 -23.53 76.35 -24.42 77.58 -25.5C78.81 -26.59 80.38 -27.8 82.28 -29.15C84.18 -30.5 86.45 -31.88 89.06 -33.3C91.68 -34.71 94.67 -36.11 98.03 -37.5C101.39 -38.89 105.15 -40.15 109.31 -41.28C109.54 -41.36 109.69 -41.34 109.76 -41.22C109.83 -41.1 109.86 -40.99 109.86 -40.87C109.86 -40.62 109.82 -40.45 109.75 -40.37C106.31 -36.25 102.92 -32.02 99.58 -27.69C96.24 -23.35 92.98 -18.71 89.79 -13.77C88.56 -13.59 87.27 -13.43 85.91 -13.27C84.56 -13.12 83.12 -12.97 81.59 -12.83C81.44 -12.79 81.22 -12.61 80.93 -12.29C80.65 -11.97 80.38 -11.6 80.11 -11.18C79.85 -10.76 79.62 -10.34 79.42 -9.93C79.23 -9.52 79.13 -9.21 79.13 -8.99C79.13 -8.84 79.19 -8.76 79.31 -8.76C79.38 -8.76 79.64 -8.77 80.07 -8.8C80.5 -8.83 81.05 -8.87 81.74 -8.91C82.42 -8.95 83.21 -9 84.11 -9.07C85.01 -9.14 85.97 -9.21 86.98 -9.29C85.03 -6.08 83.12 -2.75 81.25 0.72C79.39 4.18 77.54 7.88 75.7 11.81C76.02 11.71 76.56 11.58 77.34 11.43C78.12 11.27 78.97 11.1 79.88 10.93C80.79 10.75 81.66 10.57 82.5 10.39C83.34 10.2 83.97 10.02 84.4 9.84C84.99 8.5 85.69 7.04 86.5 5.48C87.31 3.92 88.19 2.29 89.15 0.6C90.11 -1.09 91.13 -2.83 92.21 -4.63C93.3 -6.43 94.41 -8.23 95.57 -10.05C96.54 -10.15 97.48 -10.25 98.38 -10.36C99.28 -10.46 100.11 -10.57 100.88 -10.66C101.66 -10.76 102.34 -10.86 102.95 -10.97C103.55 -11.08 104.05 -11.18 104.44 -11.28C105.21 -11.96 105.88 -12.69 106.48 -13.45C107.08 -14.21 107.58 -14.93 107.99 -15.62C108.4 -16.3 108.71 -16.9 108.93 -17.42C109.14 -17.93 109.25 -18.29 109.25 -18.49C109.25 -18.6 109.23 -18.66 109.19 -18.66Z M153.46 -18.66C153.42 -18.66 153.19 -18.57 152.78 -18.38C152.37 -18.2 151.76 -17.96 150.94 -17.67C150.12 -17.37 149.08 -17.04 147.83 -16.66C146.58 -16.27 145.08 -15.88 143.32 -15.47C144.61 -17.46 145.88 -19.4 147.14 -21.28C148.4 -23.17 149.6 -24.96 150.73 -26.65C151.87 -28.33 152.91 -29.9 153.87 -31.33C154.82 -32.77 155.65 -34.02 156.36 -35.08C157.06 -36.15 157.61 -37.01 158.01 -37.66C158.41 -38.32 158.61 -38.7 158.61 -38.82C158.59 -39.11 158.48 -39.49 158.26 -39.95C158.05 -40.41 157.77 -40.89 157.43 -41.4C157.08 -41.9 156.7 -42.41 156.27 -42.92C155.84 -43.43 155.41 -43.89 154.97 -44.3C154.53 -44.71 154.09 -45.04 153.65 -45.29C153.21 -45.55 152.82 -45.67 152.49 -45.67C151.34 -45.67 149.88 -45.48 148.11 -45.1C146.34 -44.72 144.41 -44.2 142.32 -43.54C140.23 -42.87 138.05 -42.08 135.76 -41.15C133.48 -40.22 131.23 -39.21 129.02 -38.12C126.82 -37.02 124.72 -35.86 122.72 -34.63C120.73 -33.4 118.98 -32.15 117.47 -30.88C115.95 -29.61 114.75 -28.33 113.86 -27.06C112.97 -25.78 112.53 -24.54 112.53 -23.35C112.53 -23.15 112.64 -22.85 112.87 -22.43C113.09 -22.01 113.38 -21.55 113.73 -21.05C114.08 -20.55 114.47 -20.03 114.9 -19.5C115.33 -18.96 115.75 -18.47 116.16 -18.02C116.57 -17.57 116.95 -17.2 117.29 -16.9C117.63 -16.61 117.89 -16.46 118.07 -16.44C118.13 -16.44 118.19 -16.43 118.26 -16.41C118.33 -16.39 118.42 -16.38 118.54 -16.38C119.61 -16.38 120.62 -16.41 121.57 -16.48C122.51 -16.55 123.36 -16.64 124.12 -16.74C124.87 -16.85 125.51 -16.97 126.04 -17.09C126.56 -17.22 126.94 -17.34 127.18 -17.46C127.18 -17.81 127.16 -18.27 127.13 -18.82C127.1 -19.38 127.08 -19.96 127.05 -20.57C127.02 -21.17 126.99 -21.77 126.96 -22.37C126.93 -22.96 126.9 -23.49 126.88 -23.94C126.32 -23.64 125.7 -23.33 125.04 -23.01C124.38 -22.69 123.69 -22.39 122.97 -22.12C122.26 -21.85 121.55 -21.62 120.83 -21.45C120.12 -21.27 119.45 -21.18 118.83 -21.18C118.54 -21.18 118.36 -21.24 118.32 -21.34C118.27 -21.45 118.24 -21.53 118.24 -21.59C118.24 -21.71 118.54 -22.12 119.12 -22.82C119.71 -23.53 120.62 -24.42 121.85 -25.5C123.08 -26.59 124.64 -27.8 126.55 -29.15C128.45 -30.5 130.71 -31.88 133.33 -33.3C135.95 -34.71 138.94 -36.11 142.29 -37.5C145.65 -38.89 149.41 -40.15 153.57 -41.28C153.81 -41.36 153.96 -41.34 154.03 -41.22C154.1 -41.1 154.13 -40.99 154.13 -40.87C154.13 -40.62 154.09 -40.45 154.01 -40.37C150.58 -36.25 147.19 -32.02 143.85 -27.69C140.51 -23.35 137.25 -18.71 134.06 -13.77C132.83 -13.59 131.54 -13.43 130.18 -13.27C128.82 -13.12 127.38 -12.97 125.86 -12.83C125.7 -12.79 125.48 -12.61 125.2 -12.29C124.92 -11.97 124.64 -11.6 124.38 -11.18C124.12 -10.76 123.89 -10.34 123.69 -9.93C123.5 -9.52 123.4 -9.21 123.4 -8.99C123.4 -8.84 123.46 -8.76 123.57 -8.76C123.65 -8.76 123.91 -8.77 124.34 -8.8C124.77 -8.83 125.32 -8.87 126.01 -8.91C126.69 -8.95 127.48 -9 128.38 -9.07C129.28 -9.14 130.23 -9.21 131.25 -9.29C129.3 -6.08 127.39 -2.75 125.52 0.72C123.66 4.18 121.81 7.88 119.97 11.81C120.28 11.71 120.83 11.58 121.61 11.43C122.39 11.27 123.24 11.1 124.15 10.93C125.05 10.75 125.93 10.57 126.77 10.39C127.61 10.2 128.24 10.02 128.67 9.84C129.26 8.5 129.96 7.04 130.77 5.48C131.58 3.92 132.46 2.29 133.42 0.6C134.38 -1.09 135.4 -2.83 136.48 -4.63C137.56 -6.43 138.68 -8.23 139.83 -10.05C140.81 -10.15 141.75 -10.25 142.65 -10.36C143.54 -10.46 144.38 -10.57 145.15 -10.66C145.92 -10.76 146.61 -10.86 147.22 -10.97C147.82 -11.08 148.32 -11.18 148.71 -11.28C149.47 -11.96 150.15 -12.69 150.75 -13.45C151.34 -14.21 151.85 -14.93 152.26 -15.62C152.67 -16.3 152.98 -16.9 153.19 -17.42C153.41 -17.93 153.52 -18.29 153.52 -18.49C153.52 -18.6 153.5 -18.66 153.46 -18.66Z M188.06 -40.55C187.94 -40.84 187.71 -41.22 187.37 -41.67C187.03 -42.13 186.64 -42.61 186.2 -43.1C185.76 -43.58 185.31 -44.05 184.86 -44.49C184.41 -44.93 184.02 -45.25 183.69 -45.47C183.36 -45.72 182.86 -45.85 182.2 -45.85C180.99 -45.85 179.65 -45.66 178.2 -45.28C176.74 -44.9 175.27 -44.34 173.79 -43.59C172.3 -42.85 170.86 -41.93 169.47 -40.84C168.07 -39.75 166.83 -38.48 165.75 -37.05C164.66 -35.61 163.79 -34.01 163.14 -32.26C162.49 -30.5 162.16 -28.58 162.16 -26.51C162.16 -25.11 162.29 -23.73 162.55 -22.38C162.82 -21.04 163.18 -19.72 163.64 -18.44C164.1 -17.16 164.64 -15.93 165.26 -14.75C165.89 -13.57 166.57 -12.45 167.31 -11.4C165.99 -9.7 164.69 -8.12 163.42 -6.65C162.15 -5.19 160.95 -3.92 159.83 -2.84C158.71 -1.77 157.69 -0.93 156.77 -0.32C155.85 0.28 155.09 0.59 154.48 0.59C154.09 0.59 153.82 0.41 153.68 0.04C153.53 -0.32 153.46 -0.69 153.46 -1.08C153.46 -2.02 153.56 -2.92 153.78 -3.76C153.99 -4.61 154.28 -5.44 154.64 -6.25C155 -7.07 155.44 -7.88 155.95 -8.69C156.46 -9.5 157 -10.34 157.59 -11.22C157.12 -11.14 156.53 -11.02 155.83 -10.84C155.13 -10.66 154.42 -10.48 153.71 -10.28C152.99 -10.09 152.34 -9.9 151.74 -9.71C151.15 -9.53 150.73 -9.38 150.5 -9.29C149.93 -7.96 149.54 -6.78 149.33 -5.74C149.11 -4.71 149 -3.69 149 -2.7C149 -1.87 149.08 -1.19 149.24 -0.64C149.39 -0.1 149.6 0.36 149.85 0.73C150.09 1.06 150.42 1.52 150.83 2.09C151.25 2.67 151.73 3.24 152.27 3.81C152.81 4.37 153.37 4.86 153.96 5.27C154.54 5.68 155.11 5.89 155.65 5.89C156.34 5.89 156.88 5.84 157.29 5.76C157.71 5.67 158.05 5.57 158.32 5.45C160.57 4.49 162.84 3.04 165.13 1.08C167.43 -0.87 169.72 -3.18 172 -5.86C173.06 -4.84 174.08 -3.98 175.06 -3.28C176.05 -2.58 176.92 -2.06 177.69 -1.73C178.25 -2 178.86 -2.38 179.5 -2.87C178.45 -3.55 177.45 -4.34 176.5 -5.21C175.55 -6.09 174.66 -7.04 173.82 -8.06C175.17 -9.76 176.46 -11.52 177.71 -13.34C178.96 -15.17 180.13 -17.01 181.2 -18.87C182.28 -20.72 183.26 -22.56 184.16 -24.37C185.06 -26.19 185.82 -27.94 186.45 -29.63C187.07 -31.32 187.56 -32.92 187.91 -34.41C188.26 -35.9 188.44 -37.26 188.44 -38.47C188.44 -38.95 188.4 -39.37 188.32 -39.71C188.24 -40.05 188.15 -40.33 188.06 -40.55ZM167.31 -23.35C167.31 -25.54 167.66 -27.53 168.34 -29.33C169.02 -31.12 169.89 -32.72 170.93 -34.13C171.98 -35.54 173.12 -36.75 174.38 -37.78C175.63 -38.8 176.82 -39.65 177.95 -40.33C179.08 -41 180.08 -41.5 180.95 -41.82C181.82 -42.14 182.39 -42.3 182.67 -42.3C182.84 -42.3 182.98 -42.28 183.08 -42.22C183.17 -42.16 183.22 -42 183.22 -41.75C183.22 -40.81 183.05 -39.71 182.71 -38.45C182.37 -37.19 181.89 -35.83 181.27 -34.35C180.66 -32.88 179.93 -31.32 179.08 -29.68C178.23 -28.04 177.3 -26.37 176.29 -24.67C175.29 -22.97 174.22 -21.26 173.1 -19.56C171.98 -17.85 170.83 -16.18 169.66 -14.56C168.92 -16.1 168.34 -17.63 167.93 -19.13C167.52 -20.63 167.31 -22.04 167.31 -23.35Z M207.86 -26.16L213.16 -21.06C214.41 -22.14 215.59 -23.36 216.69 -24.73C217.8 -26.09 218.75 -27.5 219.55 -28.93C220.35 -30.37 220.99 -31.79 221.46 -33.21C221.92 -34.62 222.16 -35.92 222.16 -37.09C222.16 -37.62 222.04 -38.2 221.79 -38.83C221.55 -39.47 221.22 -40.1 220.81 -40.74C220.4 -41.37 219.92 -41.99 219.38 -42.6C218.83 -43.2 218.26 -43.74 217.68 -44.19C217.09 -44.65 216.49 -45.02 215.89 -45.31C215.28 -45.59 214.71 -45.73 214.16 -45.73C212.23 -45.73 210.32 -45.36 208.43 -44.6C206.55 -43.85 204.72 -42.82 202.95 -41.51C201.19 -40.21 199.5 -38.67 197.89 -36.91C196.27 -35.16 194.78 -33.28 193.4 -31.29C192.03 -29.3 190.77 -27.24 189.64 -25.11C188.51 -22.98 187.54 -20.88 186.74 -18.82C185.94 -16.76 185.32 -14.79 184.89 -12.89C184.46 -11 184.25 -9.3 184.25 -7.79C184.25 -7.25 184.3 -6.51 184.39 -5.6C184.49 -4.68 184.83 -3.67 185.42 -2.58C185.91 -1.7 186.51 -0.82 187.24 0.07C187.96 0.96 188.74 1.77 189.58 2.5C190.42 3.24 191.27 3.83 192.13 4.29C192.99 4.75 193.8 4.98 194.56 4.98C195.62 4.98 196.7 4.75 197.81 4.29C198.93 3.83 200.03 3.24 201.12 2.5C202.22 1.77 203.28 0.95 204.32 0.03C205.35 -0.89 206.32 -1.8 207.23 -2.71C208.14 -3.62 208.96 -4.48 209.68 -5.3C210.4 -6.12 211 -6.8 211.46 -7.32C211.13 -7.68 210.64 -8.13 210 -8.69C209.36 -9.24 208.71 -9.79 208.07 -10.34C207.42 -10.89 206.86 -11.36 206.38 -11.75C205.9 -12.14 205.66 -12.34 205.66 -12.36C205.33 -11.91 204.85 -11.3 204.23 -10.53C203.6 -9.76 202.9 -8.92 202.12 -8.01C201.34 -7.1 200.5 -6.18 199.61 -5.24C198.73 -4.31 197.85 -3.46 196.98 -2.7C196.11 -1.93 195.29 -1.31 194.52 -0.83C193.75 -0.36 193.08 -0.12 192.51 -0.12C192.18 -0.12 191.88 -0.16 191.63 -0.23C191.38 -0.31 191.17 -0.46 191 -0.69C190.83 -0.91 190.71 -1.22 190.62 -1.6C190.53 -1.98 190.49 -2.46 190.49 -3.05C190.49 -4.61 190.74 -6.37 191.24 -8.33C191.73 -10.3 192.41 -12.35 193.26 -14.5C194.11 -16.65 195.1 -18.83 196.25 -21.04C197.39 -23.24 198.6 -25.39 199.89 -27.47C201.18 -29.55 202.51 -31.49 203.89 -33.31C205.27 -35.13 206.62 -36.71 207.93 -38.07C209.25 -39.43 210.51 -40.5 211.7 -41.29C212.89 -42.08 213.96 -42.48 214.89 -42.48C215.13 -42.48 215.35 -42.44 215.57 -42.36C215.78 -42.29 215.97 -42.14 216.14 -41.94C216.3 -41.73 216.44 -41.45 216.53 -41.07C216.63 -40.7 216.68 -40.21 216.68 -39.61C216.68 -38.81 216.54 -37.97 216.27 -37.1C216 -36.24 215.63 -35.37 215.17 -34.5C214.71 -33.63 214.18 -32.77 213.57 -31.92C212.97 -31.07 212.34 -30.28 211.68 -29.55C211.03 -28.81 210.38 -28.16 209.72 -27.58C209.07 -27.01 208.45 -26.53 207.86 -26.16Z M242.31 -28.51L247.35 -24.05C248.15 -24.74 248.95 -25.58 249.73 -26.59C250.51 -27.59 251.2 -28.67 251.81 -29.81C252.41 -30.95 252.9 -32.13 253.27 -33.34C253.64 -34.55 253.83 -35.71 253.83 -36.83C253.83 -37.47 253.6 -38.2 253.15 -39.01C252.71 -39.82 252.15 -40.62 251.48 -41.41C250.82 -42.2 250.1 -42.93 249.33 -43.59C248.56 -44.26 247.84 -44.77 247.18 -45.12C246.38 -45.53 244.97 -45.73 242.96 -45.73C241.75 -45.73 240.5 -45.54 239.21 -45.15C237.92 -44.76 236.66 -44.21 235.43 -43.52C234.2 -42.83 233.03 -42 231.93 -41.04C230.83 -40.09 229.86 -39.03 229.04 -37.88C228.22 -36.73 227.57 -35.5 227.08 -34.19C226.59 -32.88 226.35 -31.54 226.35 -30.18C226.35 -29.38 226.43 -28.65 226.58 -28.01C226.74 -27.36 226.95 -26.78 227.21 -26.26C227.48 -25.75 227.78 -25.28 228.12 -24.87C228.46 -24.46 228.81 -24.08 229.16 -23.73C227.23 -22.81 225.42 -21.73 223.73 -20.49C222.04 -19.25 220.56 -17.87 219.3 -16.33C218.04 -14.8 217.05 -13.12 216.33 -11.31C215.61 -9.49 215.24 -7.56 215.24 -5.51L215.24 -4.8C215.26 -4.18 215.43 -3.51 215.74 -2.78C216.05 -2.06 216.47 -1.34 216.99 -0.62C217.5 0.11 218.11 0.81 218.8 1.48C219.5 2.15 220.25 2.75 221.07 3.27C221.89 3.78 222.76 4.2 223.67 4.51C224.58 4.82 225.49 4.98 226.41 4.98C227.46 4.98 228.62 4.74 229.89 4.25C231.16 3.76 232.45 3.13 233.75 2.37C235.04 1.61 236.32 0.76 237.58 -0.19C238.84 -1.14 240 -2.07 241.07 -2.99C242.13 -3.91 243.05 -4.77 243.82 -5.57C244.59 -6.37 245.15 -6.99 245.48 -7.44C244.74 -8.05 243.94 -8.72 243.08 -9.45C242.22 -10.18 241.2 -11.02 240.03 -11.95C239.58 -11.39 238.97 -10.69 238.21 -9.87C237.45 -9.05 236.59 -8.19 235.62 -7.28C234.65 -6.37 233.62 -5.47 232.51 -4.57C231.41 -3.67 230.31 -2.86 229.22 -2.14C228.12 -1.42 227.07 -0.83 226.05 -0.38C225.04 0.07 224.12 0.29 223.3 0.29C222.68 0.29 222.22 0.06 221.92 -0.4C221.63 -0.85 221.48 -1.39 221.48 -1.99C221.48 -3.71 221.9 -5.5 222.73 -7.37C223.56 -9.23 224.72 -11.04 226.2 -12.8C227.69 -14.56 229.46 -16.2 231.52 -17.71C233.58 -19.22 235.84 -20.5 238.3 -21.53C237.48 -22.02 236.75 -22.49 236.12 -22.94C235.48 -23.39 234.94 -23.88 234.49 -24.42C234.04 -24.96 233.7 -25.57 233.47 -26.26C233.23 -26.96 233.12 -27.78 233.12 -28.74C233.12 -29.85 233.33 -30.96 233.75 -32.05C234.16 -33.14 234.72 -34.19 235.4 -35.19C236.08 -36.18 236.87 -37.1 237.76 -37.95C238.65 -38.8 239.56 -39.54 240.5 -40.15C241.44 -40.77 242.36 -41.25 243.28 -41.6C244.2 -41.95 245.04 -42.13 245.8 -42.13C246.7 -42.13 247.32 -41.88 247.66 -41.38C248 -40.88 248.17 -40.27 248.17 -39.55C248.17 -38.65 248.01 -37.69 247.68 -36.65C247.34 -35.62 246.9 -34.6 246.36 -33.6C245.81 -32.61 245.19 -31.66 244.48 -30.76C243.78 -29.86 243.06 -29.11 242.31 -28.51Z"></path></g><g id="SvgjsG1118" class="text" transform="translate(408.3283351692039, 110.5699998474121) scale(1)" light-content="false" fill="#121212"><path d="M-121.41 0L-112.57 0C-112.21 0 -112.03 -0.15 -112.03 -0.44L-112.03 -1.16C-112.03 -1.46 -112.21 -1.6 -112.57 -1.6L-120.02 -1.6L-120.02 -6.46L-113.45 -6.46C-113.09 -6.46 -112.91 -6.61 -112.91 -6.9L-112.91 -7.63C-112.91 -7.92 -113.09 -8.07 -113.45 -8.07L-120.02 -8.07L-120.02 -12.4L-112.86 -12.4C-112.5 -12.4 -112.32 -12.55 -112.32 -12.84L-112.32 -13.56C-112.32 -13.86 -112.5 -14 -112.86 -14L-121.41 -14C-121.73 -14 -121.89 -13.82 -121.89 -13.47L-121.89 -0.54C-121.89 -0.18 -121.73 0 -121.41 0Z M-110.55 -9.78L-107.34 -0.6C-107.21 -0.2 -107.03 0 -106.82 0L-105.53 0C-105.31 0 -105.14 -0.2 -105 -0.6L-101.8 -9.78C-101.69 -10.09 -101.77 -10.25 -102.06 -10.25L-103.12 -10.25C-103.33 -10.25 -103.48 -10.13 -103.56 -9.87L-105.63 -3.43C-105.8 -2.9 -105.92 -2.54 -105.98 -2.34C-106.04 -2.14 -106.1 -1.89 -106.15 -1.6L-106.19 -1.6C-106.24 -1.89 -106.3 -2.14 -106.36 -2.34C-106.42 -2.54 -106.54 -2.9 -106.71 -3.43L-108.78 -9.87C-108.86 -10.13 -109.01 -10.25 -109.22 -10.25L-110.28 -10.25C-110.57 -10.25 -110.66 -10.09 -110.55 -9.78Z M-100.69 -5.13C-100.69 -3.51 -100.31 -2.23 -99.54 -1.27C-98.76 -0.31 -97.57 0.17 -95.94 0.17C-94.69 0.17 -93.77 -0.04 -93.19 -0.46C-92.61 -0.88 -92.25 -1.18 -92.13 -1.37C-91.98 -1.6 -91.98 -1.77 -92.13 -1.9L-92.71 -2.4C-92.9 -2.57 -93.1 -2.52 -93.31 -2.25C-93.5 -2 -93.8 -1.75 -94.2 -1.49C-94.6 -1.24 -95.18 -1.11 -95.94 -1.11C-96.65 -1.11 -97.29 -1.36 -97.86 -1.85C-98.43 -2.34 -98.77 -3.22 -98.88 -4.47L-92.07 -4.47C-91.8 -4.47 -91.67 -4.62 -91.67 -4.91C-91.67 -6.83 -92.08 -8.23 -92.91 -9.11C-93.73 -9.98 -94.77 -10.42 -96.02 -10.42C-97.52 -10.42 -98.68 -9.94 -99.48 -8.98C-100.29 -8.03 -100.69 -6.74 -100.69 -5.13ZM-98.92 -5.74C-98.82 -7.02 -98.51 -7.91 -97.98 -8.41C-97.45 -8.92 -96.81 -9.17 -96.05 -9.17C-95.2 -9.17 -94.54 -8.83 -94.1 -8.14C-93.66 -7.45 -93.42 -6.65 -93.4 -5.74Z M-88.97 0L-88.13 0C-87.84 0 -87.7 -0.15 -87.7 -0.44L-87.7 -5.31C-87.7 -6.5 -87.45 -7.43 -86.95 -8.12C-86.46 -8.81 -85.83 -9.15 -85.07 -9.15C-84.87 -9.15 -84.65 -9.13 -84.42 -9.08C-84.29 -9.06 -84.2 -9.1 -84.17 -9.22L-83.95 -10.02C-83.91 -10.16 -83.96 -10.25 -84.11 -10.31C-84.28 -10.38 -84.57 -10.42 -84.99 -10.42C-85.62 -10.42 -86.15 -10.27 -86.57 -9.97C-87 -9.67 -87.36 -9.23 -87.68 -8.64L-87.71 -8.64L-87.71 -9.81C-87.71 -10.11 -87.86 -10.25 -88.15 -10.25L-88.97 -10.25C-89.27 -10.25 -89.41 -10.11 -89.41 -9.81L-89.41 -0.44C-89.41 -0.15 -89.27 0 -88.97 0Z M-83.08 -9.78L-79.55 0.01L-79.75 0.59C-79.92 1.08 -80.14 1.57 -80.43 2.07C-80.72 2.56 -81.09 2.8 -81.54 2.8C-81.79 2.8 -82.05 2.75 -82.31 2.64C-82.44 2.58 -82.53 2.62 -82.58 2.75L-82.83 3.54C-82.88 3.68 -82.83 3.78 -82.7 3.85C-82.4 4 -81.99 4.07 -81.48 4.07C-80.51 4.07 -79.79 3.73 -79.3 3.03C-78.81 2.34 -78.26 1.13 -77.64 -0.6L-74.35 -9.78C-74.23 -10.09 -74.32 -10.25 -74.61 -10.25L-75.67 -10.25C-75.88 -10.25 -76.03 -10.13 -76.11 -9.87L-78.18 -3.43C-78.33 -2.98 -78.45 -2.64 -78.52 -2.4C-78.6 -2.16 -78.66 -1.89 -78.71 -1.6L-78.73 -1.6C-78.78 -1.89 -78.87 -2.23 -78.99 -2.6C-79.11 -2.98 -79.2 -3.25 -79.26 -3.43L-81.31 -9.87C-81.39 -10.13 -81.53 -10.25 -81.75 -10.25L-82.81 -10.25C-83.11 -10.25 -83.19 -10.09 -83.08 -9.78Z M-73.19 -8.96L-72.04 -8.96L-72.04 -2.64C-72.04 -1.74 -71.86 -1.05 -71.5 -0.57C-71.14 -0.08 -70.62 0.17 -69.94 0.17C-69.45 0.17 -68.96 0.1 -68.48 -0.04C-67.99 -0.18 -67.62 -0.33 -67.36 -0.48C-67.23 -0.56 -67.19 -0.66 -67.25 -0.79L-67.57 -1.54C-67.63 -1.69 -67.72 -1.72 -67.84 -1.63C-67.96 -1.54 -68.17 -1.43 -68.48 -1.3C-68.79 -1.17 -69.06 -1.1 -69.28 -1.1C-69.56 -1.1 -69.81 -1.21 -70.01 -1.41C-70.22 -1.62 -70.32 -2.06 -70.32 -2.74L-70.32 -8.96L-68.24 -8.96C-67.95 -8.96 -67.8 -9.08 -67.8 -9.31L-67.8 -9.91C-67.8 -10.14 -67.95 -10.25 -68.24 -10.25L-70.32 -10.25L-70.32 -12.74C-70.32 -12.97 -70.42 -13.09 -70.62 -13.09L-70.96 -13.09C-71.04 -13.09 -71.14 -12.97 -71.26 -12.74L-71.94 -11.5C-72.01 -11.39 -72.04 -11.26 -72.04 -11.13L-72.04 -10.25L-73.19 -10.25C-73.49 -10.25 -73.63 -10.14 -73.63 -9.91L-73.63 -9.31C-73.63 -9.08 -73.49 -8.96 -73.19 -8.96Z M-64.86 0L-64.02 0C-63.73 0 -63.58 -0.15 -63.58 -0.44L-63.58 -5.8C-63.58 -7.02 -63.37 -7.89 -62.93 -8.39C-62.49 -8.9 -61.85 -9.15 -61.01 -9.15C-60.35 -9.15 -59.82 -8.98 -59.39 -8.64C-58.97 -8.3 -58.76 -7.49 -58.76 -6.21L-58.76 -0.44C-58.76 -0.15 -58.61 0 -58.32 0L-57.48 0C-57.19 0 -57.04 -0.15 -57.04 -0.44L-57.04 -6.68C-57.04 -7.84 -57.3 -8.75 -57.82 -9.42C-58.33 -10.09 -59.19 -10.42 -60.37 -10.42C-61.1 -10.42 -61.71 -10.31 -62.2 -10.08C-62.69 -9.85 -63.14 -9.5 -63.56 -9.03L-63.6 -9.03C-63.59 -9.23 -63.58 -9.42 -63.58 -9.62L-63.58 -13.97C-63.58 -14.27 -63.73 -14.41 -64.02 -14.41L-64.86 -14.41C-65.16 -14.41 -65.3 -14.27 -65.3 -13.97L-65.3 -0.44C-65.3 -0.15 -65.16 0 -64.86 0Z M-53.85 0L-53.01 0C-52.71 0 -52.57 -0.15 -52.57 -0.44L-52.57 -9.81C-52.57 -10.11 -52.71 -10.25 -53.01 -10.25L-53.85 -10.25C-54.14 -10.25 -54.29 -10.11 -54.29 -9.81L-54.29 -0.44C-54.29 -0.15 -54.14 0 -53.85 0ZM-53.85 -12.11L-53.01 -12.11C-52.71 -12.11 -52.57 -12.26 -52.57 -12.55L-52.57 -13.39C-52.57 -13.68 -52.71 -13.83 -53.01 -13.83L-53.85 -13.83C-54.14 -13.83 -54.29 -13.68 -54.29 -13.39L-54.29 -12.55C-54.29 -12.26 -54.14 -12.11 -53.85 -12.11Z M-49.36 0L-48.52 0C-48.22 0 -48.08 -0.15 -48.08 -0.44L-48.08 -5.8C-48.08 -7.02 -47.86 -7.89 -47.42 -8.39C-46.99 -8.9 -46.34 -9.15 -45.5 -9.15C-44.85 -9.15 -44.31 -8.98 -43.89 -8.64C-43.46 -8.3 -43.25 -7.49 -43.25 -6.21L-43.25 -0.44C-43.25 -0.15 -43.11 0 -42.81 0L-41.97 0C-41.68 0 -41.53 -0.15 -41.53 -0.44L-41.53 -6.68C-41.53 -7.84 -41.79 -8.75 -42.31 -9.42C-42.83 -10.09 -43.68 -10.42 -44.86 -10.42C-45.59 -10.42 -46.2 -10.31 -46.69 -10.08C-47.18 -9.85 -47.63 -9.5 -48.06 -9.03L-48.1 -9.03L-48.1 -9.81C-48.1 -10.11 -48.24 -10.25 -48.54 -10.25L-49.36 -10.25C-49.65 -10.25 -49.79 -10.11 -49.79 -9.81L-49.79 -0.44C-49.79 -0.15 -49.65 0 -49.36 0Z M-39.34 -5.13C-39.34 -3.73 -39 -2.5 -38.32 -1.43C-37.64 -0.37 -36.65 0.17 -35.35 0.17C-34.6 0.17 -34 0.04 -33.54 -0.22C-33.08 -0.49 -32.68 -0.84 -32.34 -1.29L-32.32 -1.29C-32.34 -1.09 -32.34 -0.9 -32.34 -0.69L-32.34 -0.11C-32.34 1.08 -32.55 1.86 -32.95 2.24C-33.36 2.61 -34.01 2.8 -34.89 2.8C-35.67 2.8 -36.22 2.74 -36.54 2.6C-36.86 2.47 -37.19 2.25 -37.54 1.93C-37.81 1.7 -38.01 1.65 -38.16 1.8L-38.7 2.32C-38.86 2.47 -38.85 2.66 -38.67 2.87C-38.43 3.16 -38.03 3.43 -37.46 3.69C-36.89 3.94 -36.04 4.07 -34.9 4.07C-33.2 4.07 -32.07 3.72 -31.49 3.01C-30.91 2.31 -30.62 1.33 -30.62 0.08L-30.62 -9.81C-30.62 -10.11 -30.77 -10.25 -31.06 -10.25L-31.88 -10.25C-32.12 -10.25 -32.25 -10.11 -32.27 -9.81L-32.32 -9.03L-32.34 -9.03C-32.7 -9.46 -33.11 -9.8 -33.55 -10.05C-34 -10.3 -34.6 -10.42 -35.35 -10.42C-36.65 -10.42 -37.64 -9.89 -38.32 -8.82C-39 -7.76 -39.34 -6.53 -39.34 -5.13ZM-37.52 -5.13C-37.52 -6.32 -37.31 -7.29 -36.9 -8.04C-36.49 -8.78 -35.78 -9.15 -34.79 -9.15C-34.09 -9.15 -33.51 -8.91 -33.04 -8.43C-32.58 -7.95 -32.34 -7.23 -32.34 -6.25L-32.34 -4C-32.34 -3.03 -32.58 -2.3 -33.04 -1.82C-33.51 -1.34 -34.09 -1.1 -34.79 -1.1C-35.78 -1.1 -36.49 -1.47 -36.9 -2.22C-37.31 -2.96 -37.52 -3.93 -37.52 -5.13Z M-21.75 -2.73C-21.75 -1.82 -21.46 -1.11 -20.88 -0.6C-20.31 -0.09 -19.49 0.17 -18.42 0.17C-17.81 0.17 -17.26 0.09 -16.77 -0.07C-16.28 -0.23 -15.78 -0.51 -15.26 -0.92L-15.24 -0.92L-15.24 -0.44C-15.24 -0.15 -15.12 0 -14.86 0L-13.98 0C-13.69 0 -13.54 -0.15 -13.54 -0.44L-13.54 -6.49C-13.54 -7.71 -13.83 -8.67 -14.41 -9.37C-14.99 -10.07 -15.96 -10.42 -17.32 -10.42C-17.83 -10.42 -18.32 -10.36 -18.8 -10.25C-19.29 -10.14 -19.69 -10 -20.02 -9.83C-20.35 -9.67 -20.68 -9.43 -21.03 -9.1C-21.27 -8.87 -21.32 -8.68 -21.17 -8.52L-20.66 -7.93C-20.51 -7.75 -20.34 -7.76 -20.17 -7.96C-19.93 -8.22 -19.69 -8.43 -19.43 -8.6C-19.17 -8.76 -18.89 -8.9 -18.57 -9C-18.26 -9.1 -17.85 -9.15 -17.32 -9.15C-16.5 -9.15 -15.96 -8.93 -15.68 -8.48C-15.4 -8.04 -15.26 -7.51 -15.26 -6.89L-15.26 -6.23C-17.42 -6.14 -19.04 -5.82 -20.12 -5.28C-21.21 -4.74 -21.75 -3.89 -21.75 -2.73ZM-19.97 -2.7C-19.97 -3.14 -19.79 -3.53 -19.44 -3.87C-19.09 -4.21 -18.64 -4.45 -18.08 -4.59C-17.52 -4.73 -16.58 -4.85 -15.26 -4.95L-15.26 -2.07C-15.74 -1.65 -16.2 -1.4 -16.65 -1.3C-17.1 -1.2 -17.57 -1.15 -18.08 -1.15C-18.4 -1.15 -18.71 -1.19 -19.01 -1.25C-19.31 -1.32 -19.55 -1.48 -19.72 -1.72C-19.89 -1.97 -19.97 -2.29 -19.97 -2.7Z M-10.33 0L-9.51 0C-9.28 0 -9.15 -0.15 -9.13 -0.44L-9.07 -1.22L-9.05 -1.22C-8.69 -0.79 -8.29 -0.45 -7.84 -0.21C-7.39 0.04 -6.79 0.17 -6.04 0.17C-4.74 0.17 -3.75 -0.37 -3.08 -1.43C-2.4 -2.5 -2.06 -3.73 -2.06 -5.13C-2.06 -6.53 -2.4 -7.76 -3.08 -8.82C-3.75 -9.89 -4.74 -10.42 -6.04 -10.42C-6.79 -10.42 -7.39 -10.3 -7.84 -10.05C-8.29 -9.8 -8.69 -9.46 -9.05 -9.03L-9.07 -9.03C-9.06 -9.23 -9.05 -9.43 -9.05 -9.63L-9.05 -13.97C-9.05 -14.27 -9.2 -14.41 -9.49 -14.41L-10.33 -14.41C-10.62 -14.41 -10.77 -14.27 -10.77 -13.97L-10.77 -0.44C-10.77 -0.15 -10.62 0 -10.33 0ZM-9.05 -4L-9.05 -6.25C-9.05 -7.23 -8.82 -7.95 -8.35 -8.43C-7.89 -8.91 -7.3 -9.15 -6.6 -9.15C-5.61 -9.15 -4.91 -8.78 -4.5 -8.04C-4.08 -7.29 -3.88 -6.32 -3.88 -5.13C-3.88 -3.93 -4.08 -2.96 -4.5 -2.22C-4.91 -1.47 -5.61 -1.1 -6.6 -1.1C-7.3 -1.1 -7.89 -1.34 -8.35 -1.82C-8.82 -2.3 -9.05 -3.03 -9.05 -4Z M-0.4 -5.13C-0.4 -3.6 0 -2.33 0.82 -1.33C1.63 -0.33 2.81 0.17 4.38 0.17C5.94 0.17 7.12 -0.33 7.93 -1.33C8.75 -2.33 9.15 -3.6 9.15 -5.13C9.15 -6.66 8.75 -7.92 7.93 -8.92C7.12 -9.92 5.94 -10.42 4.38 -10.42C2.81 -10.42 1.63 -9.92 0.82 -8.92C0 -7.92 -0.4 -6.66 -0.4 -5.13ZM1.42 -5.13C1.42 -6.49 1.69 -7.51 2.23 -8.16C2.77 -8.82 3.48 -9.15 4.38 -9.15C5.27 -9.15 5.98 -8.82 6.52 -8.16C7.06 -7.51 7.33 -6.49 7.33 -5.13C7.33 -3.76 7.06 -2.75 6.52 -2.09C5.98 -1.43 5.27 -1.1 4.38 -1.1C3.48 -1.1 2.77 -1.43 2.23 -2.09C1.69 -2.75 1.42 -3.76 1.42 -5.13Z M11.35 -3.57C11.35 -2.42 11.61 -1.5 12.14 -0.83C12.67 -0.17 13.5 0.17 14.64 0.17C15.34 0.17 15.94 0.05 16.43 -0.18C16.91 -0.4 17.37 -0.75 17.79 -1.22L17.83 -1.22L17.83 -0.44C17.83 -0.15 17.98 0 18.27 0L19.09 0C19.38 0 19.53 -0.15 19.53 -0.44L19.53 -9.81C19.53 -10.11 19.38 -10.25 19.09 -10.25L18.25 -10.25C17.96 -10.25 17.81 -10.11 17.81 -9.81L17.81 -4.45C17.81 -3.23 17.59 -2.36 17.16 -1.86C16.72 -1.36 16.09 -1.1 15.27 -1.1C14.65 -1.1 14.12 -1.27 13.7 -1.62C13.28 -1.96 13.07 -2.77 13.07 -4.04L13.07 -9.81C13.07 -10.11 12.92 -10.25 12.63 -10.25L11.79 -10.25C11.49 -10.25 11.35 -10.11 11.35 -9.81Z M21.81 -8.96L22.96 -8.96L22.96 -2.64C22.96 -1.74 23.14 -1.05 23.5 -0.57C23.86 -0.08 24.38 0.17 25.06 0.17C25.55 0.17 26.04 0.1 26.52 -0.04C27.01 -0.18 27.38 -0.33 27.64 -0.48C27.77 -0.56 27.81 -0.66 27.75 -0.79L27.43 -1.54C27.37 -1.69 27.28 -1.72 27.16 -1.63C27.04 -1.54 26.83 -1.43 26.52 -1.3C26.21 -1.17 25.94 -1.1 25.72 -1.1C25.44 -1.1 25.19 -1.21 24.99 -1.41C24.78 -1.62 24.68 -2.06 24.68 -2.74L24.68 -8.96L26.76 -8.96C27.05 -8.96 27.2 -9.08 27.2 -9.31L27.2 -9.91C27.2 -10.14 27.05 -10.25 26.76 -10.25L24.68 -10.25L24.68 -12.74C24.68 -12.97 24.58 -13.09 24.38 -13.09L24.04 -13.09C23.96 -13.09 23.86 -12.97 23.74 -12.74L23.06 -11.5C22.99 -11.39 22.96 -11.26 22.96 -11.13L22.96 -10.25L21.81 -10.25C21.51 -10.25 21.37 -10.14 21.37 -9.91L21.37 -9.31C21.37 -9.08 21.51 -8.96 21.81 -8.96Z M35.96 -0.96C36.16 -0.76 36.61 -0.53 37.3 -0.25C37.99 0.03 38.82 0.17 39.79 0.17C40.51 0.17 41.12 0.09 41.63 -0.07C42.14 -0.23 42.6 -0.55 43.01 -1.04C43.43 -1.52 43.63 -2.11 43.63 -2.8C43.63 -3.18 43.58 -3.52 43.49 -3.83C43.39 -4.14 43.21 -4.43 42.95 -4.7C42.7 -4.96 42.33 -5.21 41.86 -5.43C41.49 -5.6 41.08 -5.74 40.63 -5.86C40.18 -5.98 39.68 -6.11 39.13 -6.25C38.78 -6.34 38.51 -6.46 38.31 -6.61C38.12 -6.76 37.98 -6.93 37.91 -7.1C37.84 -7.28 37.8 -7.49 37.8 -7.71C37.8 -8.01 37.89 -8.27 38.08 -8.5C38.26 -8.72 38.5 -8.87 38.79 -8.96C39.08 -9.06 39.43 -9.1 39.84 -9.1C40.18 -9.1 40.56 -9.03 41.01 -8.88C41.45 -8.73 41.79 -8.57 42.03 -8.4C42.32 -8.2 42.53 -8.19 42.67 -8.38L43.11 -8.96C43.26 -9.16 43.23 -9.33 43.02 -9.48C42.66 -9.74 42.23 -9.96 41.74 -10.14C41.25 -10.33 40.6 -10.42 39.79 -10.42C39.25 -10.42 38.68 -10.34 38.11 -10.17C37.53 -10 37.04 -9.69 36.66 -9.24C36.28 -8.78 36.08 -8.24 36.08 -7.61C36.08 -6.99 36.2 -6.5 36.44 -6.15C36.68 -5.8 36.96 -5.52 37.28 -5.32C37.59 -5.11 37.93 -4.95 38.29 -4.84C38.82 -4.67 39.26 -4.55 39.58 -4.47C39.91 -4.39 40.24 -4.28 40.58 -4.16C40.78 -4.09 40.98 -3.99 41.2 -3.86C41.41 -3.74 41.56 -3.57 41.67 -3.36C41.77 -3.15 41.82 -2.93 41.82 -2.7C41.82 -2.29 41.71 -1.97 41.5 -1.73C41.29 -1.49 41.04 -1.32 40.76 -1.24C40.48 -1.15 40.16 -1.1 39.8 -1.1C39.2 -1.1 38.66 -1.19 38.19 -1.37C37.72 -1.54 37.29 -1.78 36.9 -2.07C36.62 -2.29 36.41 -2.29 36.27 -2.1L35.83 -1.48C35.71 -1.32 35.76 -1.15 35.96 -0.96Z M45.08 -8.96L46.23 -8.96L46.23 -2.64C46.23 -1.74 46.41 -1.05 46.77 -0.57C47.13 -0.08 47.65 0.17 48.33 0.17C48.82 0.17 49.31 0.1 49.79 -0.04C50.28 -0.18 50.65 -0.33 50.91 -0.48C51.04 -0.56 51.08 -0.66 51.03 -0.79L50.7 -1.54C50.64 -1.69 50.55 -1.72 50.43 -1.63C50.31 -1.54 50.1 -1.43 49.79 -1.3C49.48 -1.17 49.22 -1.1 48.99 -1.1C48.71 -1.1 48.46 -1.21 48.26 -1.41C48.05 -1.62 47.95 -2.06 47.95 -2.74L47.95 -8.96L50.03 -8.96C50.32 -8.96 50.47 -9.08 50.47 -9.31L50.47 -9.91C50.47 -10.14 50.32 -10.25 50.03 -10.25L47.95 -10.25L47.95 -12.74C47.95 -12.97 47.85 -13.09 47.66 -13.09L47.31 -13.09C47.24 -13.09 47.14 -12.97 47.01 -12.74L46.33 -11.5C46.26 -11.39 46.23 -11.26 46.23 -11.13L46.23 -10.25L45.08 -10.25C44.79 -10.25 44.64 -10.14 44.64 -9.91L44.64 -9.31C44.64 -9.08 44.79 -8.96 45.08 -8.96Z M52.41 -2.73C52.41 -1.82 52.7 -1.11 53.28 -0.6C53.85 -0.09 54.67 0.17 55.74 0.17C56.35 0.17 56.9 0.09 57.39 -0.07C57.88 -0.23 58.38 -0.51 58.9 -0.92L58.92 -0.92L58.92 -0.44C58.92 -0.15 59.04 0 59.3 0L60.18 0C60.47 0 60.62 -0.15 60.62 -0.44L60.62 -6.49C60.62 -7.71 60.33 -8.67 59.75 -9.37C59.17 -10.07 58.2 -10.42 56.84 -10.42C56.33 -10.42 55.84 -10.36 55.36 -10.25C54.87 -10.14 54.47 -10 54.14 -9.83C53.82 -9.67 53.48 -9.43 53.13 -9.1C52.89 -8.87 52.85 -8.68 52.99 -8.52L53.5 -7.93C53.65 -7.75 53.82 -7.76 53.99 -7.96C54.23 -8.22 54.47 -8.43 54.73 -8.6C54.99 -8.76 55.27 -8.9 55.59 -9C55.9 -9.1 56.32 -9.15 56.84 -9.15C57.66 -9.15 58.2 -8.93 58.48 -8.48C58.76 -8.04 58.9 -7.51 58.9 -6.89L58.9 -6.23C56.74 -6.14 55.12 -5.82 54.04 -5.28C52.95 -4.74 52.41 -3.89 52.41 -2.73ZM54.19 -2.7C54.19 -3.14 54.37 -3.53 54.72 -3.87C55.07 -4.21 55.52 -4.45 56.08 -4.59C56.64 -4.73 57.58 -4.85 58.9 -4.95L58.9 -2.07C58.42 -1.65 57.96 -1.4 57.51 -1.3C57.06 -1.2 56.59 -1.15 56.08 -1.15C55.76 -1.15 55.45 -1.19 55.15 -1.25C54.85 -1.32 54.61 -1.48 54.44 -1.72C54.27 -1.97 54.19 -2.29 54.19 -2.7Z M62.89 -8.96L64.04 -8.96L64.04 -2.64C64.04 -1.74 64.22 -1.05 64.58 -0.57C64.95 -0.08 65.47 0.17 66.14 0.17C66.63 0.17 67.12 0.1 67.61 -0.04C68.1 -0.18 68.47 -0.33 68.72 -0.48C68.85 -0.56 68.89 -0.66 68.84 -0.79L68.52 -1.54C68.45 -1.69 68.36 -1.72 68.24 -1.63C68.13 -1.54 67.91 -1.43 67.6 -1.3C67.29 -1.17 67.03 -1.1 66.81 -1.1C66.52 -1.1 66.27 -1.21 66.07 -1.41C65.86 -1.62 65.76 -2.06 65.76 -2.74L65.76 -8.96L67.84 -8.96C68.13 -8.96 68.28 -9.08 68.28 -9.31L68.28 -9.91C68.28 -10.14 68.13 -10.25 67.84 -10.25L65.76 -10.25L65.76 -12.74C65.76 -12.97 65.66 -13.09 65.47 -13.09L65.13 -13.09C65.05 -13.09 64.95 -12.97 64.82 -12.74L64.14 -11.5C64.08 -11.39 64.04 -11.26 64.04 -11.13L64.04 -10.25L62.89 -10.25C62.6 -10.25 62.45 -10.14 62.45 -9.91L62.45 -9.31C62.45 -9.08 62.6 -8.96 62.89 -8.96Z M71.22 0L72.06 0C72.35 0 72.5 -0.15 72.5 -0.44L72.5 -9.81C72.5 -10.11 72.35 -10.25 72.06 -10.25L71.22 -10.25C70.93 -10.25 70.78 -10.11 70.78 -9.81L70.78 -0.44C70.78 -0.15 70.93 0 71.22 0ZM71.22 -12.11L72.06 -12.11C72.35 -12.11 72.5 -12.26 72.5 -12.55L72.5 -13.39C72.5 -13.68 72.35 -13.83 72.06 -13.83L71.22 -13.83C70.93 -13.83 70.78 -13.68 70.78 -13.39L70.78 -12.55C70.78 -12.26 70.93 -12.11 71.22 -12.11Z M74.72 -5.13C74.72 -3.6 75.12 -2.33 75.93 -1.33C76.74 -0.33 77.93 0.17 79.49 0.17C81.05 0.17 82.24 -0.33 83.05 -1.33C83.86 -2.33 84.27 -3.6 84.27 -5.13C84.27 -6.66 83.86 -7.92 83.05 -8.92C82.24 -9.92 81.05 -10.42 79.49 -10.42C77.93 -10.42 76.74 -9.92 75.93 -8.92C75.12 -7.92 74.72 -6.66 74.72 -5.13ZM76.53 -5.13C76.53 -6.49 76.8 -7.51 77.34 -8.16C77.88 -8.82 78.6 -9.15 79.49 -9.15C80.38 -9.15 81.1 -8.82 81.64 -8.16C82.18 -7.51 82.45 -6.49 82.45 -5.13C82.45 -3.76 82.18 -2.75 81.64 -2.09C81.1 -1.43 80.38 -1.1 79.49 -1.1C78.6 -1.1 77.88 -1.43 77.34 -2.09C76.8 -2.75 76.53 -3.76 76.53 -5.13Z M86.92 0L87.76 0C88.06 0 88.2 -0.15 88.2 -0.44L88.2 -5.8C88.2 -7.02 88.42 -7.89 88.86 -8.39C89.29 -8.9 89.93 -9.15 90.78 -9.15C91.43 -9.15 91.97 -8.98 92.39 -8.64C92.82 -8.3 93.03 -7.49 93.03 -6.21L93.03 -0.44C93.03 -0.15 93.17 0 93.47 0L94.31 0C94.6 0 94.75 -0.15 94.75 -0.44L94.75 -6.68C94.75 -7.84 94.49 -8.75 93.97 -9.42C93.45 -10.09 92.6 -10.42 91.42 -10.42C90.69 -10.42 90.08 -10.31 89.59 -10.08C89.1 -9.85 88.65 -9.5 88.22 -9.03L88.18 -9.03L88.18 -9.81C88.18 -10.11 88.04 -10.25 87.74 -10.25L86.92 -10.25C86.63 -10.25 86.48 -10.11 86.48 -9.81L86.48 -0.44C86.48 -0.15 86.63 0 86.92 0Z M96.94 -5.13C96.94 -3.51 97.33 -2.23 98.1 -1.27C98.87 -0.31 100.07 0.17 101.7 0.17C102.95 0.17 103.87 -0.04 104.45 -0.46C105.03 -0.88 105.38 -1.18 105.51 -1.37C105.66 -1.6 105.66 -1.77 105.51 -1.9L104.93 -2.4C104.74 -2.57 104.53 -2.52 104.33 -2.25C104.14 -2 103.84 -1.75 103.44 -1.49C103.03 -1.24 102.45 -1.11 101.7 -1.11C100.98 -1.11 100.34 -1.36 99.78 -1.85C99.21 -2.34 98.87 -3.22 98.76 -4.47L105.57 -4.47C105.83 -4.47 105.97 -4.62 105.97 -4.91C105.97 -6.83 105.56 -8.23 104.73 -9.11C103.91 -9.98 102.87 -10.42 101.62 -10.42C100.12 -10.42 98.96 -9.94 98.15 -8.98C97.35 -8.03 96.94 -6.74 96.94 -5.13ZM98.72 -5.74C98.82 -7.02 99.13 -7.91 99.66 -8.41C100.19 -8.92 100.83 -9.17 101.58 -9.17C102.44 -9.17 103.09 -8.83 103.54 -8.14C103.98 -7.45 104.21 -6.65 104.24 -5.74Z M108.66 0L109.5 0C109.79 0 109.94 -0.15 109.94 -0.44L109.94 -5.31C109.94 -6.5 110.19 -7.43 110.68 -8.12C111.18 -8.81 111.81 -9.15 112.57 -9.15C112.77 -9.15 112.99 -9.13 113.21 -9.08C113.35 -9.06 113.43 -9.1 113.47 -9.22L113.69 -10.02C113.73 -10.16 113.68 -10.25 113.53 -10.31C113.36 -10.38 113.06 -10.42 112.65 -10.42C112.01 -10.42 111.49 -10.27 111.06 -9.97C110.64 -9.67 110.27 -9.23 109.96 -8.64L109.92 -8.64L109.92 -9.81C109.92 -10.11 109.78 -10.25 109.48 -10.25L108.66 -10.25C108.37 -10.25 108.22 -10.11 108.22 -9.81L108.22 -0.44C108.22 -0.15 108.37 0 108.66 0Z M114.56 -9.78L118.09 0.01L117.89 0.59C117.72 1.08 117.49 1.57 117.21 2.07C116.92 2.56 116.55 2.8 116.09 2.8C115.85 2.8 115.59 2.75 115.32 2.64C115.19 2.58 115.1 2.62 115.06 2.75L114.8 3.54C114.76 3.68 114.8 3.78 114.94 3.85C115.24 4 115.64 4.07 116.15 4.07C117.12 4.07 117.85 3.73 118.34 3.03C118.83 2.34 119.38 1.13 120 -0.6L123.29 -9.78C123.41 -10.09 123.32 -10.25 123.03 -10.25L121.96 -10.25C121.75 -10.25 121.61 -10.13 121.52 -9.87L119.45 -3.43C119.3 -2.98 119.19 -2.64 119.12 -2.4C119.04 -2.16 118.98 -1.89 118.93 -1.6L118.91 -1.6C118.85 -1.89 118.77 -2.23 118.65 -2.6C118.53 -2.98 118.44 -3.25 118.38 -3.43L116.33 -9.87C116.25 -10.13 116.1 -10.25 115.89 -10.25L114.82 -10.25C114.53 -10.25 114.44 -10.09 114.56 -9.78Z"></path></g></g></svg>