<svg id="SvgjsSvg1015" width="100%" height="100%" xmlns="http://www.w3.org/2000/svg" version="1.1" xlink="http://www.w3.org/1999/xlink" xmlns:svgjs="http://svgjs.com/svgjs" preserveAspectRatio="xMidYMid meet" viewBox="0 0 300 117.83058166503906" overflow="visible"><defs id="SvgjsDefs1016"></defs><g id="SvgjsG1017" transform="scale(1.0782446177622829)" opacity="1"><g id="SvgjsG1018" class="WYVYTM9st" transform="translate(43.25000000000003, 0) scale(1)" light-content="false" fill="#050505"><path d="M0 0 h 234.98 v 3 h -234.98 Z M0 0 h 3 v 74.78 h -3 Z M234.98 74.78 h -234.98 v -3 h 234.98 Z M234.98 74.78 h -3 v -74.78 h 3 Z" fill-rule="nonzero"></path></g><g id="SvgjsG1019" class="text" transform="translate(160.31999969482422, 46.779998779296875) scale(1)" light-content="false" fill="#050505"><path d="M-104.61 -15.42C-104.61 -15.18 -105.15 -13.38 -106.23 -10.02C-107.31 -6.66 -108.17 -4.2 -108.81 -2.64L-109.23 -1.86C-109.43 -1.42 -109.62 -0.98 -109.8 -0.54C-109.98 -0.1 -110.07 0.27 -110.07 0.57C-110.07 0.87 -109.91 1.02 -109.59 1.02C-108.75 1.02 -107.95 0.54 -107.19 -0.42C-106.43 -1.38 -105.66 -2.62 -104.88 -4.14C-104.1 -5.66 -102.73 -7.88 -100.77 -10.8C-98.81 -13.72 -96.55 -16.66 -93.99 -19.62C-93.59 -20.06 -93.29 -20.28 -93.09 -20.28C-92.97 -20.28 -92.91 -20.18 -92.91 -19.98C-92.91 -19.78 -93.01 -19.42 -93.21 -18.9C-95.85 -11.9 -97.73 -5.76 -98.85 -0.48L-98.91 -0.24C-98.91 0.12 -98.66 0.3 -98.16 0.3C-97.66 0.3 -97.03 0.09 -96.27 -0.33C-95.51 -0.75 -95.09 -1.12 -95.01 -1.44C-93.89 -5.6 -92.17 -9.24 -89.85 -12.36C-87.53 -15.48 -85.33 -17.74 -83.25 -19.14C-82.93 -19.34 -82.69 -19.44 -82.53 -19.44C-82.37 -19.44 -82.29 -19.3 -82.29 -19.02C-82.29 -18.26 -83.35 -15.52 -85.47 -10.8C-86.19 -9.16 -86.75 -7.84 -87.15 -6.84C-88.35 -3.92 -88.95 -1.56 -88.95 0.24C-88.95 1.84 -88.37 2.64 -87.21 2.64C-86.33 2.64 -85.45 2.36 -84.57 1.8C-83.69 1.24 -83.25 0.77 -83.25 0.39C-83.25 0.01 -83.33 -0.18 -83.49 -0.18C-83.65 -0.18 -84.06 0.01 -84.72 0.39C-85.38 0.77 -85.79 0.96 -85.95 0.96C-86.31 0.96 -86.49 0.72 -86.49 0.24C-86.49 -0.24 -86.43 -0.68 -86.31 -1.08C-85.31 -6.32 -82.39 -13.22 -77.55 -21.78C-77.31 -22.26 -77.19 -22.64 -77.19 -22.92C-77.19 -23.48 -77.7 -23.76 -78.72 -23.76C-79.74 -23.76 -80.63 -23.46 -81.39 -22.86C-84.91 -20.3 -87.56 -17.95 -89.34 -15.81C-91.12 -13.67 -92.99 -10.66 -94.95 -6.78C-94.03 -11.26 -91.83 -16.44 -88.35 -22.32C-88.07 -22.76 -87.93 -23.16 -87.93 -23.52C-87.93 -24.04 -88.33 -24.3 -89.13 -24.3C-92.57 -24.3 -97.63 -18.98 -104.31 -8.34C-103.67 -11.22 -101.71 -16.02 -98.43 -22.74C-98.51 -23.1 -98.81 -23.28 -99.33 -23.28C-100.61 -23.28 -101.59 -22.86 -102.27 -22.02C-102.95 -21.18 -103.54 -20.04 -104.04 -18.6C-104.54 -17.16 -104.79 -16.36 -104.79 -16.2Z M-63.63 -17.88C-64.47 -17.96 -65.11 -19.15 -65.55 -21.45C-65.99 -23.75 -66.49 -24.92 -67.05 -24.96C-67.61 -24.96 -68.05 -24.76 -68.37 -24.36C-68.69 -23.96 -68.85 -23.48 -68.85 -22.92L-69.27 -22.92C-70.51 -22.92 -71.74 -22.25 -72.96 -20.91C-74.18 -19.57 -75.21 -17.94 -76.05 -16.02C-78.29 -10.9 -79.41 -6.86 -79.41 -3.9C-79.41 -0.54 -78.25 1.14 -75.93 1.14C-73.53 1.14 -71.11 -0.52 -68.67 -3.84C-66.23 -7.16 -65.01 -11.16 -65.01 -15.84C-64.53 -15.84 -63.99 -15.98 -63.39 -16.26C-62.79 -16.54 -62.49 -16.85 -62.49 -17.19C-62.49 -17.53 -62.87 -17.76 -63.63 -17.88ZM-66.69 -16.32C-66.69 -12.4 -67.68 -8.81 -69.66 -5.55C-71.64 -2.29 -73.43 -0.66 -75.03 -0.66C-76.15 -0.66 -76.71 -1.64 -76.71 -3.6C-76.71 -4.36 -76.57 -5.5 -76.29 -7.02C-76.01 -8.54 -75.05 -11.13 -73.41 -14.79C-71.77 -18.45 -70.33 -20.28 -69.09 -20.28C-68.89 -20.28 -68.53 -19.67 -68.01 -18.45C-67.49 -17.23 -67.05 -16.52 -66.69 -16.32Z M-60.69 -15.36C-60.69 -15 -60.73 -14.68 -60.81 -14.4L-61.41 -11.88C-61.77 -10.24 -62.39 -7.76 -63.27 -4.44C-63.67 -4.28 -64 -3.76 -64.26 -2.88C-64.52 -2 -64.65 -1.02 -64.65 0.06C-64.53 0.26 -64.32 0.36 -64.02 0.36C-63.72 0.36 -63.31 0.2 -62.79 -0.12C-62.27 -0.44 -61.89 -0.76 -61.65 -1.08C-60.33 -5.2 -58.3 -9.42 -55.56 -13.74C-52.82 -18.06 -50.75 -20.22 -49.35 -20.22C-49.15 -20.22 -49.05 -20.06 -49.05 -19.74C-49.05 -19.42 -49.24 -18.78 -49.62 -17.82C-50 -16.86 -50.19 -16.28 -50.19 -16.08C-50.19 -15.88 -50.06 -15.78 -49.8 -15.78C-49.54 -15.78 -49.14 -15.99 -48.6 -16.41C-48.06 -16.83 -47.63 -17.26 -47.31 -17.7C-46.39 -18.98 -45.93 -20.23 -45.93 -21.45C-45.93 -22.67 -46.41 -23.28 -47.37 -23.28C-49.17 -23.28 -51.45 -21.45 -54.21 -17.79C-56.97 -14.13 -59.01 -11 -60.33 -8.4C-59.65 -11.4 -58.69 -14.4 -57.45 -17.4C-57.01 -18.52 -56.52 -19.72 -55.98 -21C-55.44 -22.28 -55.15 -22.98 -55.11 -23.1C-55.19 -23.42 -55.47 -23.58 -55.95 -23.58C-57.23 -23.58 -58.2 -23.12 -58.86 -22.2C-59.52 -21.28 -60.17 -19.56 -60.81 -17.04C-60.89 -16.84 -60.93 -16.62 -60.93 -16.38Z M-43.47 -15.42C-43.47 -15.06 -44.57 -11.72 -46.77 -5.4C-48.17 -1.28 -48.91 0.72 -48.99 0.6C-48.95 0.88 -48.74 1.02 -48.36 1.02C-47.98 1.02 -47.43 0.77 -46.71 0.27C-45.99 -0.23 -45.61 -0.62 -45.57 -0.9C-45.49 -1.98 -43.39 -5.5 -39.27 -11.46C-35.15 -17.42 -32.71 -20.4 -31.95 -20.4C-31.83 -20.4 -31.77 -20.28 -31.77 -20.04C-31.77 -19.8 -31.82 -19.54 -31.92 -19.26C-32.02 -18.98 -32.75 -17.22 -34.11 -13.98C-35.47 -10.74 -36.47 -8.08 -37.11 -6C-37.75 -3.92 -38.07 -2.06 -38.07 -0.42C-38.07 1.22 -37.49 2.04 -36.33 2.04C-35.45 2.04 -34.57 1.74 -33.69 1.14C-32.81 0.54 -32.37 0.06 -32.37 -0.3C-32.37 -0.66 -32.49 -0.84 -32.73 -0.84L-35.07 0.36C-35.39 0.36 -35.55 0 -35.55 -0.72C-35.55 -2.92 -34.67 -6.22 -32.91 -10.62C-31.15 -15.02 -29.25 -18.92 -27.21 -22.32C-26.93 -22.76 -26.79 -23.16 -26.79 -23.52C-26.79 -24.04 -27.19 -24.3 -27.99 -24.3C-31.51 -24.3 -36.57 -18.98 -43.17 -8.34C-42.53 -11.22 -40.57 -16.02 -37.29 -22.74C-37.37 -23.1 -37.67 -23.28 -38.19 -23.28C-39.51 -23.28 -40.49 -22.87 -41.13 -22.05C-41.77 -21.23 -42.35 -20.09 -42.87 -18.63C-43.39 -17.17 -43.65 -16.36 -43.65 -16.2Z M-13.95 -33C-13.99 -33.12 -14.11 -33.18 -14.31 -33.18C-15.23 -33.18 -16.31 -32.68 -17.55 -31.68C-18.79 -30.68 -19.41 -29.76 -19.41 -28.92C-19.41 -27.6 -19.01 -26.94 -18.21 -26.94C-17.61 -27.1 -17.05 -27.84 -16.53 -29.16C-16.33 -29.6 -15.85 -30.22 -15.09 -31.02C-14.33 -31.82 -13.95 -32.48 -13.95 -33ZM-23.61 -15.42C-23.61 -15.14 -23.69 -14.64 -23.85 -13.92C-23.97 -13.56 -24.09 -13.19 -24.21 -12.81C-24.33 -12.43 -24.52 -11.86 -24.78 -11.1C-25.04 -10.34 -25.29 -9.6 -25.53 -8.88C-25.77 -8.16 -26.12 -7.14 -26.58 -5.82C-27.04 -4.5 -27.42 -3.41 -27.72 -2.55C-28.02 -1.69 -28.17 -1.08 -28.17 -0.72C-28.17 0 -27.79 0.36 -27.03 0.36C-26.27 0.36 -24.87 -0.29 -22.83 -1.59C-20.79 -2.89 -19.77 -3.78 -19.77 -4.26C-19.81 -4.42 -19.98 -4.5 -20.28 -4.5C-20.58 -4.5 -21.26 -4.2 -22.32 -3.6C-23.38 -3 -24.03 -2.7 -24.27 -2.7C-24.67 -2.7 -24.87 -2.94 -24.87 -3.42C-24.87 -3.62 -24.85 -3.78 -24.81 -3.9C-24.09 -7.1 -23.21 -10 -22.17 -12.6C-21.73 -13.72 -20.98 -15.44 -19.92 -17.76C-18.86 -20.08 -18.01 -21.74 -17.37 -22.74C-17.45 -23.1 -17.75 -23.28 -18.27 -23.28C-19.59 -23.28 -20.59 -22.86 -21.27 -22.02C-21.95 -21.18 -22.54 -20.04 -23.04 -18.6C-23.54 -17.16 -23.79 -16.36 -23.79 -16.2Z M-13.83 -15.42C-13.83 -15.06 -14.93 -11.72 -17.13 -5.4C-18.53 -1.28 -19.27 0.72 -19.35 0.6C-19.31 0.88 -19.1 1.02 -18.72 1.02C-18.34 1.02 -17.79 0.77 -17.07 0.27C-16.35 -0.23 -15.97 -0.62 -15.93 -0.9C-15.85 -1.98 -13.75 -5.5 -9.63 -11.46C-5.51 -17.42 -3.07 -20.4 -2.31 -20.4C-2.19 -20.4 -2.13 -20.28 -2.13 -20.04C-2.13 -19.8 -2.18 -19.54 -2.28 -19.26C-2.38 -18.98 -3.11 -17.22 -4.47 -13.98C-5.83 -10.74 -6.83 -8.08 -7.47 -6C-8.11 -3.92 -8.43 -2.06 -8.43 -0.42C-8.43 1.22 -7.85 2.04 -6.69 2.04C-5.81 2.04 -4.93 1.74 -4.05 1.14C-3.17 0.54 -2.73 0.06 -2.73 -0.3C-2.73 -0.66 -2.85 -0.84 -3.09 -0.84L-5.43 0.36C-5.75 0.36 -5.91 0 -5.91 -0.72C-5.91 -2.92 -5.03 -6.22 -3.27 -10.62C-1.51 -15.02 0.39 -18.92 2.43 -22.32C2.71 -22.76 2.85 -23.16 2.85 -23.52C2.85 -24.04 2.45 -24.3 1.65 -24.3C-1.87 -24.3 -6.93 -18.98 -13.53 -8.34C-12.89 -11.22 -10.93 -16.02 -7.65 -22.74C-7.73 -23.1 -8.03 -23.28 -8.55 -23.28C-9.87 -23.28 -10.85 -22.87 -11.49 -22.05C-12.13 -21.23 -12.71 -20.09 -13.23 -18.63C-13.75 -17.17 -14.01 -16.36 -14.01 -16.2Z M14.73 12.84C14.77 12.6 14.79 12.2 14.79 11.64C14.79 8.92 13.71 6 11.55 2.88C9.39 -0.24 7.09 -2.26 4.65 -3.18L4.41 -3.18C4.01 -3.18 3.62 -2.99 3.24 -2.61C2.86 -2.23 2.67 -1.85 2.67 -1.47C2.67 -1.09 2.99 -0.76 3.63 -0.48C3.91 -0.32 4.39 -0.04 5.07 0.36C4.39 0.6 3.99 0.8 3.87 0.96C2.55 2.44 0.91 5.09 -1.05 8.91C-3.01 12.73 -3.99 15.7 -3.99 17.82C-3.99 19.94 -2.55 21 0.33 21C3.21 21 6.24 20.15 9.42 18.45C12.6 16.75 14.37 14.88 14.73 12.84ZM18.99 -17.64C18.99 -17.88 18.79 -18.2 18.39 -18.6C18.11 -18.88 17.89 -19.02 17.73 -19.02L17.85 -21.96C17.85 -23.8 17.27 -24.72 16.11 -24.72C15.07 -24.72 14.55 -24 14.55 -22.56C14.15 -22.64 13.85 -22.68 13.65 -22.68C11.29 -22.68 9.04 -21.08 6.9 -17.88C4.76 -14.68 3.69 -11.36 3.69 -7.92C3.69 -6.52 3.94 -5.5 4.44 -4.86C4.94 -4.22 5.75 -3.9 6.87 -3.9C8.79 -3.9 10.64 -4.67 12.42 -6.21C14.2 -7.75 15.59 -9.8 16.59 -12.36C16.79 -12.84 17.11 -14.42 17.55 -17.1L18.09 -17.1C18.69 -17.1 18.99 -17.28 18.99 -17.64ZM11.91 13.62C11.83 14.82 10.42 16.1 7.68 17.46C4.94 18.82 2.59 19.5 0.63 19.5C-1.33 19.5 -2.31 18.67 -2.31 17.01C-2.31 15.35 -1.47 13.08 0.21 10.2C1.01 8.8 1.72 7.62 2.34 6.66C2.96 5.7 3.72 4.58 4.62 3.3C5.52 2.02 6.01 1.32 6.09 1.2C7.69 2.6 9.06 4.36 10.2 6.48C11.34 8.6 11.91 10.72 11.91 12.84ZM15.33 -17.34C15.33 -14.3 14.43 -11.59 12.63 -9.21C10.83 -6.83 9.19 -5.64 7.71 -5.64C6.71 -5.64 6.21 -6.33 6.21 -7.71C6.21 -9.09 6.61 -10.85 7.41 -12.99C8.21 -15.13 9.15 -17 10.23 -18.6C11.31 -20.2 12.47 -21 13.71 -21C14.19 -21 14.47 -20.41 14.55 -19.23C14.63 -18.05 14.89 -17.42 15.33 -17.34Z M47.01 -17.88C46.17 -17.96 45.53 -19.15 45.09 -21.45C44.65 -23.75 44.15 -24.92 43.59 -24.96C43.03 -24.96 42.59 -24.76 42.27 -24.36C41.95 -23.96 41.79 -23.48 41.79 -22.92L41.37 -22.92C40.13 -22.92 38.9 -22.25 37.68 -20.91C36.46 -19.57 35.43 -17.94 34.59 -16.02C32.35 -10.9 31.23 -6.86 31.23 -3.9C31.23 -0.54 32.39 1.14 34.71 1.14C37.11 1.14 39.53 -0.52 41.97 -3.84C44.41 -7.16 45.63 -11.16 45.63 -15.84C46.11 -15.84 46.65 -15.98 47.25 -16.26C47.85 -16.54 48.15 -16.85 48.15 -17.19C48.15 -17.53 47.77 -17.76 47.01 -17.88ZM43.95 -16.32C43.95 -12.4 42.96 -8.81 40.98 -5.55C39 -2.29 37.21 -0.66 35.61 -0.66C34.49 -0.66 33.93 -1.64 33.93 -3.6C33.93 -4.36 34.07 -5.5 34.35 -7.02C34.63 -8.54 35.59 -11.13 37.23 -14.79C38.87 -18.45 40.31 -20.28 41.55 -20.28C41.75 -20.28 42.11 -19.67 42.63 -18.45C43.15 -17.23 43.59 -16.52 43.95 -16.32Z M68.79 -39.78C68.39 -39.74 67.83 -39.71 67.11 -39.69C66.39 -39.67 65.82 -39.64 65.4 -39.6C64.98 -39.56 64.46 -39.49 63.84 -39.39C63.22 -39.29 62.69 -39.13 62.25 -38.91C61.81 -38.69 61.34 -38.4 60.84 -38.04C60.34 -37.68 59.88 -37.2 59.46 -36.6C59.04 -36 58.57 -35.13 58.05 -33.99C57.53 -32.85 56.35 -29.02 54.51 -22.5L50.67 -22.5C50.35 -22.5 49.93 -22.31 49.41 -21.93C48.89 -21.55 48.63 -21.2 48.63 -20.88C48.63 -20.56 49.29 -20.4 50.61 -20.4C51.93 -20.4 53.07 -20.48 54.03 -20.64C53.51 -18.64 52.3 -14.56 50.4 -8.4C48.5 -2.24 47.06 2.06 46.08 4.5C45.1 6.94 44.11 8.67 43.11 9.69C42.11 10.71 41.11 11.22 40.11 11.22C39.11 11.22 38.25 10.66 37.53 9.54C36.81 8.42 36.45 6.94 36.45 5.1C36.45 4.78 36.49 4.22 36.57 3.42C36.53 3.18 36.43 3.06 36.27 3.06C35.99 3.06 35.68 3.54 35.34 4.5C35 5.46 34.83 6.5 34.83 7.62C34.83 10.82 36.37 12.42 39.45 12.42C41.41 12.42 43.36 11.55 45.3 9.81C47.24 8.07 48.87 5.12 50.19 0.96C50.87 -1.24 52.55 -6.92 55.23 -16.08C56.07 -18.88 56.57 -20.48 56.73 -20.88C58.41 -20.88 60.17 -20.99 62.01 -21.21C63.85 -21.43 64.77 -21.74 64.77 -22.14C64.77 -22.38 64.21 -22.5 63.09 -22.5L57.21 -22.5C58.17 -26.34 59.53 -30.52 61.29 -35.04C62.17 -37.28 63.57 -38.4 65.49 -38.4C66.17 -38.4 66.74 -38.2 67.2 -37.8C67.66 -37.4 67.99 -36.99 68.19 -36.57C68.39 -36.15 68.51 -35.94 68.55 -35.94C68.83 -35.94 69.1 -36.21 69.36 -36.75C69.62 -37.29 69.75 -37.9 69.75 -38.58C69.75 -39.26 69.43 -39.66 68.79 -39.78Z M81.39 -39.78C80.99 -39.74 80.43 -39.71 79.71 -39.69C78.99 -39.67 78.42 -39.64 78 -39.6C77.58 -39.56 77.06 -39.49 76.44 -39.39C75.82 -39.29 75.29 -39.13 74.85 -38.91C74.41 -38.69 73.94 -38.4 73.44 -38.04C72.94 -37.68 72.48 -37.2 72.06 -36.6C71.64 -36 71.17 -35.13 70.65 -33.99C70.13 -32.85 68.95 -29.02 67.11 -22.5L63.27 -22.5C62.95 -22.5 62.53 -22.31 62.01 -21.93C61.49 -21.55 61.23 -21.2 61.23 -20.88C61.23 -20.56 61.89 -20.4 63.21 -20.4C64.53 -20.4 65.67 -20.48 66.63 -20.64C66.11 -18.64 64.9 -14.56 63 -8.4C61.1 -2.24 59.66 2.06 58.68 4.5C57.7 6.94 56.71 8.67 55.71 9.69C54.71 10.71 53.71 11.22 52.71 11.22C51.71 11.22 50.85 10.66 50.13 9.54C49.41 8.42 49.05 6.94 49.05 5.1C49.05 4.78 49.09 4.22 49.17 3.42C49.13 3.18 49.03 3.06 48.87 3.06C48.59 3.06 48.28 3.54 47.94 4.5C47.6 5.46 47.43 6.5 47.43 7.62C47.43 10.82 48.97 12.42 52.05 12.42C54.01 12.42 55.96 11.55 57.9 9.81C59.84 8.07 61.47 5.12 62.79 0.96C63.47 -1.24 65.15 -6.92 67.83 -16.08C68.67 -18.88 69.17 -20.48 69.33 -20.88C71.01 -20.88 72.77 -20.99 74.61 -21.21C76.45 -21.43 77.37 -21.74 77.37 -22.14C77.37 -22.38 76.81 -22.5 75.69 -22.5L69.81 -22.5C70.77 -26.34 72.13 -30.52 73.89 -35.04C74.77 -37.28 76.17 -38.4 78.09 -38.4C78.77 -38.4 79.34 -38.2 79.8 -37.8C80.26 -37.4 80.59 -36.99 80.79 -36.57C80.99 -36.15 81.11 -35.94 81.15 -35.94C81.43 -35.94 81.7 -36.21 81.96 -36.75C82.22 -37.29 82.35 -37.9 82.35 -38.58C82.35 -39.26 82.03 -39.66 81.39 -39.78Z M86.13 -33C86.09 -33.12 85.97 -33.18 85.77 -33.18C84.85 -33.18 83.77 -32.68 82.53 -31.68C81.29 -30.68 80.67 -29.76 80.67 -28.92C80.67 -27.6 81.07 -26.94 81.87 -26.94C82.47 -27.1 83.03 -27.84 83.55 -29.16C83.75 -29.6 84.23 -30.22 84.99 -31.02C85.75 -31.82 86.13 -32.48 86.13 -33ZM76.47 -15.42C76.47 -15.14 76.39 -14.64 76.23 -13.92C76.11 -13.56 75.99 -13.19 75.87 -12.81C75.75 -12.43 75.56 -11.86 75.3 -11.1C75.04 -10.34 74.79 -9.6 74.55 -8.88C74.31 -8.16 73.96 -7.14 73.5 -5.82C73.04 -4.5 72.66 -3.41 72.36 -2.55C72.06 -1.69 71.91 -1.08 71.91 -0.72C71.91 0 72.29 0.36 73.05 0.36C73.81 0.36 75.21 -0.29 77.25 -1.59C79.29 -2.89 80.31 -3.78 80.31 -4.26C80.27 -4.42 80.1 -4.5 79.8 -4.5C79.5 -4.5 78.82 -4.2 77.76 -3.6C76.7 -3 76.05 -2.7 75.81 -2.7C75.41 -2.7 75.21 -2.94 75.21 -3.42C75.21 -3.62 75.23 -3.78 75.27 -3.9C75.99 -7.1 76.87 -10 77.91 -12.6C78.35 -13.72 79.1 -15.44 80.16 -17.76C81.22 -20.08 82.07 -21.74 82.71 -22.74C82.63 -23.1 82.33 -23.28 81.81 -23.28C80.49 -23.28 79.49 -22.86 78.81 -22.02C78.13 -21.18 77.54 -20.04 77.04 -18.6C76.54 -17.16 76.29 -16.36 76.29 -16.2Z M94.23 -17.52C94.23 -16.8 94.47 -16.44 94.95 -16.44C95.27 -16.44 95.65 -16.7 96.09 -17.22C96.53 -17.74 96.75 -18.56 96.75 -19.68C96.75 -21.56 95.81 -22.5 93.93 -22.5C93.09 -22.5 91.95 -22.12 90.51 -21.36C89.79 -21 89.13 -20.7 88.53 -20.46C87.21 -19.86 85.65 -17.62 83.85 -13.74C82.05 -9.86 81.15 -6.52 81.15 -3.72C81.15 -0.92 82.37 0.48 84.81 0.48C86.41 0.48 88.06 -0.11 89.76 -1.29C91.46 -2.47 92.79 -3.71 93.75 -5.01C94.71 -6.31 95.19 -7.16 95.19 -7.56C95.19 -7.96 95.09 -8.2 94.89 -8.28C94.85 -8.28 94.37 -7.69 93.45 -6.51C92.53 -5.33 91.33 -4.17 89.85 -3.03C88.37 -1.89 86.89 -1.32 85.41 -1.32C84.25 -1.32 83.67 -2.06 83.67 -3.54C83.67 -5.5 84.39 -8.27 85.83 -11.85C87.27 -15.43 88.31 -17.55 88.95 -18.21C89.59 -18.87 90.42 -19.53 91.44 -20.19C92.46 -20.85 93.21 -21.18 93.69 -21.18C94.37 -21.18 94.71 -20.86 94.71 -20.22Z M102.93 -11.4C104.41 -11.4 105.99 -11.64 107.67 -12.12C108.63 -12.36 109.41 -12.79 110.01 -13.41C110.61 -14.03 110.91 -14.75 110.91 -15.57C110.91 -16.39 110.79 -17.42 110.55 -18.66C110.03 -21.1 109.09 -22.32 107.73 -22.32C104.57 -22.32 102.43 -21.26 101.31 -19.14C101.07 -18.66 100.15 -16.84 98.55 -13.68L98.13 -13.68C97.45 -13.68 97.11 -13.45 97.11 -12.99C97.11 -12.53 97.41 -12.22 98.01 -12.06C97.97 -11.74 97.62 -10.55 96.96 -8.49C96.3 -6.43 95.97 -4.74 95.97 -3.42C95.97 -1.98 96.38 -0.95 97.2 -0.33C98.02 0.29 98.99 0.6 100.11 0.6C101.23 0.6 102.89 -0.39 105.09 -2.37C107.29 -4.35 108.39 -5.9 108.39 -7.02C108.39 -7.34 108.25 -7.5 107.97 -7.5C107.81 -7.5 107.31 -6.96 106.47 -5.88C103.95 -2.72 101.99 -1.14 100.59 -1.14C99.39 -1.14 98.79 -2.02 98.79 -3.78C98.79 -5.54 99.45 -8.1 100.77 -11.46ZM101.31 -13.14C101.83 -14.46 102.64 -15.98 103.74 -17.7C104.84 -19.42 105.79 -20.28 106.59 -20.28C107.23 -20.28 107.73 -19.64 108.09 -18.36C108.29 -17.64 108.38 -16.75 108.36 -15.69C108.34 -14.63 107.97 -13.92 107.25 -13.56C106.53 -13.2 105.35 -13.02 103.71 -13.02Z"></path></g><g id="SvgjsG1020" class="text" transform="translate(139.02999877929688, 104.46000030517578) scale(1)" light-content="false" fill="#050505"><path d="M-138.52 -14.68C-138.69 -14.58 -138.82 -14.38 -138.91 -14.07C-138.99 -13.76 -139.03 -13.44 -139.03 -13.12C-139.03 -12.79 -138.67 -12.62 -137.94 -12.62C-137.69 -12.62 -137.52 -12.56 -137.44 -12.46C-137.36 -12.35 -137.32 -12.2 -137.32 -12L-137.32 -2.57C-137.32 -2.37 -137.36 -2.22 -137.44 -2.11C-137.52 -2.01 -137.69 -1.95 -137.94 -1.95C-138.24 -1.95 -138.5 -1.91 -138.71 -1.84C-138.93 -1.76 -139.03 -1.64 -139.03 -1.48C-139.03 -1.15 -138.99 -0.83 -138.91 -0.52C-138.82 -0.21 -138.69 0 -138.52 0.11C-137.08 0.04 -135.33 0 -133.26 0C-130.9 0 -129.11 0.04 -127.91 0.11C-127.79 0.01 -127.55 -0.71 -127.19 -2.05C-126.84 -3.38 -126.66 -4.19 -126.66 -4.45C-126.66 -4.5 -126.68 -4.56 -126.73 -4.64C-126.78 -4.72 -126.86 -4.81 -126.96 -4.91C-127.06 -5 -127.21 -5.08 -127.4 -5.15C-127.59 -5.21 -127.81 -5.24 -128.06 -5.24C-128.18 -5.24 -128.32 -5.01 -128.49 -4.54C-128.65 -4.07 -128.81 -3.53 -128.97 -2.91C-129.14 -2.28 -129.25 -1.89 -129.32 -1.74C-129.82 -1.74 -130.68 -1.74 -131.87 -1.74C-133.07 -1.75 -134.03 -1.75 -134.74 -1.75C-134.83 -1.75 -134.91 -1.78 -134.96 -1.86C-135.01 -1.93 -135.04 -2 -135.05 -2.08C-135.06 -2.15 -135.07 -2.25 -135.07 -2.38L-135.07 -7.29C-134.69 -7.33 -134.37 -7.35 -134.12 -7.35C-133.25 -7.35 -132.58 -7.06 -132.11 -6.46C-131.77 -6.46 -131.48 -6.59 -131.23 -6.83C-130.97 -7.08 -130.85 -7.38 -130.85 -7.74C-130.85 -8.18 -130.97 -8.5 -131.2 -8.7C-131.44 -8.89 -131.75 -8.99 -132.14 -8.99C-132.6 -8.99 -133.11 -8.94 -133.67 -8.84C-134.22 -8.73 -134.69 -8.62 -135.07 -8.49L-135.07 -12.17C-135.07 -12.29 -135.06 -12.39 -135.05 -12.47C-135.04 -12.54 -135.01 -12.61 -134.96 -12.69C-134.91 -12.76 -134.83 -12.79 -134.74 -12.79C-134.08 -12.79 -133.19 -12.79 -132.08 -12.8C-130.97 -12.8 -130.18 -12.8 -129.71 -12.8C-129.65 -12.66 -129.57 -12.31 -129.44 -11.76C-129.32 -11.21 -129.2 -10.73 -129.07 -10.31C-128.95 -9.9 -128.84 -9.69 -128.74 -9.69C-128.49 -9.69 -128.27 -9.72 -128.08 -9.79C-127.89 -9.85 -127.74 -9.93 -127.64 -10.02C-127.54 -10.12 -127.47 -10.21 -127.42 -10.29C-127.37 -10.37 -127.34 -10.43 -127.34 -10.48C-127.34 -10.72 -127.49 -11.46 -127.79 -12.69C-128.08 -13.92 -128.29 -14.58 -128.4 -14.68C-128.52 -14.68 -128.88 -14.66 -129.46 -14.64C-130.05 -14.61 -130.67 -14.59 -131.34 -14.58C-132 -14.56 -132.64 -14.55 -133.26 -14.55C-134.16 -14.55 -135.91 -14.59 -138.52 -14.68Z M-122.32 -8.06C-122.36 -8.14 -122.38 -8.23 -122.38 -8.32C-122.38 -8.57 -122.2 -8.69 -121.83 -8.69C-121.42 -8.69 -121.21 -8.82 -121.21 -9.09L-121.21 -9.16C-121.29 -9.92 -121.4 -10.38 -121.54 -10.53C-122.23 -10.46 -122.98 -10.42 -123.8 -10.42C-124.61 -10.42 -125.33 -10.46 -125.96 -10.53C-126.21 -10.43 -126.34 -10.18 -126.34 -9.77C-126.34 -9.58 -126.32 -9.37 -126.27 -9.16C-126.24 -9 -126.12 -8.89 -125.93 -8.81C-125.74 -8.73 -125.52 -8.69 -125.28 -8.69C-125.19 -8.69 -125.11 -8.68 -125.04 -8.66C-124.98 -8.64 -124.92 -8.62 -124.88 -8.6C-124.84 -8.58 -124.79 -8.55 -124.75 -8.49C-124.71 -8.44 -124.68 -8.4 -124.67 -8.37C-124.65 -8.35 -124.63 -8.3 -124.6 -8.22C-124.57 -8.14 -124.55 -8.1 -124.54 -8.08L-121.99 -2.36C-121.9 -2.15 -121.8 -1.91 -121.69 -1.64C-121.58 -1.36 -121.5 -1.15 -121.44 -1.02C-121.39 -0.89 -121.31 -0.74 -121.22 -0.58C-121.13 -0.42 -121.04 -0.31 -120.95 -0.24C-120.86 -0.18 -120.74 -0.12 -120.59 -0.07C-120.44 -0.02 -120.27 0 -120.08 0C-119.93 0 -119.79 -0.02 -119.67 -0.05C-119.55 -0.09 -119.44 -0.15 -119.34 -0.24C-119.24 -0.34 -119.16 -0.42 -119.09 -0.5C-119.02 -0.58 -118.94 -0.71 -118.86 -0.88C-118.78 -1.05 -118.72 -1.19 -118.67 -1.3C-118.63 -1.42 -118.56 -1.59 -118.47 -1.82C-118.38 -2.05 -118.3 -2.23 -118.25 -2.36L-115.91 -8.06C-115.9 -8.07 -115.89 -8.11 -115.86 -8.18C-115.83 -8.26 -115.82 -8.3 -115.81 -8.32C-115.8 -8.33 -115.77 -8.37 -115.74 -8.42C-115.71 -8.48 -115.68 -8.51 -115.65 -8.53C-115.62 -8.55 -115.58 -8.57 -115.54 -8.6C-115.49 -8.63 -115.44 -8.65 -115.38 -8.66C-115.31 -8.67 -115.24 -8.67 -115.17 -8.67C-114.93 -8.67 -114.71 -8.71 -114.52 -8.79C-114.32 -8.87 -114.21 -8.98 -114.18 -9.14C-114.13 -9.3 -114.11 -9.45 -114.11 -9.6C-114.11 -10.09 -114.24 -10.4 -114.49 -10.53C-115.12 -10.46 -115.84 -10.42 -116.65 -10.42C-117.42 -10.42 -118.11 -10.46 -118.71 -10.53C-118.85 -10.38 -118.96 -9.92 -119.04 -9.14L-119.04 -9.07C-119.04 -8.81 -118.87 -8.67 -118.53 -8.67C-118.23 -8.67 -118.08 -8.55 -118.08 -8.3C-118.08 -8.22 -118.09 -8.13 -118.12 -8.04L-120.11 -2.69Z M-103.23 -5.77C-103.23 -6.43 -103.32 -7.03 -103.49 -7.58C-103.66 -8.12 -103.9 -8.59 -104.2 -8.97C-104.5 -9.35 -104.85 -9.67 -105.25 -9.94C-105.66 -10.2 -106.09 -10.39 -106.54 -10.52C-107 -10.64 -107.47 -10.7 -107.97 -10.7C-108.64 -10.7 -109.29 -10.59 -109.93 -10.35C-110.56 -10.12 -111.14 -9.78 -111.65 -9.35C-112.16 -8.92 -112.58 -8.36 -112.89 -7.68C-113.2 -6.99 -113.36 -6.24 -113.36 -5.42C-113.36 -4.58 -113.25 -3.83 -113.04 -3.16C-112.82 -2.5 -112.54 -1.96 -112.19 -1.53C-111.84 -1.11 -111.42 -0.76 -110.93 -0.48C-110.45 -0.21 -109.95 -0.01 -109.45 0.1C-108.94 0.21 -108.41 0.26 -107.85 0.26C-107.17 0.26 -106.51 0.18 -105.88 0C-105.25 -0.18 -104.75 -0.4 -104.37 -0.67C-104 -0.94 -103.82 -1.21 -103.82 -1.49C-103.82 -1.92 -104 -2.35 -104.37 -2.78C-104.88 -2.41 -105.44 -2.11 -106.05 -1.9C-106.67 -1.7 -107.28 -1.59 -107.87 -1.59C-108.29 -1.59 -108.68 -1.65 -109.04 -1.76C-109.4 -1.88 -109.73 -2.06 -110.03 -2.3C-110.33 -2.54 -110.57 -2.88 -110.75 -3.31C-110.93 -3.74 -111.04 -4.25 -111.06 -4.84L-104.33 -4.84C-103.9 -4.84 -103.61 -4.92 -103.46 -5.08C-103.31 -5.24 -103.23 -5.47 -103.23 -5.77ZM-105.21 -6.36L-111.01 -6.36C-110.91 -7.2 -110.56 -7.87 -109.95 -8.37C-109.33 -8.88 -108.65 -9.13 -107.89 -9.13C-107.18 -9.13 -106.57 -8.89 -106.06 -8.42C-105.55 -7.95 -105.26 -7.26 -105.21 -6.36Z M-98.95 -9.57C-98.95 -9.98 -98.98 -10.24 -99.04 -10.36C-99.11 -10.47 -99.25 -10.53 -99.48 -10.53C-99.5 -10.53 -99.66 -10.51 -99.97 -10.47C-100.27 -10.44 -100.56 -10.42 -100.83 -10.42C-101.27 -10.42 -101.73 -10.46 -102.19 -10.53C-102.26 -10.49 -102.33 -10.34 -102.4 -10.09C-102.47 -9.83 -102.51 -9.54 -102.51 -9.21C-102.51 -8.99 -102.5 -8.85 -102.48 -8.79C-102.45 -8.72 -102.4 -8.68 -102.31 -8.66C-101.75 -8.64 -101.37 -8.55 -101.17 -8.41C-100.97 -8.26 -100.87 -8.02 -100.87 -7.68L-100.87 -2.54C-100.87 -2.34 -100.91 -2.19 -100.99 -2.08C-101.06 -1.98 -101.23 -1.92 -101.48 -1.92C-101.73 -1.92 -101.94 -1.88 -102.12 -1.81C-102.29 -1.73 -102.38 -1.61 -102.38 -1.46C-102.38 -1.14 -102.33 -0.83 -102.24 -0.52C-102.14 -0.22 -101.98 -0.02 -101.77 0.08C-101.3 0.03 -100.62 0 -99.75 0C-98.87 0 -98.2 0.03 -97.74 0.08C-97.54 -0.02 -97.39 -0.22 -97.29 -0.53C-97.18 -0.83 -97.13 -1.14 -97.13 -1.46C-97.13 -1.61 -97.22 -1.73 -97.39 -1.81C-97.57 -1.88 -97.78 -1.92 -98.03 -1.92C-98.17 -1.92 -98.29 -1.94 -98.38 -1.98C-98.47 -2.01 -98.53 -2.07 -98.57 -2.14C-98.61 -2.21 -98.63 -2.27 -98.64 -2.33C-98.65 -2.38 -98.65 -2.46 -98.65 -2.56L-98.65 -7.5C-98.47 -7.86 -98.19 -8.19 -97.81 -8.46C-97.43 -8.74 -97.05 -8.88 -96.67 -8.88C-96.46 -8.88 -96.27 -8.83 -96.09 -8.75L-95.98 -7.73C-95.97 -7.7 -95.97 -7.66 -95.96 -7.61C-95.96 -7.56 -95.96 -7.53 -95.95 -7.5C-95.95 -7.47 -95.94 -7.44 -95.94 -7.4C-95.93 -7.36 -95.92 -7.32 -95.92 -7.3C-95.91 -7.29 -95.9 -7.26 -95.89 -7.24C-95.88 -7.21 -95.87 -7.19 -95.86 -7.18C-95.85 -7.16 -95.83 -7.15 -95.82 -7.14C-95.8 -7.13 -95.78 -7.12 -95.75 -7.11C-95.73 -7.1 -95.7 -7.1 -95.67 -7.1C-94.44 -7.1 -93.83 -7.68 -93.83 -8.84C-93.83 -9.26 -93.94 -9.62 -94.17 -9.91C-94.41 -10.21 -94.68 -10.41 -94.99 -10.52C-95.3 -10.64 -95.63 -10.69 -95.98 -10.69C-96.5 -10.69 -97.06 -10.52 -97.64 -10.17C-98.22 -9.81 -98.65 -9.4 -98.95 -8.94Z M-89.08 -8.06C-89.12 -8.13 -89.14 -8.22 -89.14 -8.32C-89.14 -8.44 -89.08 -8.53 -88.96 -8.59C-88.83 -8.64 -88.7 -8.68 -88.55 -8.68C-88.41 -8.69 -88.28 -8.72 -88.15 -8.79C-88.03 -8.85 -87.97 -8.96 -87.97 -9.09L-87.97 -9.16C-88.07 -10.03 -88.18 -10.54 -88.3 -10.69C-88.95 -10.52 -89.7 -10.44 -90.56 -10.44C-91.4 -10.44 -92.12 -10.52 -92.71 -10.69C-92.97 -10.58 -93.1 -10.27 -93.1 -9.77C-93.1 -9.37 -93.02 -9.09 -92.86 -8.93C-92.71 -8.77 -92.43 -8.69 -92.04 -8.69C-91.95 -8.69 -91.87 -8.68 -91.8 -8.66C-91.73 -8.64 -91.68 -8.62 -91.64 -8.6C-91.59 -8.58 -91.55 -8.55 -91.51 -8.49C-91.47 -8.44 -91.44 -8.4 -91.43 -8.37C-91.41 -8.35 -91.39 -8.3 -91.36 -8.22C-91.32 -8.14 -91.31 -8.1 -91.3 -8.08L-88.17 -1.53C-88.12 -1.4 -88.03 -1.31 -87.91 -1.26C-87.79 -1.22 -87.61 -1.2 -87.37 -1.2C-87.52 -0.91 -87.67 -0.6 -87.83 -0.27C-87.99 0.06 -88.1 0.3 -88.16 0.44C-88.23 0.59 -88.31 0.75 -88.41 0.92C-88.51 1.09 -88.58 1.2 -88.62 1.25C-88.67 1.3 -88.74 1.36 -88.83 1.42C-88.92 1.47 -89.01 1.51 -89.09 1.52C-89.18 1.53 -89.29 1.53 -89.44 1.53C-89.78 1.53 -90.14 1.49 -90.52 1.39C-90.91 1.3 -91.14 1.25 -91.2 1.25C-91.37 1.25 -91.49 1.32 -91.55 1.45C-91.62 1.58 -91.65 1.84 -91.65 2.23C-91.65 2.53 -91.43 2.79 -90.99 3.03C-90.54 3.27 -90.02 3.39 -89.4 3.39C-88.64 3.39 -87.99 3.19 -87.46 2.8C-86.93 2.4 -86.47 1.78 -86.08 0.93L-82.18 -8.08C-82.16 -8.1 -82.14 -8.15 -82.11 -8.22C-82.08 -8.29 -82.06 -8.34 -82.05 -8.37C-82.04 -8.4 -82.01 -8.44 -81.97 -8.5C-81.93 -8.55 -81.89 -8.58 -81.85 -8.6C-81.81 -8.62 -81.75 -8.64 -81.68 -8.66C-81.61 -8.68 -81.53 -8.69 -81.44 -8.69C-81.04 -8.69 -80.77 -8.77 -80.62 -8.93C-80.46 -9.09 -80.38 -9.37 -80.38 -9.77C-80.38 -10.27 -80.51 -10.58 -80.76 -10.69C-81.42 -10.52 -82.14 -10.44 -82.92 -10.44C-83.66 -10.44 -84.34 -10.52 -84.98 -10.69C-85.1 -10.54 -85.21 -10.03 -85.31 -9.16L-85.31 -9.09C-85.31 -8.96 -85.26 -8.86 -85.16 -8.79C-85.06 -8.73 -84.95 -8.7 -84.83 -8.69C-84.71 -8.68 -84.6 -8.65 -84.5 -8.59C-84.4 -8.54 -84.35 -8.44 -84.35 -8.32C-84.35 -8.24 -84.36 -8.15 -84.39 -8.06L-86.57 -2.47Z M-72.73 -1.95C-73.36 -1.77 -73.9 -1.68 -74.36 -1.68C-75.06 -1.68 -75.41 -2.22 -75.41 -3.3L-75.41 -8.91L-73.98 -8.91C-73.36 -8.91 -72.94 -8.9 -72.72 -8.88C-72.51 -8.96 -72.4 -9.21 -72.4 -9.63C-72.4 -10.19 -72.57 -10.47 -72.89 -10.47C-72.93 -10.44 -73.34 -10.42 -74.11 -10.42L-75.41 -10.42L-75.41 -14.15C-75.51 -14.21 -75.64 -14.24 -75.82 -14.24C-76.07 -14.24 -76.29 -14.2 -76.48 -14.14C-76.67 -14.07 -76.82 -13.96 -76.93 -13.81C-77.05 -13.66 -77.15 -13.51 -77.22 -13.35C-77.3 -13.2 -77.36 -12.99 -77.4 -12.72C-77.44 -12.46 -77.47 -12.23 -77.49 -12.03C-77.51 -11.84 -77.53 -11.57 -77.55 -11.24C-77.58 -10.9 -77.6 -10.63 -77.63 -10.42L-79.14 -10.42C-79.47 -10.42 -79.63 -10.16 -79.63 -9.65C-79.63 -9.23 -79.52 -8.97 -79.31 -8.9C-79.24 -8.9 -78.82 -8.91 -78.05 -8.91L-77.63 -8.91L-77.63 -3.24C-77.63 -2.62 -77.55 -2.08 -77.38 -1.63C-77.22 -1.17 -77 -0.83 -76.71 -0.59C-76.43 -0.35 -76.13 -0.18 -75.82 -0.08C-75.51 0.03 -75.17 0.08 -74.8 0.08C-74.56 0.08 -74.32 0.06 -74.06 0.03C-73.81 0 -73.55 -0.06 -73.3 -0.13C-73.05 -0.2 -72.84 -0.3 -72.68 -0.43C-72.52 -0.57 -72.44 -0.73 -72.44 -0.91C-72.44 -1.23 -72.54 -1.58 -72.73 -1.95Z M-67.82 -13.16C-67.82 -13.24 -67.82 -13.33 -67.82 -13.45C-67.81 -13.57 -67.81 -13.66 -67.81 -13.7C-67.81 -14.11 -67.85 -14.37 -67.92 -14.49C-67.98 -14.6 -68.13 -14.66 -68.36 -14.66C-68.38 -14.66 -68.55 -14.64 -68.88 -14.6C-69.2 -14.57 -69.51 -14.55 -69.8 -14.55C-70.3 -14.55 -70.82 -14.59 -71.36 -14.66C-71.43 -14.62 -71.5 -14.47 -71.57 -14.22C-71.64 -13.96 -71.68 -13.67 -71.68 -13.34C-71.68 -13.12 -71.67 -12.99 -71.65 -12.92C-71.62 -12.85 -71.57 -12.81 -71.48 -12.79C-70.92 -12.77 -70.54 -12.68 -70.34 -12.54C-70.14 -12.4 -70.04 -12.15 -70.04 -11.81L-70.04 -2.43C-70.04 -2.24 -70.08 -2.08 -70.16 -1.98C-70.23 -1.87 -70.4 -1.82 -70.65 -1.82C-70.9 -1.82 -71.11 -1.78 -71.29 -1.7C-71.46 -1.62 -71.55 -1.5 -71.55 -1.35C-71.55 -0.59 -71.45 -0.12 -71.23 0.08C-70.61 0.03 -69.82 0 -68.88 0C-67.99 0 -67.23 0.03 -66.62 0.08C-66.41 -0.11 -66.3 -0.59 -66.3 -1.35C-66.3 -1.5 -66.39 -1.62 -66.56 -1.7C-66.74 -1.78 -66.95 -1.82 -67.2 -1.82C-67.34 -1.82 -67.46 -1.83 -67.55 -1.87C-67.64 -1.91 -67.7 -1.96 -67.74 -2.03C-67.78 -2.1 -67.8 -2.17 -67.81 -2.22C-67.82 -2.28 -67.82 -2.35 -67.82 -2.45L-67.82 -7.5C-67.35 -7.93 -66.84 -8.28 -66.29 -8.55C-65.75 -8.83 -65.25 -8.96 -64.79 -8.96C-64.32 -8.96 -63.94 -8.77 -63.65 -8.37C-63.36 -7.98 -63.21 -7.36 -63.21 -6.51L-63.21 -0.6C-63.21 -0.4 -63.2 -0.25 -63.16 -0.15C-63.13 -0.04 -63.09 0.02 -63.05 0.04C-63.01 0.07 -62.95 0.08 -62.88 0.08C-62.71 0.08 -62.46 0.07 -62.13 0.04C-61.8 0.01 -61.5 0 -61.23 0C-60.7 0 -60.16 0.03 -59.61 0.08C-59.33 -0.11 -59.19 -0.56 -59.19 -1.28C-59.19 -1.32 -59.2 -1.37 -59.21 -1.4C-59.22 -1.44 -59.24 -1.47 -59.28 -1.49C-59.31 -1.52 -59.34 -1.54 -59.37 -1.56C-59.41 -1.58 -59.45 -1.6 -59.52 -1.62C-59.58 -1.63 -59.63 -1.65 -59.68 -1.66C-59.72 -1.67 -59.79 -1.67 -59.86 -1.68C-59.94 -1.69 -60.01 -1.7 -60.06 -1.71C-60.12 -1.72 -60.19 -1.72 -60.29 -1.73C-60.38 -1.74 -60.46 -1.74 -60.51 -1.75C-60.83 -1.77 -61 -2.1 -61 -2.71L-61 -6.69C-61 -7.41 -61.08 -8.04 -61.25 -8.57C-61.42 -9.11 -61.65 -9.52 -61.95 -9.82C-62.24 -10.12 -62.57 -10.34 -62.92 -10.49C-63.28 -10.63 -63.67 -10.7 -64.09 -10.7C-64.83 -10.7 -65.52 -10.55 -66.16 -10.23C-66.81 -9.92 -67.36 -9.52 -67.82 -9.03Z M-56.26 -12.16C-56.05 -12.16 -55.84 -12.19 -55.64 -12.24C-55.43 -12.3 -55.24 -12.42 -55.06 -12.61C-54.88 -12.8 -54.79 -13.04 -54.79 -13.33C-54.79 -13.47 -54.8 -13.61 -54.84 -13.73C-54.88 -13.85 -54.95 -13.98 -55.05 -14.11C-55.15 -14.24 -55.31 -14.35 -55.52 -14.42C-55.73 -14.5 -55.99 -14.54 -56.3 -14.54C-57.38 -14.54 -57.92 -14.14 -57.92 -13.34C-57.92 -13.11 -57.86 -12.9 -57.74 -12.73C-57.62 -12.57 -57.46 -12.44 -57.27 -12.36C-57.08 -12.29 -56.9 -12.23 -56.74 -12.2C-56.58 -12.17 -56.42 -12.16 -56.26 -12.16ZM-54.65 -9.57C-54.65 -9.98 -54.68 -10.24 -54.75 -10.36C-54.82 -10.47 -54.97 -10.53 -55.2 -10.53C-55.21 -10.53 -55.4 -10.51 -55.74 -10.47C-56.09 -10.44 -56.42 -10.42 -56.73 -10.42C-57.2 -10.42 -57.68 -10.46 -58.18 -10.53C-58.26 -10.49 -58.33 -10.34 -58.4 -10.09C-58.47 -9.83 -58.51 -9.54 -58.51 -9.21C-58.51 -8.99 -58.49 -8.85 -58.47 -8.79C-58.45 -8.72 -58.4 -8.68 -58.31 -8.66C-57.74 -8.64 -57.36 -8.55 -57.16 -8.41C-56.96 -8.26 -56.87 -8.02 -56.87 -7.68L-56.87 -2.43C-56.87 -2.24 -56.9 -2.08 -56.98 -1.98C-57.06 -1.87 -57.23 -1.82 -57.48 -1.82C-57.73 -1.82 -57.94 -1.78 -58.12 -1.7C-58.29 -1.62 -58.38 -1.5 -58.38 -1.35C-58.38 -0.59 -58.27 -0.12 -58.06 0.08C-57.29 0.03 -56.47 0 -55.6 0C-54.75 0 -54.03 0.03 -53.45 0.08C-53.23 -0.11 -53.12 -0.59 -53.12 -1.35C-53.12 -1.5 -53.21 -1.62 -53.39 -1.7C-53.56 -1.78 -53.78 -1.82 -54.02 -1.82C-54.17 -1.82 -54.28 -1.83 -54.37 -1.87C-54.47 -1.91 -54.53 -1.96 -54.57 -2.03C-54.6 -2.1 -54.62 -2.17 -54.63 -2.22C-54.64 -2.28 -54.65 -2.35 -54.65 -2.45Z M-40.17 0.08C-39.95 -0.12 -39.84 -0.59 -39.84 -1.35C-39.84 -1.39 -39.85 -1.43 -39.87 -1.47C-39.88 -1.51 -39.91 -1.54 -39.95 -1.56C-39.98 -1.59 -40.02 -1.61 -40.06 -1.63C-40.1 -1.65 -40.15 -1.67 -40.22 -1.68C-40.29 -1.7 -40.35 -1.71 -40.4 -1.72C-40.45 -1.73 -40.52 -1.74 -40.62 -1.75C-40.71 -1.76 -40.78 -1.77 -40.84 -1.78C-40.91 -1.78 -40.99 -1.79 -41.1 -1.8C-41.21 -1.8 -41.29 -1.81 -41.36 -1.82C-41.68 -1.84 -41.85 -2.07 -41.85 -2.49L-41.85 -6.69C-41.85 -8.07 -42.13 -9.08 -42.7 -9.73C-43.26 -10.37 -44 -10.69 -44.91 -10.69C-45.57 -10.69 -46.25 -10.54 -46.96 -10.23C-47.67 -9.93 -48.31 -9.53 -48.87 -9.03C-48.87 -9.1 -48.87 -9.2 -48.86 -9.32C-48.86 -9.44 -48.86 -9.52 -48.86 -9.57C-48.86 -9.98 -48.89 -10.24 -48.96 -10.36C-49.03 -10.47 -49.18 -10.53 -49.4 -10.53C-49.42 -10.53 -49.6 -10.51 -49.92 -10.47C-50.25 -10.44 -50.56 -10.42 -50.85 -10.42C-51.26 -10.42 -51.68 -10.46 -52.11 -10.53C-52.18 -10.49 -52.25 -10.34 -52.32 -10.09C-52.4 -9.83 -52.43 -9.54 -52.43 -9.21C-52.43 -8.99 -52.42 -8.85 -52.4 -8.79C-52.37 -8.72 -52.32 -8.68 -52.24 -8.66C-51.67 -8.64 -51.29 -8.55 -51.09 -8.41C-50.89 -8.26 -50.79 -8.02 -50.79 -7.68L-50.79 -2.43C-50.79 -2.24 -50.83 -2.08 -50.91 -1.98C-50.99 -1.87 -51.15 -1.82 -51.41 -1.82C-51.65 -1.82 -51.87 -1.78 -52.04 -1.7C-52.22 -1.62 -52.3 -1.5 -52.3 -1.35C-52.3 -0.59 -52.2 -0.12 -51.98 0.08C-51.49 0.03 -50.7 0 -49.61 0C-48.52 0 -47.77 0.03 -47.37 0.08C-47.16 -0.11 -47.05 -0.59 -47.05 -1.35C-47.05 -1.5 -47.14 -1.62 -47.31 -1.7C-47.49 -1.78 -47.7 -1.82 -47.95 -1.82C-48.09 -1.82 -48.21 -1.83 -48.3 -1.87C-48.39 -1.91 -48.46 -1.96 -48.49 -2.03C-48.53 -2.1 -48.55 -2.17 -48.56 -2.22C-48.57 -2.28 -48.57 -2.35 -48.57 -2.45L-48.57 -7.6C-48.1 -7.99 -47.59 -8.32 -47.05 -8.58C-46.5 -8.84 -46 -8.96 -45.55 -8.96C-45.1 -8.96 -44.75 -8.77 -44.47 -8.37C-44.2 -7.98 -44.06 -7.36 -44.06 -6.51L-44.06 -0.66C-44.06 -0.17 -43.95 0.08 -43.73 0.08C-43.61 0.08 -43.35 0.07 -42.96 0.04C-42.57 0.01 -42.21 0 -41.87 0C-41.37 0 -40.8 0.03 -40.17 0.08Z M-28.91 1.27C-28.91 0.7 -29.05 0.22 -29.35 -0.15C-29.64 -0.53 -30.02 -0.79 -30.49 -0.95C-30.96 -1.1 -31.47 -1.21 -32.04 -1.28C-32.61 -1.34 -33.17 -1.38 -33.74 -1.37C-34.3 -1.37 -34.81 -1.37 -35.28 -1.38C-35.75 -1.38 -36.13 -1.43 -36.43 -1.51C-36.72 -1.6 -36.87 -1.74 -36.87 -1.94C-36.87 -2.37 -36.76 -2.79 -36.54 -3.22C-36.54 -3.22 -36.41 -3.19 -36.15 -3.12C-35.9 -3.05 -35.62 -2.99 -35.31 -2.94C-35.01 -2.9 -34.69 -2.87 -34.37 -2.87C-32.91 -2.87 -31.76 -3.22 -30.93 -3.92C-30.1 -4.61 -29.69 -5.48 -29.69 -6.51C-29.69 -7.13 -29.82 -7.71 -30.08 -8.23C-30.34 -8.76 -30.69 -9.17 -31.13 -9.47C-31.06 -9.47 -30.96 -9.47 -30.83 -9.46C-30.69 -9.46 -30.6 -9.45 -30.54 -9.45L-29.95 -9.45C-29.81 -9.45 -29.66 -9.46 -29.5 -9.47C-29.33 -9.49 -29.21 -9.5 -29.15 -9.52C-29.08 -9.53 -29 -9.56 -28.92 -9.6C-28.83 -9.64 -28.78 -9.68 -28.75 -9.73C-28.72 -9.77 -28.69 -9.84 -28.66 -9.92C-28.63 -10 -28.61 -10.08 -28.61 -10.18C-28.61 -10.27 -28.6 -10.38 -28.6 -10.53L-28.6 -10.69C-28.6 -10.97 -28.66 -11.16 -28.77 -11.25C-28.88 -11.35 -29.15 -11.4 -29.58 -11.4C-29.85 -11.4 -30.1 -11.36 -30.35 -11.29C-30.59 -11.23 -30.81 -11.13 -31 -11C-31.18 -10.87 -31.34 -10.75 -31.45 -10.65C-31.56 -10.56 -31.69 -10.44 -31.82 -10.29C-31.95 -10.15 -32.01 -10.07 -32.02 -10.07C-32.39 -10.29 -32.76 -10.45 -33.15 -10.55C-33.54 -10.64 -34.02 -10.69 -34.59 -10.69C-35.26 -10.69 -35.89 -10.58 -36.47 -10.35C-37.06 -10.12 -37.55 -9.81 -37.95 -9.43C-38.35 -9.06 -38.66 -8.62 -38.89 -8.14C-39.11 -7.65 -39.23 -7.16 -39.23 -6.65C-39.23 -6.12 -39.11 -5.6 -38.86 -5.11C-38.62 -4.61 -38.26 -4.19 -37.77 -3.83C-38.72 -3.05 -39.2 -2.27 -39.2 -1.5C-39.2 -0.7 -38.82 -0.18 -38.08 0.08C-38.61 1.28 -38.88 2.35 -38.88 3.3C-38.88 3.76 -38.45 4.13 -37.58 4.41C-36.72 4.69 -35.68 4.82 -34.45 4.82C-33.79 4.82 -33.2 4.8 -32.69 4.74C-32.18 4.69 -31.68 4.58 -31.19 4.42C-30.69 4.27 -30.29 4.06 -29.97 3.8C-29.65 3.55 -29.39 3.2 -29.2 2.78C-29 2.35 -28.91 1.85 -28.91 1.27ZM-34.47 -4.53C-35.38 -4.53 -36.05 -4.74 -36.48 -5.16C-36.91 -5.58 -37.12 -6.1 -37.12 -6.71C-37.12 -7.37 -36.89 -7.92 -36.45 -8.37C-36 -8.83 -35.33 -9.05 -34.43 -9.05C-33.54 -9.05 -32.86 -8.82 -32.4 -8.36C-31.94 -7.9 -31.71 -7.34 -31.71 -6.7C-31.71 -6.41 -31.76 -6.14 -31.85 -5.89C-31.94 -5.65 -32.09 -5.42 -32.29 -5.21C-32.5 -5 -32.78 -4.83 -33.15 -4.71C-33.53 -4.59 -33.96 -4.53 -34.47 -4.53ZM-35.6 0.42L-33.69 0.42C-32.04 0.42 -31.22 0.78 -31.22 1.51C-31.22 1.75 -31.26 1.96 -31.33 2.13C-31.41 2.31 -31.54 2.46 -31.73 2.61C-31.93 2.75 -32.21 2.86 -32.57 2.93C-32.94 3.01 -33.4 3.05 -33.95 3.05C-34.62 3.05 -35.36 2.97 -36.18 2.82C-36.32 2.8 -36.45 2.75 -36.55 2.68C-36.66 2.6 -36.74 2.5 -36.81 2.36C-36.87 2.22 -36.92 2.09 -36.96 1.96C-36.99 1.84 -37.02 1.66 -37.04 1.43C-37.05 1.2 -37.06 1.01 -37.07 0.87C-37.07 0.73 -37.07 0.52 -37.07 0.24C-36.79 0.32 -36.3 0.37 -35.6 0.42Z M-15.87 -1.33C-15.87 -1.03 -15.81 -0.76 -15.69 -0.52C-15.58 -0.28 -15.48 -0.13 -15.42 -0.07C-15.35 -0.01 -15.29 0.04 -15.24 0.07C-14.85 0.02 -14.43 0 -13.97 0C-13.47 0 -13.07 0.03 -12.75 0.08C-12.54 -0.11 -12.43 -0.59 -12.43 -1.36C-12.43 -1.44 -12.46 -1.5 -12.51 -1.55C-12.57 -1.6 -12.66 -1.65 -12.79 -1.68C-12.92 -1.71 -13.04 -1.74 -13.13 -1.75C-13.23 -1.77 -13.38 -1.79 -13.58 -1.81C-13.7 -1.82 -13.79 -1.84 -13.84 -1.87C-13.89 -1.9 -13.94 -1.98 -13.98 -2.11C-14.02 -2.25 -14.04 -2.45 -14.04 -2.71L-14.04 -5.84C-14.04 -6.75 -14.14 -7.53 -14.33 -8.16C-14.52 -8.8 -14.8 -9.3 -15.18 -9.67C-15.55 -10.03 -15.97 -10.29 -16.46 -10.45C-16.94 -10.61 -17.51 -10.69 -18.15 -10.69C-18.84 -10.69 -19.52 -10.63 -20.2 -10.49C-20.88 -10.36 -21.47 -10.15 -21.97 -9.87C-22.47 -9.58 -22.72 -9.26 -22.72 -8.9C-22.72 -8.47 -22.46 -8.04 -21.93 -7.6C-21.51 -8.06 -20.94 -8.42 -20.23 -8.68C-19.52 -8.94 -18.88 -9.07 -18.3 -9.07C-17.51 -9.07 -16.97 -8.86 -16.69 -8.45C-16.41 -8.03 -16.27 -7.27 -16.27 -6.16C-17.02 -6.05 -17.56 -5.97 -17.89 -5.91C-19.66 -5.62 -20.91 -5.28 -21.64 -4.89C-22.61 -4.38 -23.1 -3.63 -23.1 -2.63C-23.1 -1.69 -22.79 -0.97 -22.19 -0.48C-21.58 0.02 -20.81 0.26 -19.88 0.26C-19.13 0.26 -18.4 0.12 -17.67 -0.16C-16.94 -0.44 -16.34 -0.83 -15.87 -1.33ZM-19.43 -1.47C-20.34 -1.47 -20.79 -1.87 -20.79 -2.66C-20.79 -3.12 -20.48 -3.48 -19.86 -3.73C-19.24 -3.98 -18.04 -4.27 -16.26 -4.59L-16.26 -2.86C-16.4 -2.59 -16.82 -2.3 -17.51 -1.97C-18.2 -1.64 -18.84 -1.47 -19.43 -1.47Z M-7.98 -5.9C-7.98 -6.4 -7.89 -6.85 -7.71 -7.26C-7.54 -7.67 -7.31 -8 -7.02 -8.25C-6.74 -8.51 -6.42 -8.7 -6.06 -8.83C-5.71 -8.97 -5.35 -9.03 -4.99 -9.03C-4.15 -9.03 -3.42 -8.7 -2.81 -8.03C-2.2 -7.36 -1.89 -6.42 -1.89 -5.22C-1.89 -4.03 -2.18 -3.09 -2.75 -2.42C-3.33 -1.74 -4.01 -1.41 -4.79 -1.41C-5.54 -1.41 -6.2 -1.59 -6.79 -1.97C-7.37 -2.34 -7.77 -2.8 -7.98 -3.35ZM-7.98 -13.16C-7.98 -13.24 -7.98 -13.33 -7.97 -13.45C-7.97 -13.57 -7.97 -13.66 -7.97 -13.7C-7.97 -14.11 -8 -14.37 -8.07 -14.49C-8.14 -14.6 -8.29 -14.66 -8.52 -14.66C-8.54 -14.66 -8.71 -14.64 -9.03 -14.6C-9.36 -14.57 -9.67 -14.55 -9.96 -14.55C-10.46 -14.55 -10.97 -14.59 -11.51 -14.66C-11.59 -14.62 -11.66 -14.47 -11.73 -14.22C-11.8 -13.96 -11.84 -13.67 -11.84 -13.34C-11.84 -13.12 -11.82 -12.99 -11.8 -12.92C-11.78 -12.85 -11.73 -12.81 -11.64 -12.79C-11.07 -12.77 -10.69 -12.68 -10.49 -12.54C-10.29 -12.4 -10.2 -12.15 -10.2 -11.81L-10.2 -2.68L-11.03 -1.91C-11.39 -1.58 -11.57 -1.21 -11.57 -0.82C-11.57 -0.57 -11.49 -0.35 -11.32 -0.19C-11.15 -0.02 -10.93 0.07 -10.67 0.07C-10.35 0.07 -10.01 -0.09 -9.66 -0.4L-8.68 -1.38C-7.53 -0.28 -6.22 0.26 -4.76 0.26C-4.1 0.26 -3.47 0.15 -2.86 -0.09C-2.26 -0.32 -1.71 -0.66 -1.22 -1.1C-0.72 -1.55 -0.33 -2.12 -0.04 -2.84C0.25 -3.55 0.4 -4.35 0.4 -5.22C0.4 -6.1 0.25 -6.9 -0.04 -7.61C-0.34 -8.32 -0.73 -8.89 -1.23 -9.33C-1.72 -9.77 -2.27 -10.11 -2.88 -10.34C-3.49 -10.58 -4.13 -10.69 -4.79 -10.69C-5.4 -10.69 -6.01 -10.55 -6.61 -10.27C-7.2 -9.99 -7.66 -9.58 -7.98 -9.06Z M1.09 -5.22C1.09 -4.35 1.25 -3.55 1.56 -2.84C1.88 -2.12 2.29 -1.55 2.81 -1.1C3.33 -0.66 3.92 -0.32 4.56 -0.09C5.21 0.15 5.88 0.26 6.58 0.26C7.28 0.26 7.95 0.15 8.59 -0.09C9.24 -0.32 9.82 -0.66 10.34 -1.1C10.85 -1.55 11.27 -2.12 11.58 -2.84C11.89 -3.55 12.05 -4.35 12.05 -5.22C12.05 -6.1 11.89 -6.9 11.58 -7.61C11.27 -8.32 10.85 -8.89 10.34 -9.33C9.82 -9.77 9.24 -10.11 8.59 -10.34C7.95 -10.58 7.28 -10.69 6.58 -10.69C5.88 -10.69 5.21 -10.58 4.56 -10.34C3.92 -10.11 3.33 -9.77 2.81 -9.33C2.29 -8.89 1.88 -8.32 1.56 -7.61C1.25 -6.9 1.09 -6.1 1.09 -5.22ZM3.38 -5.22C3.38 -6.42 3.69 -7.36 4.33 -8.03C4.96 -8.7 5.7 -9.03 6.56 -9.03C6.97 -9.03 7.37 -8.95 7.74 -8.79C8.12 -8.63 8.46 -8.39 8.76 -8.09C9.07 -7.78 9.31 -7.38 9.49 -6.88C9.67 -6.39 9.77 -5.84 9.77 -5.22C9.77 -4.61 9.67 -4.06 9.49 -3.56C9.31 -3.07 9.07 -2.67 8.76 -2.36C8.46 -2.05 8.12 -1.81 7.74 -1.65C7.37 -1.49 6.97 -1.41 6.56 -1.41C5.7 -1.41 4.96 -1.74 4.33 -2.42C3.69 -3.09 3.38 -4.03 3.38 -5.22Z M23.32 -9.82C23.32 -10.29 23.32 -10.53 23.31 -10.53C23.3 -10.53 23.07 -10.51 22.62 -10.47C22.18 -10.44 21.74 -10.42 21.31 -10.42C20.79 -10.42 20.23 -10.46 19.62 -10.53C19.4 -10.34 19.3 -9.86 19.3 -9.1C19.3 -9.06 19.3 -9.02 19.32 -8.98C19.33 -8.94 19.35 -8.91 19.38 -8.89C19.42 -8.86 19.45 -8.84 19.48 -8.82C19.51 -8.8 19.56 -8.78 19.62 -8.76C19.69 -8.75 19.74 -8.74 19.79 -8.73C19.83 -8.72 19.89 -8.71 19.97 -8.7C20.05 -8.69 20.12 -8.68 20.17 -8.67C20.23 -8.67 20.3 -8.66 20.4 -8.65C20.49 -8.65 20.56 -8.64 20.62 -8.63C20.94 -8.61 21.1 -8.28 21.1 -7.67L21.1 -2.94C20.78 -2.49 20.38 -2.14 19.89 -1.87C19.4 -1.61 18.9 -1.48 18.41 -1.48C17.83 -1.48 17.35 -1.66 16.98 -2.02C16.61 -2.38 16.43 -2.92 16.43 -3.63L16.43 -9.82C16.43 -10.29 16.32 -10.53 16.09 -10.53C16.08 -10.53 15.89 -10.51 15.51 -10.47C15.14 -10.44 14.77 -10.42 14.41 -10.42C13.9 -10.42 13.34 -10.46 12.72 -10.53C12.51 -10.33 12.4 -9.86 12.4 -9.1C12.4 -9.06 12.41 -9.02 12.42 -8.98C12.43 -8.94 12.46 -8.91 12.49 -8.89C12.52 -8.86 12.56 -8.84 12.59 -8.82C12.62 -8.8 12.67 -8.78 12.73 -8.76C12.79 -8.75 12.85 -8.74 12.89 -8.73C12.94 -8.72 13 -8.71 13.08 -8.7C13.15 -8.69 13.22 -8.68 13.28 -8.67C13.33 -8.67 13.41 -8.66 13.5 -8.65C13.6 -8.65 13.67 -8.64 13.72 -8.63C14.05 -8.61 14.21 -8.28 14.21 -7.67L14.21 -3.75C14.21 -3.07 14.31 -2.47 14.5 -1.94C14.7 -1.42 14.96 -1 15.3 -0.68C15.64 -0.37 16.02 -0.14 16.44 0.02C16.86 0.18 17.31 0.26 17.79 0.26C18.46 0.26 19.11 0.12 19.75 -0.18C20.39 -0.47 20.94 -0.88 21.4 -1.41C21.4 -0.73 21.42 -0.31 21.48 -0.16C21.53 0 21.69 0.08 21.95 0.08C22.02 0.08 22.2 0.07 22.49 0.04C22.78 0.01 23.05 0 23.32 0C23.72 0 24.16 0.03 24.64 0.08C24.7 0.03 24.77 -0.12 24.85 -0.37C24.92 -0.62 24.96 -0.9 24.96 -1.23C24.96 -1.45 24.92 -1.6 24.84 -1.67C24.76 -1.74 24.57 -1.78 24.28 -1.78C24.08 -1.78 23.93 -1.79 23.81 -1.81C23.69 -1.83 23.6 -1.86 23.53 -1.89C23.46 -1.92 23.41 -1.98 23.38 -2.07C23.35 -2.15 23.34 -2.23 23.33 -2.3C23.32 -2.38 23.32 -2.5 23.32 -2.67Z M32.49 -1.95C31.87 -1.77 31.32 -1.68 30.87 -1.68C30.17 -1.68 29.81 -2.22 29.81 -3.3L29.81 -8.91L31.24 -8.91C31.87 -8.91 32.29 -8.9 32.5 -8.88C32.71 -8.96 32.82 -9.21 32.82 -9.63C32.82 -10.19 32.66 -10.47 32.33 -10.47C32.29 -10.44 31.89 -10.42 31.11 -10.42L29.81 -10.42L29.81 -14.15C29.72 -14.21 29.58 -14.24 29.4 -14.24C29.15 -14.24 28.93 -14.2 28.75 -14.14C28.56 -14.07 28.41 -13.96 28.29 -13.81C28.17 -13.66 28.08 -13.51 28 -13.35C27.93 -13.2 27.87 -12.99 27.83 -12.72C27.78 -12.46 27.75 -12.23 27.73 -12.03C27.71 -11.84 27.69 -11.57 27.67 -11.24C27.65 -10.9 27.62 -10.63 27.6 -10.42L26.08 -10.42C25.76 -10.42 25.6 -10.16 25.6 -9.65C25.6 -9.23 25.7 -8.97 25.92 -8.9C25.99 -8.9 26.41 -8.91 27.18 -8.91L27.6 -8.91L27.6 -3.24C27.6 -2.62 27.68 -2.08 27.84 -1.63C28 -1.17 28.23 -0.83 28.51 -0.59C28.79 -0.35 29.09 -0.18 29.4 -0.08C29.72 0.03 30.06 0.08 30.42 0.08C30.66 0.08 30.91 0.06 31.16 0.03C31.42 0 31.67 -0.06 31.92 -0.13C32.18 -0.2 32.38 -0.3 32.54 -0.43C32.7 -0.57 32.78 -0.73 32.78 -0.91C32.78 -1.23 32.69 -1.58 32.49 -1.95Z M47.37 -2.59C47.37 -3.13 47.25 -3.61 47.02 -4.03C46.78 -4.45 46.47 -4.79 46.09 -5.04C45.72 -5.29 45.3 -5.52 44.84 -5.72C44.39 -5.92 43.93 -6.09 43.48 -6.23C43.02 -6.37 42.6 -6.52 42.23 -6.67C41.85 -6.81 41.54 -6.99 41.3 -7.2C41.07 -7.41 40.95 -7.65 40.95 -7.92C40.95 -8.3 41.11 -8.61 41.43 -8.86C41.75 -9.1 42.25 -9.23 42.91 -9.23C43.25 -9.23 43.65 -9.17 44.13 -9.06C44.6 -8.95 44.88 -8.85 44.97 -8.76L45.11 -7.39C45.11 -7.37 45.11 -7.32 45.12 -7.25C45.13 -7.18 45.14 -7.14 45.14 -7.12C45.14 -7.1 45.15 -7.07 45.17 -7.03C45.19 -6.98 45.21 -6.95 45.23 -6.94C45.25 -6.92 45.28 -6.91 45.33 -6.89C45.37 -6.88 45.42 -6.87 45.49 -6.87C45.83 -6.87 46.12 -6.93 46.36 -7.03C46.6 -7.13 46.77 -7.26 46.87 -7.41C46.97 -7.57 47.04 -7.71 47.08 -7.82C47.11 -7.94 47.13 -8.05 47.13 -8.15C47.13 -9.85 45.67 -10.69 42.75 -10.69C42.04 -10.69 41.38 -10.6 40.76 -10.41C40.14 -10.22 39.61 -9.92 39.18 -9.49C38.75 -9.07 38.54 -8.57 38.54 -7.99C38.54 -7.54 38.63 -7.14 38.82 -6.78C39.01 -6.42 39.25 -6.13 39.56 -5.91C39.87 -5.69 40.22 -5.48 40.61 -5.29C41 -5.1 41.4 -4.95 41.81 -4.82C42.22 -4.7 42.62 -4.57 43.01 -4.42C43.41 -4.27 43.76 -4.13 44.06 -3.98C44.37 -3.84 44.62 -3.65 44.8 -3.42C44.99 -3.19 45.09 -2.93 45.09 -2.64C45.09 -2.22 44.9 -1.89 44.53 -1.66C44.15 -1.42 43.68 -1.3 43.11 -1.3C42.62 -1.3 42.15 -1.33 41.67 -1.41C41.2 -1.48 40.85 -1.58 40.61 -1.71L40.61 -3.04C40.61 -3.24 40.58 -3.38 40.52 -3.45C40.46 -3.52 40.34 -3.55 40.16 -3.55C39.02 -3.55 38.45 -3.09 38.45 -2.16C38.45 -1.34 38.84 -0.73 39.61 -0.33C40.39 0.07 41.47 0.26 42.85 0.26C43.75 0.26 44.53 0.17 45.19 -0.02C45.84 -0.21 46.37 -0.52 46.77 -0.95C47.17 -1.39 47.37 -1.93 47.37 -2.59Z M54.91 -1.95C54.29 -1.77 53.75 -1.68 53.29 -1.68C52.59 -1.68 52.24 -2.22 52.24 -3.3L52.24 -8.91L53.66 -8.91C54.29 -8.91 54.71 -8.9 54.92 -8.88C55.14 -8.96 55.24 -9.21 55.24 -9.63C55.24 -10.19 55.08 -10.47 54.76 -10.47C54.72 -10.44 54.31 -10.42 53.54 -10.42L52.24 -10.42L52.24 -14.15C52.14 -14.21 52 -14.24 51.83 -14.24C51.57 -14.24 51.35 -14.2 51.17 -14.14C50.98 -14.07 50.83 -13.96 50.71 -13.81C50.6 -13.66 50.5 -13.51 50.42 -13.35C50.35 -13.2 50.29 -12.99 50.25 -12.72C50.21 -12.46 50.18 -12.23 50.16 -12.03C50.14 -11.84 50.12 -11.57 50.09 -11.24C50.07 -10.9 50.05 -10.63 50.02 -10.42L48.51 -10.42C48.18 -10.42 48.02 -10.16 48.02 -9.65C48.02 -9.23 48.13 -8.97 48.34 -8.9C48.41 -8.9 48.83 -8.91 49.6 -8.91L50.02 -8.91L50.02 -3.24C50.02 -2.62 50.1 -2.08 50.26 -1.63C50.43 -1.17 50.65 -0.83 50.93 -0.59C51.22 -0.35 51.51 -0.18 51.83 -0.08C52.14 0.03 52.48 0.08 52.84 0.08C53.08 0.08 53.33 0.06 53.58 0.03C53.84 0 54.09 -0.06 54.35 -0.13C54.6 -0.2 54.81 -0.3 54.97 -0.43C55.13 -0.57 55.21 -0.73 55.21 -0.91C55.21 -1.23 55.11 -1.58 54.91 -1.95Z M63.21 -1.33C63.21 -1.03 63.27 -0.76 63.39 -0.52C63.51 -0.28 63.6 -0.13 63.67 -0.07C63.74 -0.01 63.79 0.04 63.84 0.07C64.23 0.02 64.65 0 65.11 0C65.61 0 66.02 0.03 66.33 0.08C66.54 -0.11 66.65 -0.59 66.65 -1.36C66.65 -1.44 66.62 -1.5 66.57 -1.55C66.51 -1.6 66.42 -1.65 66.29 -1.68C66.16 -1.71 66.04 -1.74 65.95 -1.75C65.85 -1.77 65.7 -1.79 65.5 -1.81C65.38 -1.82 65.3 -1.84 65.24 -1.87C65.19 -1.9 65.14 -1.98 65.1 -2.11C65.06 -2.25 65.04 -2.45 65.04 -2.71L65.04 -5.84C65.04 -6.75 64.94 -7.53 64.75 -8.16C64.56 -8.8 64.28 -9.3 63.91 -9.67C63.54 -10.03 63.11 -10.29 62.62 -10.45C62.14 -10.61 61.57 -10.69 60.93 -10.69C60.24 -10.69 59.56 -10.63 58.88 -10.49C58.2 -10.36 57.61 -10.15 57.11 -9.87C56.61 -9.58 56.36 -9.26 56.36 -8.9C56.36 -8.47 56.62 -8.04 57.15 -7.6C57.57 -8.06 58.14 -8.42 58.85 -8.68C59.56 -8.94 60.2 -9.07 60.78 -9.07C61.58 -9.07 62.11 -8.86 62.39 -8.45C62.67 -8.03 62.81 -7.27 62.81 -6.16C62.06 -6.05 61.52 -5.97 61.19 -5.91C59.42 -5.62 58.17 -5.28 57.44 -4.89C56.47 -4.38 55.99 -3.63 55.99 -2.63C55.99 -1.69 56.29 -0.97 56.89 -0.48C57.5 0.02 58.27 0.26 59.2 0.26C59.95 0.26 60.69 0.12 61.41 -0.16C62.14 -0.44 62.74 -0.83 63.21 -1.33ZM59.65 -1.47C58.74 -1.47 58.29 -1.87 58.29 -2.66C58.29 -3.12 58.6 -3.48 59.22 -3.73C59.85 -3.98 61.04 -4.27 62.82 -4.59L62.82 -2.86C62.68 -2.59 62.26 -2.3 61.57 -1.97C60.88 -1.64 60.24 -1.47 59.65 -1.47Z M74.2 -1.95C73.57 -1.77 73.03 -1.68 72.58 -1.68C71.88 -1.68 71.52 -2.22 71.52 -3.3L71.52 -8.91L72.95 -8.91C73.57 -8.91 73.99 -8.9 74.21 -8.88C74.42 -8.96 74.53 -9.21 74.53 -9.63C74.53 -10.19 74.37 -10.47 74.04 -10.47C74 -10.44 73.6 -10.42 72.82 -10.42L71.52 -10.42L71.52 -14.15C71.43 -14.21 71.29 -14.24 71.11 -14.24C70.86 -14.24 70.64 -14.2 70.45 -14.14C70.27 -14.07 70.12 -13.96 70 -13.81C69.88 -13.66 69.79 -13.51 69.71 -13.35C69.64 -13.2 69.58 -12.99 69.54 -12.72C69.49 -12.46 69.46 -12.23 69.44 -12.03C69.42 -11.84 69.4 -11.57 69.38 -11.24C69.36 -10.9 69.33 -10.63 69.31 -10.42L67.79 -10.42C67.47 -10.42 67.3 -10.16 67.3 -9.65C67.3 -9.23 67.41 -8.97 67.63 -8.9C67.7 -8.9 68.12 -8.91 68.89 -8.91L69.31 -8.91L69.31 -3.24C69.31 -2.62 69.39 -2.08 69.55 -1.63C69.71 -1.17 69.94 -0.83 70.22 -0.59C70.5 -0.35 70.8 -0.18 71.11 -0.08C71.43 0.03 71.76 0.08 72.13 0.08C72.37 0.08 72.62 0.06 72.87 0.03C73.13 0 73.38 -0.06 73.63 -0.13C73.89 -0.2 74.09 -0.3 74.25 -0.43C74.41 -0.57 74.49 -0.73 74.49 -0.91C74.49 -1.23 74.39 -1.58 74.2 -1.95Z M77.58 -12.16C77.79 -12.16 77.99 -12.19 78.2 -12.24C78.4 -12.3 78.6 -12.42 78.78 -12.61C78.96 -12.8 79.05 -13.04 79.05 -13.33C79.05 -13.47 79.03 -13.61 78.99 -13.73C78.96 -13.85 78.89 -13.98 78.78 -14.11C78.68 -14.24 78.53 -14.35 78.32 -14.42C78.1 -14.5 77.85 -14.54 77.54 -14.54C76.46 -14.54 75.92 -14.14 75.92 -13.34C75.92 -13.11 75.98 -12.9 76.1 -12.73C76.22 -12.57 76.38 -12.44 76.57 -12.36C76.76 -12.29 76.94 -12.23 77.1 -12.2C77.26 -12.17 77.42 -12.16 77.58 -12.16ZM79.19 -9.57C79.19 -9.98 79.16 -10.24 79.09 -10.36C79.02 -10.47 78.87 -10.53 78.64 -10.53C78.62 -10.53 78.44 -10.51 78.1 -10.47C77.75 -10.44 77.42 -10.42 77.11 -10.42C76.64 -10.42 76.16 -10.46 75.65 -10.53C75.58 -10.49 75.51 -10.34 75.44 -10.09C75.37 -9.83 75.33 -9.54 75.33 -9.21C75.33 -8.99 75.34 -8.85 75.37 -8.79C75.39 -8.72 75.44 -8.68 75.53 -8.66C76.09 -8.64 76.48 -8.55 76.67 -8.41C76.87 -8.26 76.97 -8.02 76.97 -7.68L76.97 -2.43C76.97 -2.24 76.93 -2.08 76.86 -1.98C76.78 -1.87 76.61 -1.82 76.36 -1.82C76.11 -1.82 75.9 -1.78 75.72 -1.7C75.55 -1.62 75.46 -1.5 75.46 -1.35C75.46 -0.59 75.57 -0.12 75.78 0.08C76.54 0.03 77.36 0 78.24 0C79.09 0 79.8 0.03 80.39 0.08C80.61 -0.11 80.71 -0.59 80.71 -1.35C80.71 -1.5 80.63 -1.62 80.45 -1.7C80.27 -1.78 80.06 -1.82 79.81 -1.82C79.67 -1.82 79.55 -1.83 79.46 -1.87C79.37 -1.91 79.31 -1.96 79.27 -2.03C79.24 -2.1 79.21 -2.17 79.2 -2.22C79.19 -2.28 79.19 -2.35 79.19 -2.45Z M81.36 -5.22C81.36 -4.35 81.51 -3.55 81.83 -2.84C82.14 -2.12 82.56 -1.55 83.08 -1.1C83.6 -0.66 84.18 -0.32 84.82 -0.09C85.47 0.15 86.14 0.26 86.85 0.26C87.54 0.26 88.21 0.15 88.86 -0.09C89.5 -0.32 90.08 -0.66 90.6 -1.1C91.12 -1.55 91.53 -2.12 91.85 -2.84C92.16 -3.55 92.31 -4.35 92.31 -5.22C92.31 -6.1 92.16 -6.9 91.85 -7.61C91.53 -8.32 91.12 -8.89 90.6 -9.33C90.08 -9.77 89.5 -10.11 88.86 -10.34C88.21 -10.58 87.54 -10.69 86.85 -10.69C86.14 -10.69 85.47 -10.58 84.82 -10.34C84.18 -10.11 83.6 -9.77 83.08 -9.33C82.56 -8.89 82.14 -8.32 81.83 -7.61C81.51 -6.9 81.36 -6.1 81.36 -5.22ZM83.64 -5.22C83.64 -6.42 83.96 -7.36 84.59 -8.03C85.22 -8.7 85.97 -9.03 86.83 -9.03C87.24 -9.03 87.63 -8.95 88.01 -8.79C88.39 -8.63 88.73 -8.39 89.03 -8.09C89.33 -7.78 89.57 -7.38 89.76 -6.88C89.94 -6.39 90.03 -5.84 90.03 -5.22C90.03 -4.61 89.94 -4.06 89.76 -3.56C89.57 -3.07 89.33 -2.67 89.03 -2.36C88.73 -2.05 88.39 -1.81 88.01 -1.65C87.63 -1.49 87.24 -1.41 86.83 -1.41C85.97 -1.41 85.22 -1.74 84.59 -2.42C83.96 -3.09 83.64 -4.03 83.64 -5.22Z M105.33 0.08C105.55 -0.12 105.65 -0.59 105.65 -1.35C105.65 -1.39 105.65 -1.43 105.63 -1.47C105.61 -1.51 105.59 -1.54 105.55 -1.56C105.52 -1.59 105.48 -1.61 105.44 -1.63C105.4 -1.65 105.35 -1.67 105.28 -1.68C105.21 -1.7 105.15 -1.71 105.1 -1.72C105.05 -1.73 104.97 -1.74 104.88 -1.75C104.79 -1.76 104.72 -1.77 104.65 -1.78C104.59 -1.78 104.51 -1.79 104.4 -1.8C104.29 -1.8 104.21 -1.81 104.14 -1.82C103.82 -1.84 103.65 -2.07 103.65 -2.49L103.65 -6.69C103.65 -8.07 103.37 -9.08 102.8 -9.73C102.24 -10.37 101.5 -10.69 100.59 -10.69C99.93 -10.69 99.24 -10.54 98.54 -10.23C97.83 -9.93 97.19 -9.53 96.63 -9.03C96.63 -9.1 96.63 -9.2 96.64 -9.32C96.64 -9.44 96.64 -9.52 96.64 -9.57C96.64 -9.98 96.61 -10.24 96.54 -10.36C96.47 -10.47 96.32 -10.53 96.09 -10.53C96.07 -10.53 95.9 -10.51 95.58 -10.47C95.25 -10.44 94.94 -10.42 94.65 -10.42C94.24 -10.42 93.82 -10.46 93.39 -10.53C93.32 -10.49 93.25 -10.34 93.17 -10.09C93.1 -9.83 93.07 -9.54 93.07 -9.21C93.07 -8.99 93.08 -8.85 93.1 -8.79C93.12 -8.72 93.18 -8.68 93.26 -8.66C93.83 -8.64 94.21 -8.55 94.41 -8.41C94.61 -8.26 94.71 -8.02 94.71 -7.68L94.71 -2.43C94.71 -2.24 94.67 -2.08 94.59 -1.98C94.51 -1.87 94.35 -1.82 94.09 -1.82C93.84 -1.82 93.63 -1.78 93.46 -1.7C93.28 -1.62 93.19 -1.5 93.19 -1.35C93.19 -0.59 93.3 -0.12 93.52 0.08C94 0.03 94.79 0 95.89 0C96.98 0 97.73 0.03 98.13 0.08C98.34 -0.11 98.45 -0.59 98.45 -1.35C98.45 -1.5 98.36 -1.62 98.18 -1.7C98.01 -1.78 97.8 -1.82 97.55 -1.82C97.41 -1.82 97.29 -1.83 97.2 -1.87C97.11 -1.91 97.04 -1.96 97.01 -2.03C96.97 -2.1 96.95 -2.17 96.94 -2.22C96.93 -2.28 96.92 -2.35 96.92 -2.45L96.92 -7.6C97.4 -7.99 97.91 -8.32 98.45 -8.58C99 -8.84 99.5 -8.96 99.95 -8.96C100.39 -8.96 100.75 -8.77 101.03 -8.37C101.3 -7.98 101.44 -7.36 101.44 -6.51L101.44 -0.66C101.44 -0.17 101.55 0.08 101.77 0.08C101.89 0.08 102.15 0.07 102.54 0.04C102.93 0.01 103.29 0 103.62 0C104.13 0 104.7 0.03 105.33 0.08Z M116.35 -5.77C116.35 -6.43 116.26 -7.03 116.09 -7.58C115.92 -8.12 115.68 -8.59 115.38 -8.97C115.08 -9.35 114.73 -9.67 114.33 -9.94C113.92 -10.2 113.49 -10.39 113.04 -10.52C112.58 -10.64 112.11 -10.7 111.61 -10.7C110.94 -10.7 110.29 -10.59 109.65 -10.35C109.02 -10.12 108.44 -9.78 107.93 -9.35C107.42 -8.92 107 -8.36 106.69 -7.68C106.38 -6.99 106.22 -6.24 106.22 -5.42C106.22 -4.58 106.33 -3.83 106.54 -3.16C106.76 -2.5 107.04 -1.96 107.39 -1.53C107.74 -1.11 108.16 -0.76 108.65 -0.48C109.13 -0.21 109.63 -0.01 110.13 0.1C110.64 0.21 111.17 0.26 111.73 0.26C112.41 0.26 113.07 0.18 113.7 0C114.33 -0.18 114.83 -0.4 115.21 -0.67C115.58 -0.94 115.76 -1.21 115.76 -1.49C115.76 -1.92 115.58 -2.35 115.21 -2.78C114.7 -2.41 114.14 -2.11 113.53 -1.9C112.91 -1.7 112.3 -1.59 111.71 -1.59C111.29 -1.59 110.9 -1.65 110.54 -1.76C110.18 -1.88 109.85 -2.06 109.55 -2.3C109.25 -2.54 109.01 -2.88 108.83 -3.31C108.65 -3.74 108.54 -4.25 108.52 -4.84L115.25 -4.84C115.68 -4.84 115.97 -4.92 116.12 -5.08C116.27 -5.24 116.35 -5.47 116.35 -5.77ZM114.38 -6.36L108.57 -6.36C108.67 -7.2 109.02 -7.87 109.63 -8.37C110.25 -8.88 110.93 -9.13 111.69 -9.13C112.4 -9.13 113.01 -8.89 113.52 -8.42C114.03 -7.95 114.32 -7.26 114.38 -6.36Z M120.63 -9.57C120.63 -9.98 120.6 -10.24 120.54 -10.36C120.47 -10.47 120.33 -10.53 120.1 -10.53C120.08 -10.53 119.92 -10.51 119.61 -10.47C119.31 -10.44 119.02 -10.42 118.75 -10.42C118.31 -10.42 117.85 -10.46 117.39 -10.53C117.32 -10.49 117.25 -10.34 117.18 -10.09C117.11 -9.83 117.07 -9.54 117.07 -9.21C117.07 -8.99 117.08 -8.85 117.1 -8.79C117.13 -8.72 117.18 -8.68 117.27 -8.66C117.83 -8.64 118.21 -8.55 118.41 -8.41C118.61 -8.26 118.71 -8.02 118.71 -7.68L118.71 -2.54C118.71 -2.34 118.67 -2.19 118.59 -2.08C118.52 -1.98 118.35 -1.92 118.1 -1.92C117.85 -1.92 117.64 -1.88 117.46 -1.81C117.29 -1.73 117.2 -1.61 117.2 -1.46C117.2 -1.14 117.25 -0.83 117.34 -0.52C117.44 -0.22 117.6 -0.02 117.81 0.08C118.28 0.03 118.96 0 119.83 0C120.71 0 121.38 0.03 121.84 0.08C122.04 -0.02 122.19 -0.22 122.29 -0.53C122.4 -0.83 122.45 -1.14 122.45 -1.46C122.45 -1.61 122.36 -1.73 122.19 -1.81C122.01 -1.88 121.8 -1.92 121.55 -1.92C121.41 -1.92 121.29 -1.94 121.2 -1.98C121.11 -2.01 121.05 -2.07 121.01 -2.14C120.97 -2.21 120.95 -2.27 120.94 -2.33C120.93 -2.38 120.93 -2.46 120.93 -2.56L120.93 -7.5C121.11 -7.86 121.39 -8.19 121.77 -8.46C122.15 -8.74 122.53 -8.88 122.91 -8.88C123.12 -8.88 123.31 -8.83 123.49 -8.75L123.6 -7.73C123.61 -7.7 123.61 -7.66 123.62 -7.61C123.62 -7.56 123.62 -7.53 123.63 -7.5C123.63 -7.47 123.64 -7.44 123.64 -7.4C123.65 -7.36 123.66 -7.32 123.66 -7.3C123.67 -7.29 123.68 -7.26 123.69 -7.24C123.7 -7.21 123.71 -7.19 123.72 -7.18C123.73 -7.16 123.75 -7.15 123.76 -7.14C123.78 -7.13 123.8 -7.12 123.83 -7.11C123.85 -7.1 123.88 -7.1 123.91 -7.1C125.14 -7.1 125.75 -7.68 125.75 -8.84C125.75 -9.26 125.64 -9.62 125.41 -9.91C125.17 -10.21 124.9 -10.41 124.59 -10.52C124.28 -10.64 123.95 -10.69 123.6 -10.69C123.08 -10.69 122.52 -10.52 121.94 -10.17C121.36 -9.81 120.93 -9.4 120.63 -8.94Z M130.5 -8.06C130.46 -8.13 130.44 -8.22 130.44 -8.32C130.44 -8.44 130.5 -8.53 130.63 -8.59C130.75 -8.64 130.88 -8.68 131.03 -8.68C131.17 -8.69 131.3 -8.72 131.43 -8.79C131.55 -8.85 131.61 -8.96 131.61 -9.09L131.61 -9.16C131.51 -10.03 131.4 -10.54 131.28 -10.69C130.63 -10.52 129.88 -10.44 129.02 -10.44C128.18 -10.44 127.46 -10.52 126.87 -10.69C126.61 -10.58 126.48 -10.27 126.48 -9.77C126.48 -9.37 126.56 -9.09 126.72 -8.93C126.88 -8.77 127.15 -8.69 127.54 -8.69C127.63 -8.69 127.71 -8.68 127.78 -8.66C127.85 -8.64 127.9 -8.62 127.94 -8.6C127.99 -8.58 128.03 -8.55 128.07 -8.49C128.11 -8.44 128.14 -8.4 128.15 -8.37C128.17 -8.35 128.19 -8.3 128.22 -8.22C128.26 -8.14 128.27 -8.1 128.28 -8.08L131.41 -1.53C131.46 -1.4 131.55 -1.31 131.67 -1.26C131.79 -1.22 131.97 -1.2 132.21 -1.2C132.06 -0.91 131.91 -0.6 131.75 -0.27C131.59 0.06 131.48 0.3 131.42 0.44C131.35 0.59 131.27 0.75 131.17 0.92C131.07 1.09 131 1.2 130.96 1.25C130.91 1.3 130.84 1.36 130.75 1.42C130.66 1.47 130.57 1.51 130.49 1.52C130.4 1.53 130.29 1.53 130.14 1.53C129.8 1.53 129.44 1.49 129.06 1.39C128.67 1.3 128.44 1.25 128.38 1.25C128.21 1.25 128.09 1.32 128.03 1.45C127.96 1.58 127.93 1.84 127.93 2.23C127.93 2.53 128.15 2.79 128.59 3.03C129.04 3.27 129.56 3.39 130.18 3.39C130.94 3.39 131.59 3.19 132.12 2.8C132.65 2.4 133.11 1.78 133.5 0.93L137.4 -8.08C137.42 -8.1 137.44 -8.15 137.47 -8.22C137.5 -8.29 137.52 -8.34 137.53 -8.37C137.54 -8.4 137.57 -8.44 137.61 -8.5C137.65 -8.55 137.69 -8.58 137.73 -8.6C137.77 -8.62 137.83 -8.64 137.9 -8.66C137.97 -8.68 138.05 -8.69 138.14 -8.69C138.54 -8.69 138.81 -8.77 138.96 -8.93C139.12 -9.09 139.2 -9.37 139.2 -9.77C139.2 -10.27 139.07 -10.58 138.82 -10.69C138.16 -10.52 137.44 -10.44 136.66 -10.44C135.92 -10.44 135.24 -10.52 134.6 -10.69C134.48 -10.54 134.37 -10.03 134.27 -9.16L134.27 -9.09C134.27 -8.96 134.32 -8.86 134.42 -8.79C134.52 -8.73 134.63 -8.7 134.75 -8.69C134.87 -8.68 134.98 -8.65 135.08 -8.59C135.18 -8.54 135.23 -8.44 135.23 -8.32C135.23 -8.24 135.22 -8.15 135.19 -8.06L133.01 -2.47Z"></path></g></g></svg>