<svg id="SvgjsSvg1088" width="100%" height="100%" xmlns="http://www.w3.org/2000/svg" version="1.1" xlink="http://www.w3.org/1999/xlink" xmlns:svgjs="http://svgjs.com/svgjs" preserveAspectRatio="xMidYMid meet" viewBox="0 0 300 35.78013610839844" overflow="visible"><defs id="SvgjsDefs1089"></defs><g id="SvgjsG1090" transform="scale(0.5834986579530868)" opacity="1"><g id="SvgjsG1091" class="OkSzZz4O5" transform="translate(0, 0) scale(1)" light-content="false" fill="#404040"><path d="M0 0 h 309.76 v 61.31999999999999 h -309.76 Z"></path></g><g id="SvgjsG1092" class="text" transform="translate(155.1199951171875, 49.15999984741211) scale(1)" light-content="true" fill="#ffffff"><path d="M-95.46 -0.36C-95.46 -0.6 -95.5 -0.72 -95.58 -0.72C-96.82 -0.72 -97.73 -0.82 -98.31 -1.02C-98.89 -1.22 -99.29 -1.6 -99.51 -2.16C-99.73 -2.72 -99.88 -3.62 -99.96 -4.86L-101.4 -32.1C-101.48 -33.7 -101.1 -34.88 -100.26 -35.64C-99.42 -36.4 -98.06 -36.78 -96.18 -36.78C-96.06 -36.78 -96 -36.9 -96 -37.14C-96 -37.38 -96.06 -37.5 -96.18 -37.5C-97.22 -37.5 -98.02 -37.48 -98.58 -37.44L-102.12 -37.38C-102.72 -37.38 -103.25 -37.4 -103.71 -37.44C-104.17 -37.48 -104.58 -37.5 -104.94 -37.5C-105.38 -37.5 -105.73 -37.39 -105.99 -37.17C-106.25 -36.95 -106.5 -36.56 -106.74 -36L-118.14 -9.84L-131.22 -34.38C-131.98 -35.74 -132.5 -36.6 -132.78 -36.96C-133.06 -37.32 -133.46 -37.5 -133.98 -37.5C-134.54 -37.5 -135 -37.48 -135.36 -37.44L-138.54 -37.38C-139.42 -37.38 -140.14 -37.4 -140.7 -37.44L-143.52 -37.5C-143.64 -37.5 -143.7 -37.38 -143.7 -37.14C-143.7 -36.9 -143.64 -36.78 -143.52 -36.78C-142.4 -36.78 -141.41 -36.44 -140.55 -35.76C-139.69 -35.08 -138.86 -34 -138.06 -32.52L-138 -32.46L-138.54 -7.62C-138.58 -5.5 -139.08 -3.82 -140.04 -2.58C-141 -1.34 -142.3 -0.72 -143.94 -0.72C-144.06 -0.72 -144.12 -0.6 -144.12 -0.36C-144.12 -0.12 -144.06 0 -143.94 0C-142.86 0 -142 -0.02 -141.36 -0.06L-137.58 -0.12L-134.28 -0.06C-133.68 -0.02 -132.84 0 -131.76 0C-131.64 0 -131.58 -0.12 -131.58 -0.36C-131.58 -0.6 -131.64 -0.72 -131.76 -0.72C-133.4 -0.72 -134.67 -1.33 -135.57 -2.55C-136.47 -3.77 -136.9 -5.46 -136.86 -7.62L-136.38 -29.28L-121.2 -0.42C-121.12 -0.26 -120.96 -0.18 -120.72 -0.18C-120.48 -0.18 -120.32 -0.26 -120.24 -0.42L-107.88 -29.4L-106.62 -4.86L-106.56 -3.84C-106.56 -2.56 -106.86 -1.72 -107.46 -1.32C-108.06 -0.92 -109.2 -0.72 -110.88 -0.72C-111 -0.72 -111.06 -0.6 -111.06 -0.36C-111.06 -0.12 -111 0 -110.88 0C-109.56 0 -108.52 -0.02 -107.76 -0.06L-103.26 -0.12L-98.82 -0.06C-98.02 -0.02 -96.94 0 -95.58 0C-95.5 0 -95.46 -0.12 -95.46 -0.36Z M-82.11 -1.89C-79.21 -0.15 -75.9 0.72 -72.18 0.72C-68.42 0.72 -64.93 -0.16 -61.71 -1.92C-58.49 -3.68 -55.92 -6.08 -54 -9.12C-52.08 -12.16 -51.12 -15.5 -51.12 -19.14C-51.12 -22.42 -51.89 -25.52 -53.43 -28.44C-54.97 -31.36 -57.18 -33.71 -60.06 -35.49C-62.94 -37.27 -66.28 -38.16 -70.08 -38.16C-73.48 -38.16 -76.81 -37.42 -80.07 -35.94C-83.33 -34.46 -86 -32.25 -88.08 -29.31C-90.16 -26.37 -91.2 -22.84 -91.2 -18.72C-91.2 -15.2 -90.41 -11.95 -88.83 -8.97C-87.25 -5.99 -85.01 -3.63 -82.11 -1.89ZM-64.17 -2.73C-65.95 -1.43 -67.96 -0.78 -70.2 -0.78C-72.8 -0.78 -75.13 -1.64 -77.19 -3.36C-79.25 -5.08 -80.87 -7.47 -82.05 -10.53C-83.23 -13.59 -83.82 -17.06 -83.82 -20.94C-83.82 -25.86 -82.84 -29.69 -80.88 -32.43C-78.92 -35.17 -76.12 -36.54 -72.48 -36.54C-69.64 -36.54 -67.16 -35.72 -65.04 -34.08C-62.92 -32.44 -61.3 -30.17 -60.18 -27.27C-59.06 -24.37 -58.5 -21.08 -58.5 -17.4C-58.5 -13.92 -59 -10.93 -60 -8.43C-61 -5.93 -62.39 -4.03 -64.17 -2.73Z M-5.58 -0.36C-5.58 -0.6 -5.62 -0.72 -5.7 -0.72C-7.3 -0.72 -8.95 -1.37 -10.65 -2.67C-12.35 -3.97 -14.29 -6.04 -16.47 -8.88C-18.65 -11.72 -21.34 -15.66 -24.54 -20.7C-22.74 -21.74 -21.28 -23.1 -20.16 -24.78C-19.04 -26.46 -18.48 -28.22 -18.48 -30.06C-18.48 -32.46 -19.49 -34.33 -21.51 -35.67C-23.53 -37.01 -26.38 -37.68 -30.06 -37.68C-31.02 -37.68 -31.85 -37.66 -32.55 -37.62C-33.25 -37.58 -33.82 -37.54 -34.26 -37.5C-35.66 -37.38 -36.94 -37.32 -38.1 -37.32C-39.18 -37.32 -40.64 -37.36 -42.48 -37.44L-45.66 -37.5C-45.74 -37.5 -45.78 -37.38 -45.78 -37.14C-45.78 -36.9 -45.74 -36.78 -45.66 -36.78C-44.42 -36.78 -43.5 -36.67 -42.9 -36.45C-42.3 -36.23 -41.9 -35.84 -41.7 -35.28C-41.5 -34.72 -41.4 -33.84 -41.4 -32.64L-41.4 -4.86C-41.4 -3.66 -41.51 -2.77 -41.73 -2.19C-41.95 -1.61 -42.35 -1.22 -42.93 -1.02C-43.51 -0.82 -44.44 -0.72 -45.72 -0.72C-45.84 -0.72 -45.9 -0.6 -45.9 -0.36C-45.9 -0.12 -45.84 0 -45.72 0C-44.36 0 -43.28 -0.02 -42.48 -0.06L-38.1 -0.12L-33.54 -0.06C-32.78 -0.02 -31.74 0 -30.42 0C-30.34 0 -30.3 -0.12 -30.3 -0.36C-30.3 -0.6 -30.34 -0.72 -30.42 -0.72C-31.7 -0.72 -32.63 -0.82 -33.21 -1.02C-33.79 -1.22 -34.18 -1.6 -34.38 -2.16C-34.58 -2.72 -34.68 -3.62 -34.68 -4.86L-34.68 -18.78C-34.04 -18.74 -32.94 -18.72 -31.38 -18.72C-30.78 -18.72 -30.32 -18.74 -30 -18.78C-26.6 -12.86 -23.7 -8.25 -21.3 -4.95C-18.9 -1.65 -17.26 0 -16.38 0L-5.7 0C-5.62 0 -5.58 -0.12 -5.58 -0.36ZM-31.2 -20.28C-32.56 -20.28 -33.72 -20.36 -34.68 -20.52L-34.68 -32.52C-34.68 -33.92 -34.4 -34.92 -33.84 -35.52C-33.28 -36.12 -32.32 -36.42 -30.96 -36.42C-29.16 -36.42 -27.78 -35.8 -26.82 -34.56C-25.86 -33.32 -25.38 -31.06 -25.38 -27.78C-25.38 -25.82 -25.57 -24.3 -25.95 -23.22C-26.33 -22.14 -26.94 -21.38 -27.78 -20.94C-28.62 -20.5 -29.76 -20.28 -31.2 -20.28Z M37.2 -37.14C37.2 -37.38 37.16 -37.5 37.08 -37.5L34.38 -37.44C32.94 -37.36 31.82 -37.32 31.02 -37.32C30.14 -37.32 29.06 -37.36 27.78 -37.44L25.2 -37.5C25.12 -37.5 25.08 -37.38 25.08 -37.14C25.08 -36.9 25.12 -36.78 25.2 -36.78C26.76 -36.78 27.98 -36.16 28.86 -34.92C29.74 -33.68 30.18 -31.98 30.18 -29.82L30.18 -10.44L9.42 -34.38C9.14 -34.7 8.66 -35.32 7.98 -36.24C7.58 -36.76 7.3 -37.1 7.14 -37.26C6.98 -37.42 6.74 -37.5 6.42 -37.5C5.62 -37.5 4.94 -37.48 4.38 -37.44L-0.18 -37.38C-1.18 -37.38 -1.94 -37.4 -2.46 -37.44L-4.98 -37.5C-5.06 -37.5 -5.1 -37.38 -5.1 -37.14C-5.1 -36.9 -5.06 -36.78 -4.98 -36.78C-3.98 -36.78 -3.01 -36.51 -2.07 -35.97C-1.13 -35.43 0 -34.44 1.32 -33L1.32 -7.62C1.32 -5.5 0.81 -3.82 -0.21 -2.58C-1.23 -1.34 -2.62 -0.72 -4.38 -0.72C-4.5 -0.72 -4.56 -0.6 -4.56 -0.36C-4.56 -0.12 -4.5 0 -4.38 0C-3.1 0 -2.12 -0.02 -1.44 -0.06L2.28 -0.12L5.52 -0.06C6.12 -0.02 6.98 0 8.1 0C8.18 0 8.22 -0.12 8.22 -0.36C8.22 -0.6 8.18 -0.72 8.1 -0.72C6.54 -0.72 5.32 -1.34 4.44 -2.58C3.56 -3.82 3.12 -5.5 3.12 -7.62L3.12 -30.96L31.26 1.08C31.34 1.16 31.47 1.18 31.65 1.14C31.83 1.1 31.92 1.02 31.92 0.9L31.92 -29.82C31.92 -31.94 32.38 -33.63 33.3 -34.89C34.22 -36.15 35.48 -36.78 37.08 -36.78C37.16 -36.78 37.2 -36.9 37.2 -37.14Z M51.72 -2.16C51.52 -2.72 51.42 -3.62 51.42 -4.86L51.42 -32.52C51.42 -33.72 51.52 -34.61 51.72 -35.19C51.92 -35.77 52.32 -36.18 52.92 -36.42C53.52 -36.66 54.44 -36.78 55.68 -36.78C55.8 -36.78 55.86 -36.9 55.86 -37.14C55.86 -37.38 55.8 -37.5 55.68 -37.5L52.62 -37.44C50.78 -37.36 49.24 -37.32 48 -37.32C46.88 -37.32 45.4 -37.36 43.56 -37.44L40.32 -37.5C40.24 -37.5 40.2 -37.38 40.2 -37.14C40.2 -36.9 40.24 -36.78 40.32 -36.78C41.6 -36.78 42.54 -36.67 43.14 -36.45C43.74 -36.23 44.15 -35.84 44.37 -35.28C44.59 -34.72 44.7 -33.84 44.7 -32.64L44.7 -4.86C44.7 -3.66 44.59 -2.77 44.37 -2.19C44.15 -1.61 43.74 -1.22 43.14 -1.02C42.54 -0.82 41.6 -0.72 40.32 -0.72C40.24 -0.72 40.2 -0.6 40.2 -0.36C40.2 -0.12 40.24 0 40.32 0C41.68 0 42.76 -0.02 43.56 -0.06L48 -0.12L52.56 -0.06C53.32 -0.02 54.36 0 55.68 0C55.8 0 55.86 -0.12 55.86 -0.36C55.86 -0.6 55.8 -0.72 55.68 -0.72C54.4 -0.72 53.47 -0.82 52.89 -1.02C52.31 -1.22 51.92 -1.6 51.72 -2.16Z M101.82 -37.14C101.82 -37.38 101.78 -37.5 101.7 -37.5L99 -37.44C97.56 -37.36 96.44 -37.32 95.64 -37.32C94.76 -37.32 93.68 -37.36 92.4 -37.44L89.82 -37.5C89.74 -37.5 89.7 -37.38 89.7 -37.14C89.7 -36.9 89.74 -36.78 89.82 -36.78C91.38 -36.78 92.6 -36.16 93.48 -34.92C94.36 -33.68 94.8 -31.98 94.8 -29.82L94.8 -10.44L74.04 -34.38C73.76 -34.7 73.28 -35.32 72.6 -36.24C72.2 -36.76 71.92 -37.1 71.76 -37.26C71.6 -37.42 71.36 -37.5 71.04 -37.5C70.24 -37.5 69.56 -37.48 69 -37.44L64.44 -37.38C63.44 -37.38 62.68 -37.4 62.16 -37.44L59.64 -37.5C59.56 -37.5 59.52 -37.38 59.52 -37.14C59.52 -36.9 59.56 -36.78 59.64 -36.78C60.64 -36.78 61.61 -36.51 62.55 -35.97C63.49 -35.43 64.62 -34.44 65.94 -33L65.94 -7.62C65.94 -5.5 65.43 -3.82 64.41 -2.58C63.39 -1.34 62 -0.72 60.24 -0.72C60.12 -0.72 60.06 -0.6 60.06 -0.36C60.06 -0.12 60.12 0 60.24 0C61.52 0 62.5 -0.02 63.18 -0.06L66.9 -0.12L70.14 -0.06C70.74 -0.02 71.6 0 72.72 0C72.8 0 72.84 -0.12 72.84 -0.36C72.84 -0.6 72.8 -0.72 72.72 -0.72C71.16 -0.72 69.94 -1.34 69.06 -2.58C68.18 -3.82 67.74 -5.5 67.74 -7.62L67.74 -30.96L95.88 1.08C95.96 1.16 96.09 1.18 96.27 1.14C96.45 1.1 96.54 1.02 96.54 0.9L96.54 -29.82C96.54 -31.94 97 -33.63 97.92 -34.89C98.84 -36.15 100.1 -36.78 101.7 -36.78C101.78 -36.78 101.82 -36.9 101.82 -37.14Z M115.44 -1.8C118.72 -0.12 122.56 0.72 126.96 0.72C131.08 0.72 135.72 0.16 140.88 -0.96C141.16 -1.04 141.35 -1.12 141.45 -1.2C141.55 -1.28 141.6 -1.44 141.6 -1.68C141.6 -1.88 141.53 -2.36 141.39 -3.12C141.25 -3.88 141.18 -5.16 141.18 -6.96C141.18 -9.28 141.22 -10.89 141.3 -11.79C141.38 -12.69 141.56 -13.29 141.84 -13.59C142.12 -13.89 142.62 -14.02 143.34 -13.98C143.54 -13.98 143.64 -14.12 143.64 -14.4C143.64 -14.48 143.61 -14.57 143.55 -14.67C143.49 -14.77 143.42 -14.82 143.34 -14.82C141.14 -14.7 139.02 -14.64 136.98 -14.64C134.9 -14.64 132.16 -14.74 128.76 -14.94C128.68 -14.94 128.61 -14.89 128.55 -14.79C128.49 -14.69 128.46 -14.58 128.46 -14.46C128.46 -14.14 128.58 -13.98 128.82 -13.98C130.74 -13.98 132.09 -13.84 132.87 -13.56C133.65 -13.28 134.16 -12.73 134.4 -11.91C134.64 -11.09 134.76 -9.64 134.76 -7.56C134.76 -5.52 134.56 -3.98 134.16 -2.94C133.76 -1.9 133.12 -1.2 132.24 -0.84C131.36 -0.48 130.1 -0.3 128.46 -0.3C125.46 -0.3 122.75 -1.15 120.33 -2.85C117.91 -4.55 116.02 -6.95 114.66 -10.05C113.3 -13.15 112.62 -16.68 112.62 -20.64C112.62 -25.56 113.69 -29.44 115.83 -32.28C117.97 -35.12 121.08 -36.54 125.16 -36.54C128.32 -36.54 131.13 -35.68 133.59 -33.96C136.05 -32.24 137.98 -29.84 139.38 -26.76C139.46 -26.6 139.6 -26.54 139.8 -26.58C140 -26.62 140.1 -26.7 140.1 -26.82L139.32 -35.16C139.28 -35.6 139.21 -35.91 139.11 -36.09C139.01 -36.27 138.78 -36.42 138.42 -36.54C137.26 -37.02 135.72 -37.41 133.8 -37.71C131.88 -38.01 129.98 -38.16 128.1 -38.16C123.82 -38.16 119.95 -37.33 116.49 -35.67C113.03 -34.01 110.31 -31.67 108.33 -28.65C106.35 -25.63 105.36 -22.2 105.36 -18.36C105.36 -14.8 106.22 -11.57 107.94 -8.67C109.66 -5.77 112.16 -3.48 115.44 -1.8Z"></path></g><g id="SvgjsG1093" class="text" transform="translate(417.4800012207031, 49.37999984741211) scale(1)" light-content="false" fill="#808080"><path d="M-87.63 -1.89C-84.73 -0.15 -81.42 0.72 -77.7 0.72C-73.94 0.72 -70.45 -0.16 -67.23 -1.92C-64.01 -3.68 -61.44 -6.08 -59.52 -9.12C-57.6 -12.16 -56.64 -15.5 -56.64 -19.14C-56.64 -22.42 -57.41 -25.52 -58.95 -28.44C-60.49 -31.36 -62.7 -33.71 -65.58 -35.49C-68.46 -37.27 -71.8 -38.16 -75.6 -38.16C-79 -38.16 -82.33 -37.42 -85.59 -35.94C-88.85 -34.46 -91.52 -32.25 -93.6 -29.31C-95.68 -26.37 -96.72 -22.84 -96.72 -18.72C-96.72 -15.2 -95.93 -11.95 -94.35 -8.97C-92.77 -5.99 -90.53 -3.63 -87.63 -1.89ZM-68.25 -2.52C-70.43 -1.2 -72.88 -0.54 -75.6 -0.54C-78.8 -0.54 -81.66 -1.43 -84.18 -3.21C-86.7 -4.99 -88.66 -7.43 -90.06 -10.53C-91.46 -13.63 -92.16 -17.06 -92.16 -20.82C-92.16 -25.78 -90.92 -29.68 -88.44 -32.52C-85.96 -35.36 -82.52 -36.78 -78.12 -36.78C-74.72 -36.78 -71.75 -35.96 -69.21 -34.32C-66.67 -32.68 -64.7 -30.4 -63.3 -27.48C-61.9 -24.56 -61.2 -21.22 -61.2 -17.46C-61.2 -13.94 -61.83 -10.9 -63.09 -8.34C-64.35 -5.78 -66.07 -3.84 -68.25 -2.52Z M-26.34 -29.58L-26.46 -36.96C-26.46 -37.32 -26.64 -37.5 -27 -37.5L-51.12 -37.5C-51.2 -37.5 -51.24 -37.38 -51.24 -37.14C-51.24 -36.9 -51.2 -36.78 -51.12 -36.78C-49.6 -36.78 -48.49 -36.67 -47.79 -36.45C-47.09 -36.23 -46.61 -35.84 -46.35 -35.28C-46.09 -34.72 -45.96 -33.84 -45.96 -32.64L-45.96 -4.86C-45.96 -3.66 -46.09 -2.77 -46.35 -2.19C-46.61 -1.61 -47.1 -1.22 -47.82 -1.02C-48.54 -0.82 -49.66 -0.72 -51.18 -0.72C-51.26 -0.72 -51.3 -0.6 -51.3 -0.36C-51.3 -0.12 -51.26 0 -51.18 0C-49.86 0 -48.84 -0.02 -48.12 -0.06L-44.04 -0.12L-38.64 -0.06C-37.72 -0.02 -36.44 0 -34.8 0C-34.68 0 -34.62 -0.12 -34.62 -0.36C-34.62 -0.6 -34.68 -0.72 -34.8 -0.72C-36.96 -0.72 -38.54 -0.84 -39.54 -1.08C-40.54 -1.32 -41.21 -1.73 -41.55 -2.31C-41.89 -2.89 -42.06 -3.82 -42.06 -5.1L-42.06 -18.18L-36.18 -18.18C-33.98 -18.18 -32.41 -17.8 -31.47 -17.04C-30.53 -16.28 -30.06 -15.02 -30.06 -13.26C-30.06 -13.18 -29.94 -13.14 -29.7 -13.14C-29.46 -13.14 -29.34 -13.18 -29.34 -13.26L-29.4 -16.14C-29.44 -16.74 -29.46 -17.62 -29.46 -18.78L-29.4 -23.64C-29.4 -23.72 -29.52 -23.76 -29.76 -23.76C-30 -23.76 -30.12 -23.72 -30.12 -23.64C-30.12 -22.16 -30.57 -21.09 -31.47 -20.43C-32.37 -19.77 -33.88 -19.44 -36 -19.44L-42.06 -19.44L-42.06 -32.58C-42.06 -33.58 -41.93 -34.34 -41.67 -34.86C-41.41 -35.38 -40.94 -35.74 -40.26 -35.94C-39.58 -36.14 -38.56 -36.24 -37.2 -36.24L-33.54 -36.24C-31.62 -36.24 -30.08 -35.65 -28.92 -34.47C-27.76 -33.29 -27.12 -31.64 -27 -29.52C-26.96 -29.4 -26.84 -29.35 -26.64 -29.37C-26.44 -29.39 -26.34 -29.46 -26.34 -29.58Z M4.2 -29.58L4.08 -36.96C4.08 -37.32 3.9 -37.5 3.54 -37.5L-20.58 -37.5C-20.66 -37.5 -20.7 -37.38 -20.7 -37.14C-20.7 -36.9 -20.66 -36.78 -20.58 -36.78C-19.06 -36.78 -17.95 -36.67 -17.25 -36.45C-16.55 -36.23 -16.07 -35.84 -15.81 -35.28C-15.55 -34.72 -15.42 -33.84 -15.42 -32.64L-15.42 -4.86C-15.42 -3.66 -15.55 -2.77 -15.81 -2.19C-16.07 -1.61 -16.56 -1.22 -17.28 -1.02C-18 -0.82 -19.12 -0.72 -20.64 -0.72C-20.72 -0.72 -20.76 -0.6 -20.76 -0.36C-20.76 -0.12 -20.72 0 -20.64 0C-19.32 0 -18.3 -0.02 -17.58 -0.06L-13.5 -0.12L-8.1 -0.06C-7.18 -0.02 -5.9 0 -4.26 0C-4.14 0 -4.08 -0.12 -4.08 -0.36C-4.08 -0.6 -4.14 -0.72 -4.26 -0.72C-6.42 -0.72 -8 -0.84 -9 -1.08C-10 -1.32 -10.67 -1.73 -11.01 -2.31C-11.35 -2.89 -11.52 -3.82 -11.52 -5.1L-11.52 -18.18L-5.64 -18.18C-3.44 -18.18 -1.87 -17.8 -0.93 -17.04C0.01 -16.28 0.48 -15.02 0.48 -13.26C0.48 -13.18 0.6 -13.14 0.84 -13.14C1.08 -13.14 1.2 -13.18 1.2 -13.26L1.14 -16.14C1.1 -16.74 1.08 -17.62 1.08 -18.78L1.14 -23.64C1.14 -23.72 1.02 -23.76 0.78 -23.76C0.54 -23.76 0.42 -23.72 0.42 -23.64C0.42 -22.16 -0.03 -21.09 -0.93 -20.43C-1.83 -19.77 -3.34 -19.44 -5.46 -19.44L-11.52 -19.44L-11.52 -32.58C-11.52 -33.58 -11.39 -34.34 -11.13 -34.86C-10.87 -35.38 -10.4 -35.74 -9.72 -35.94C-9.04 -36.14 -8.02 -36.24 -6.66 -36.24L-3 -36.24C-1.08 -36.24 0.46 -35.65 1.62 -34.47C2.78 -33.29 3.42 -31.64 3.54 -29.52C3.58 -29.4 3.7 -29.35 3.9 -29.37C4.1 -29.39 4.2 -29.46 4.2 -29.58Z M19.68 -2.19C19.44 -2.77 19.32 -3.66 19.32 -4.86L19.32 -32.52C19.32 -33.72 19.45 -34.61 19.71 -35.19C19.97 -35.77 20.45 -36.18 21.15 -36.42C21.85 -36.66 22.94 -36.78 24.42 -36.78C24.54 -36.78 24.6 -36.9 24.6 -37.14C24.6 -37.38 24.54 -37.5 24.42 -37.5L21.6 -37.44C19.92 -37.36 18.48 -37.32 17.28 -37.32C16.2 -37.32 14.82 -37.36 13.14 -37.44L10.2 -37.5C10.08 -37.5 10.02 -37.38 10.02 -37.14C10.02 -36.9 10.08 -36.78 10.2 -36.78C11.72 -36.78 12.83 -36.67 13.53 -36.45C14.23 -36.23 14.71 -35.84 14.97 -35.28C15.23 -34.72 15.36 -33.84 15.36 -32.64L15.36 -4.86C15.36 -3.66 15.23 -2.77 14.97 -2.19C14.71 -1.61 14.23 -1.22 13.53 -1.02C12.83 -0.82 11.72 -0.72 10.2 -0.72C10.08 -0.72 10.02 -0.6 10.02 -0.36C10.02 -0.12 10.08 0 10.2 0C11.44 0 12.42 -0.02 13.14 -0.06L17.28 -0.12L21.54 -0.06C22.26 -0.02 23.22 0 24.42 0C24.54 0 24.6 -0.12 24.6 -0.36C24.6 -0.6 24.54 -0.72 24.42 -0.72C22.9 -0.72 21.79 -0.82 21.09 -1.02C20.39 -1.22 19.92 -1.61 19.68 -2.19Z M58.02 -37.62C56.06 -37.98 54.12 -38.16 52.2 -38.16C48.36 -38.16 44.76 -37.36 41.4 -35.76C38.04 -34.16 35.34 -31.9 33.3 -28.98C31.26 -26.06 30.24 -22.76 30.24 -19.08C30.24 -15.76 31 -12.6 32.52 -9.6C34.04 -6.6 36.41 -4.13 39.63 -2.19C42.85 -0.25 46.86 0.72 51.66 0.72C55.66 0.72 59.46 -0.04 63.06 -1.56C63.42 -1.72 63.65 -1.87 63.75 -2.01C63.85 -2.15 63.94 -2.46 64.02 -2.94L64.86 -9.72C64.86 -9.8 64.81 -9.86 64.71 -9.9C64.61 -9.94 64.5 -9.96 64.38 -9.96C64.22 -9.96 64.14 -9.9 64.14 -9.78C63.02 -6.5 61.4 -4.07 59.28 -2.49C57.16 -0.91 54.66 -0.12 51.78 -0.12C48.74 -0.12 45.91 -1.04 43.29 -2.88C40.67 -4.72 38.59 -7.22 37.05 -10.38C35.51 -13.54 34.74 -16.98 34.74 -20.7C34.74 -23.9 35.36 -26.72 36.6 -29.16C37.84 -31.6 39.6 -33.49 41.88 -34.83C44.16 -36.17 46.82 -36.84 49.86 -36.84C53.38 -36.84 56.33 -36.11 58.71 -34.65C61.09 -33.19 62.72 -30.92 63.6 -27.84C63.64 -27.72 63.76 -27.67 63.96 -27.69C64.16 -27.71 64.26 -27.78 64.26 -27.9L63.6 -34.62C63.56 -35.06 63.49 -35.37 63.39 -35.55C63.29 -35.73 63.06 -35.9 62.7 -36.06C61.54 -36.74 59.98 -37.26 58.02 -37.62Z M96.18 -9.06C96.02 -9.06 95.94 -9.02 95.94 -8.94C95.5 -6.54 94.64 -4.66 93.36 -3.3C92.08 -1.94 90.48 -1.26 88.56 -1.26L83.76 -1.26C82.4 -1.26 81.4 -1.36 80.76 -1.56C80.12 -1.76 79.68 -2.12 79.44 -2.64C79.2 -3.16 79.08 -3.98 79.08 -5.1L79.08 -18.9L86.22 -18.9C88.22 -18.9 89.65 -18.52 90.51 -17.76C91.37 -17 91.8 -15.74 91.8 -13.98C91.8 -13.9 91.92 -13.86 92.16 -13.86C92.4 -13.86 92.52 -13.9 92.52 -13.98L92.46 -16.86C92.42 -17.46 92.4 -18.34 92.4 -19.5L92.46 -24.36C92.46 -24.44 92.34 -24.48 92.1 -24.48C91.86 -24.48 91.74 -24.44 91.74 -24.36C91.74 -22.84 91.33 -21.76 90.51 -21.12C89.69 -20.48 88.32 -20.16 86.4 -20.16L79.08 -20.16L79.08 -32.34C79.08 -33.42 79.21 -34.23 79.47 -34.77C79.73 -35.31 80.19 -35.69 80.85 -35.91C81.51 -36.13 82.54 -36.24 83.94 -36.24L87.6 -36.24C89.52 -36.24 91.06 -35.65 92.22 -34.47C93.38 -33.29 94.02 -31.64 94.14 -29.52C94.18 -29.4 94.3 -29.35 94.5 -29.37C94.7 -29.39 94.8 -29.46 94.8 -29.58L94.68 -36.96C94.68 -37.32 94.5 -37.5 94.14 -37.5L70.02 -37.5C69.94 -37.5 69.9 -37.38 69.9 -37.14C69.9 -36.9 69.94 -36.78 70.02 -36.78C71.54 -36.78 72.65 -36.67 73.35 -36.45C74.05 -36.23 74.53 -35.84 74.79 -35.28C75.05 -34.72 75.18 -33.84 75.18 -32.64L75.18 -4.86C75.18 -3.66 75.05 -2.77 74.79 -2.19C74.53 -1.61 74.05 -1.22 73.35 -1.02C72.65 -0.82 71.54 -0.72 70.02 -0.72C69.94 -0.72 69.9 -0.6 69.9 -0.36C69.9 -0.12 69.94 0 70.02 0L95.16 0C95.52 0 95.77 -0.07 95.91 -0.21C96.05 -0.35 96.12 -0.58 96.12 -0.9C96.12 -3.66 96.3 -6.3 96.66 -8.82C96.66 -8.9 96.61 -8.96 96.51 -9C96.41 -9.04 96.3 -9.06 96.18 -9.06Z"></path></g></g></svg>